<svg width="147" height="43" viewBox="0 0 147 43" fill="none" xmlns="http://www.w3.org/2000/svg">
<mask id="mask0_1066_156" style="mask-type:luminance" maskUnits="userSpaceOnUse" x="0" y="0" width="29" height="33">
<path d="M7.88271 27.7967H5.62181V0.0470352H0.046875V32.4404H11.8818L21.2936 5.25774H28.119V0.0470352H17.3758L7.88271 27.7967Z" fill="white"/>
</mask>
<g mask="url(#mask0_1066_156)">
<path d="M7.88271 27.7967H5.62181V0.0470352H0.046875V32.4404H11.8818L21.2936 5.25774H28.119V0.0470352H17.3758L7.88271 27.7967Z" fill="white"/>
</g>
<path d="M7.88173 27.7952H5.62083V0.0455693H0.0458984V32.439H11.8809L21.2927 5.25627H28.118V0.0455693H17.3748L7.88173 27.7952Z" stroke="white" stroke-width="0.0912759" stroke-miterlimit="22.9256"/>
<mask id="mask1_1066_156" style="mask-type:luminance" maskUnits="userSpaceOnUse" x="22" y="9" width="7" height="24">
<path d="M22.5029 32.4404H28.1168V9.25677H22.5029V32.4404Z" fill="white"/>
</mask>
<g mask="url(#mask1_1066_156)">
<path d="M22.5029 32.4404H28.1168V9.25677H22.5029V32.4404Z" fill="white"/>
</g>
<path d="M22.5039 32.439H28.1178V9.2553H22.5039V32.439Z" stroke="white" stroke-width="0.0912759" stroke-miterlimit="22.9256"/>
<mask id="mask2_1066_156" style="mask-type:luminance" maskUnits="userSpaceOnUse" x="46" y="0" width="15" height="33">
<path d="M46.4521 0.0470352L53.4798 32.4404H60.023L51.8651 0.0470352H46.4521Z" fill="white"/>
</mask>
<g mask="url(#mask2_1066_156)">
<path d="M46.4521 0.0470352L53.4798 32.4404H60.023L51.8651 0.0470352H46.4521Z" fill="white"/>
</g>
<path d="M46.4551 0.0455693L53.4828 32.439H60.026L51.868 0.0455693H46.4551Z" stroke="white" stroke-width="0.0912759" stroke-miterlimit="22.9256"/>
<mask id="mask3_1066_156" style="mask-type:luminance" maskUnits="userSpaceOnUse" x="31" y="0" width="13" height="33">
<path d="M39.389 0.0470352L31.3506 32.4404H37.8955L43.7119 6.02732L42.4177 0.0470352H39.389Z" fill="white"/>
</mask>
<g mask="url(#mask3_1066_156)">
<path d="M39.389 0.0470352L31.3506 32.4404H37.8955L43.7119 6.02732L42.4177 0.0470352H39.389Z" fill="white"/>
</g>
<path d="M39.3871 0.0455693L31.3486 32.439H37.8936L43.7099 6.02585L42.4157 0.0455693H39.3871Z" stroke="white" stroke-width="0.0912759" stroke-miterlimit="22.9256"/>
<mask id="mask4_1066_156" style="mask-type:luminance" maskUnits="userSpaceOnUse" x="85" y="9" width="7" height="24">
<path d="M85.7139 32.4404H91.3272V9.25677H85.7139V32.4404Z" fill="white"/>
</mask>
<g mask="url(#mask4_1066_156)">
<path d="M85.7139 32.4404H91.3272V9.25677H85.7139V32.4404Z" fill="white"/>
</g>
<path d="M85.7119 32.439H91.3253V9.2553H85.7119V32.439Z" stroke="white" stroke-width="0.0912759" stroke-miterlimit="22.9256"/>
<mask id="mask5_1066_156" style="mask-type:luminance" maskUnits="userSpaceOnUse" x="63" y="0" width="29" height="33">
<path d="M71.0939 27.7967H68.8326V0.0470352H63.2598V32.4404H75.0925L84.5049 5.25774H91.3296V0.0470352H80.5869L71.0939 27.7967Z" fill="white"/>
</mask>
<g mask="url(#mask5_1066_156)">
<path d="M71.0939 27.7967H68.8326V0.0470352H63.2598V32.4404H75.0925L84.5049 5.25774H91.3296V0.0470352H80.5869L71.0939 27.7967Z" fill="white"/>
</g>
<path d="M71.091 27.7952H68.8297V0.0455693H63.2568V32.439H75.0896L84.502 5.25627H91.3267V0.0455693H80.584L71.091 27.7952Z" stroke="white" stroke-width="0.0912759" stroke-miterlimit="22.9256"/>
<mask id="mask6_1066_156" style="mask-type:luminance" maskUnits="userSpaceOnUse" x="95" y="18" width="26" height="15">
<path d="M101.304 18.1419H95.6094C96.0529 24.3613 98.2755 32.4404 105.263 32.4404H120.975V26.4638H105.425C102.315 26.4638 101.466 21.9789 101.304 18.1419Z" fill="white"/>
</mask>
<g mask="url(#mask6_1066_156)">
<path d="M101.304 18.1419H95.6094C96.0529 24.3613 98.2755 32.4404 105.263 32.4404H120.975V26.4638H105.425C102.315 26.4638 101.466 21.9789 101.304 18.1419Z" fill="white"/>
</g>
<path d="M101.303 18.1405H95.6084C96.052 24.3599 98.2745 32.439 105.262 32.439H120.974V26.4623H105.424C102.314 26.4623 101.465 21.9774 101.303 18.1405Z" stroke="white" stroke-width="0.0912759" stroke-miterlimit="22.9256"/>
<mask id="mask7_1066_156" style="mask-type:luminance" maskUnits="userSpaceOnUse" x="95" y="0" width="26" height="15">
<path d="M105.423 6.02858H120.892V0.0482941H105.261C98.0305 0.0482941 95.9299 8.04634 95.5674 14.1865H101.302C101.464 10.3478 102.232 6.02858 105.423 6.02858Z" fill="white"/>
</mask>
<g mask="url(#mask7_1066_156)">
<path d="M105.423 6.02858H120.892V0.0482941H105.261C98.0305 0.0482941 95.9299 8.04634 95.5674 14.1865H101.302C101.464 10.3478 102.232 6.02858 105.423 6.02858Z" fill="white"/>
</g>
<path d="M105.423 6.02711H120.892V0.0468292H105.261C98.0305 0.0468292 95.9299 8.04488 95.5674 14.1851H101.302C101.464 10.3463 102.232 6.02711 105.423 6.02711Z" stroke="white" stroke-width="0.0912759" stroke-miterlimit="22.9256"/>
<mask id="mask8_1066_156" style="mask-type:luminance" maskUnits="userSpaceOnUse" x="123" y="0" width="24" height="7">
<path d="M123.029 0.0480371V6.02832H146.377V0.0480371H123.029Z" fill="white"/>
</mask>
<g mask="url(#mask8_1066_156)">
<path d="M123.029 0.0480371V6.02832H146.377V0.0480371H123.029Z" fill="white"/>
</g>
<path d="M123.031 0.0480371V6.02832H146.379V0.0480371H123.031Z" stroke="white" stroke-width="0.0912759" stroke-miterlimit="22.9256"/>
<mask id="mask9_1066_156" style="mask-type:luminance" maskUnits="userSpaceOnUse" x="95" y="14" width="7" height="5">
<path d="M95.5674 14.184V18.2002H101.307V14.184H95.5674Z" fill="white"/>
</mask>
<g mask="url(#mask9_1066_156)">
<path d="M95.5674 14.184V18.2002H101.307V14.184H95.5674Z" fill="white"/>
</g>
<path d="M95.5674 14.184V18.2002H101.307V14.184H95.5674Z" stroke="white" stroke-width="0.078856" stroke-miterlimit="22.9256"/>
<mask id="mask10_1066_156" style="mask-type:luminance" maskUnits="userSpaceOnUse" x="131" y="10" width="7" height="23">
<path d="M131.877 32.4404V10.0245H137.853V32.4404H131.877Z" fill="white"/>
</mask>
<g mask="url(#mask10_1066_156)">
<path d="M131.877 32.4404V10.0245H137.853V32.4404H131.877Z" fill="url(#paint0_linear_1066_156)"/>
</g>
<path d="M1.19772 37.9329V39.7404C1.19772 40.4213 1.18489 40.9813 1.14681 41.5541L1.1595 41.5603C1.37584 41.1149 1.64323 40.6502 1.95497 40.1412L3.34224 37.9329H3.89613V42.2222H3.37418V40.3957C3.37418 39.7021 3.38061 39.1928 3.42496 38.6517L3.40598 38.6455C3.19592 39.1165 2.90316 39.613 2.61038 40.0905L1.26775 42.2222H0.675781V37.9329H1.19772Z" fill="white"/>
<path d="M5.543 37.9324V39.7268H7.61765V37.9324H8.17767V42.2217H7.61765V40.2105H5.543V42.2217H4.98926V37.9324H5.543Z" fill="white"/>
<path d="M12.2628 42.0805C12.0591 42.1823 11.6518 42.2842 11.13 42.2842C9.92073 42.2842 9.01074 41.5208 9.01074 40.1142C9.01074 38.7714 9.92073 37.8613 11.2509 37.8613C11.7855 37.8613 12.1226 37.9759 12.2692 38.0522L12.1354 38.5042C11.9255 38.4024 11.6263 38.326 11.2699 38.326C10.2646 38.326 9.59628 38.9689 9.59628 40.0952C9.59628 41.1455 10.2008 41.8198 11.2446 41.8198C11.5818 41.8198 11.9255 41.7497 12.1483 41.6417L12.2628 42.0805Z" fill="white"/>
<path d="M14.12 38.4034H12.8154V37.9324H15.991V38.4034H14.6802V42.2217H14.12V38.4034Z" fill="white"/>
<path d="M17.1165 37.9324V39.7399C17.1165 40.4208 17.1037 40.9808 17.0656 41.5536L17.0783 41.5598C17.2946 41.1144 17.5621 40.6497 17.8738 40.1408L19.2611 37.9324H19.8148V42.2217H19.293V40.3952C19.293 39.7016 19.2993 39.1923 19.3439 38.6513L19.3248 38.645C19.1148 39.116 18.822 39.6125 18.5292 40.09L17.1865 42.2217H16.5947V37.9324H17.1165Z" fill="white"/>
<path d="M21.7225 38.4034H20.418V37.9324H23.5937V38.4034H22.2827V42.2217H21.7225V38.4034Z" fill="white"/>
<path d="M24.6107 37.9331L25.4634 39.7596C25.5715 40.014 25.6734 40.2623 25.7752 40.5168H25.788C25.8643 40.2941 25.9469 40.0458 26.0551 39.7406L26.7235 37.9331H27.3089L26.4116 40.1349C26.1762 40.7081 25.9088 41.3634 25.6098 41.7642C25.3298 42.1143 25.0178 42.2925 24.636 42.2925C24.4961 42.2925 24.3943 42.2797 24.3241 42.2541L24.3815 41.8022C24.4261 41.8153 24.4897 41.8215 24.5851 41.8215C25.0306 41.8153 25.2916 41.3889 25.4252 41.0834C25.4697 40.9877 25.4569 40.9242 25.4061 40.8223L23.9805 37.9331H24.6107Z" fill="white"/>
<path d="M28.9756 38.4034H27.6709V37.9324H30.8466V38.4034H29.5355V42.2217H28.9756V38.4034Z" fill="white"/>
<path d="M35.7456 37.9326V42.2218H35.1856V38.3973H33.7665V39.6952C33.7665 40.6246 33.7283 41.6618 33.1237 42.0692C32.9646 42.1707 32.7165 42.2729 32.4682 42.2729L32.3984 41.8276C32.57 41.7958 32.7483 41.6939 32.8502 41.5979C33.1938 41.261 33.2255 40.4271 33.2255 39.7401V37.9326H35.7456Z" fill="white"/>
<path d="M37.527 40.8727L37.0812 42.2217H36.5088L37.9662 37.9324H38.6343L40.0978 42.2217H39.5061L39.0479 40.8727H37.527ZM38.9332 40.4401L38.5134 39.2054C38.4178 38.9251 38.3542 38.6706 38.2904 38.4224H38.2779C38.2141 38.6768 38.1443 38.9382 38.0615 39.1989L37.6413 40.4401H38.9332Z" fill="white"/>
<path d="M40.7521 38.1876C41.0449 37.997 41.4201 37.863 41.8849 37.863C42.6296 37.863 43.1448 38.2515 43.1448 38.913C43.1448 39.4412 42.7629 39.8425 42.2602 39.9571V39.9695C42.8647 40.0334 43.3039 40.4277 43.3039 41.045C43.3039 41.9358 42.534 42.2925 41.7509 42.2925C41.3628 42.2925 40.9554 42.2096 40.6309 42.0125L40.7776 41.5799C41.0065 41.7135 41.3884 41.8405 41.7385 41.8405C42.3748 41.8405 42.7249 41.497 42.7249 41.026C42.7249 40.3831 42.1072 40.1988 41.5603 40.1988H41.3055V39.7786H41.5603C42.1266 39.7786 42.5658 39.4285 42.5658 38.9897C42.5658 38.5567 42.2602 38.315 41.7958 38.315C41.4713 38.315 41.1336 38.4486 40.9047 38.595L40.7521 38.1876Z" fill="white"/>
<path d="M46.3953 40.2105H44.7276V41.7573H46.5859V42.2217H44.1738V37.9324H46.4906V38.3972H44.7276V39.7527H46.3953V40.2105Z" fill="white"/>
<path d="M47.4326 37.9835C47.7002 37.9386 48.05 37.9007 48.4957 37.9007C49.043 37.9007 49.4438 38.0281 49.6983 38.257C49.9337 38.4607 50.0739 38.7725 50.0739 39.1543C50.0739 39.5424 49.9593 39.848 49.7428 40.0707C49.4504 40.3824 48.9729 40.5416 48.4318 40.5416C48.2664 40.5416 48.1135 40.5354 47.9864 40.5036V42.2217H47.4326V37.9835ZM47.9864 40.0517C48.1073 40.0834 48.2599 40.0962 48.4446 40.0962C49.1131 40.0962 49.5201 39.7717 49.5201 39.1799C49.5201 38.6133 49.1193 38.3395 48.5081 38.3395C48.2664 38.3395 48.0817 38.3588 47.9864 38.3844V40.0517Z" fill="white"/>
<path d="M51.4988 37.9324V39.7268H53.5735V37.9324H54.1339V42.2217H53.5735V40.2105H51.4988V42.2217H50.9453V37.9324H51.4988Z" fill="white"/>
<path d="M55.7722 37.9322V39.536C55.8996 39.517 56.1413 39.5042 56.2815 39.5042C57.1661 39.5042 57.936 39.8923 57.936 40.8469C57.936 41.2416 57.8086 41.534 57.6049 41.7571C57.2551 42.1261 56.6568 42.2598 56.0774 42.2598C55.6959 42.2598 55.4031 42.2342 55.2188 42.2087V37.9322H55.7722ZM55.7722 41.7954C55.8868 41.8206 56.0267 41.8272 56.2176 41.8272C56.8287 41.8272 57.357 41.515 57.357 40.8659C57.357 40.1978 56.7842 39.943 56.2114 39.943C56.0077 39.943 55.8423 39.9624 55.7722 39.9751V41.7954ZM58.9732 37.9322V42.2214H58.4131V37.9322H58.9732Z" fill="white"/>
<path d="M62.4416 42.2217L61.894 41.2736C61.6717 40.9107 61.5315 40.6756 61.3979 40.427H61.3851C61.2643 40.6756 61.1434 40.9045 60.9207 41.2798L60.4049 42.2217H59.7686L61.0795 40.0517L59.8197 37.9324H60.4622L61.0288 38.9382C61.188 39.2182 61.3088 39.4343 61.4234 39.6632H61.4424C61.5636 39.4088 61.6717 39.2116 61.8305 38.9382L62.4161 37.9324H63.0524L61.748 40.0199L63.0845 42.2217H62.4416Z" fill="white"/>
<path d="M65.8492 37.9324V39.7399C65.8492 40.4208 65.8361 40.9808 65.7981 41.5536L65.8109 41.5598C66.0274 41.1144 66.2946 40.6497 66.6064 40.1408L67.9936 37.9324H68.5475V42.2217H68.0258V40.3952C68.0258 39.7016 68.032 39.1923 68.0765 38.6513L68.0575 38.645C67.8473 39.116 67.5545 39.6125 67.2617 40.09L65.9189 42.2217H65.3271V37.9324H65.8492Z" fill="white"/>
<path d="M74.1154 42.0805C73.9116 42.1823 73.5046 42.2842 72.9829 42.2842C71.7734 42.2842 70.8633 41.5208 70.8633 40.1142C70.8633 38.7714 71.7734 37.8613 73.1037 37.8613C73.6378 37.8613 73.9755 37.9759 74.1219 38.0522L73.988 38.5042C73.778 38.4024 73.479 38.326 73.1227 38.326C72.1173 38.326 71.4489 38.9689 71.4489 40.0952C71.4489 41.1455 72.0534 41.8198 73.0972 41.8198C73.4345 41.8198 73.778 41.7497 74.0011 41.6417L74.1154 42.0805Z" fill="white"/>
<path d="M74.9375 37.9895C75.1792 37.9384 75.5614 37.9004 75.9495 37.9004C76.5029 37.9004 76.8592 37.9961 77.1268 38.2122C77.3495 38.3776 77.4832 38.6324 77.4832 38.9697C77.4832 39.3834 77.2094 39.7459 76.7578 39.9112V39.924C77.1652 40.0259 77.6423 40.3632 77.6423 40.9995C77.6423 41.369 77.4959 41.6486 77.2795 41.8589C76.9805 42.1324 76.4967 42.2598 75.7965 42.2598C75.4147 42.2598 75.1222 42.2342 74.9375 42.2087V37.9895ZM75.4913 39.7459H75.994C76.5796 39.7459 76.9231 39.4403 76.9231 39.0267C76.9231 38.524 76.5413 38.3268 75.9813 38.3268C75.7268 38.3268 75.5804 38.3458 75.4913 38.3652V39.7459ZM75.4913 41.8012C75.5994 41.8206 75.7582 41.8272 75.9557 41.8272C76.5289 41.8272 77.0568 41.6169 77.0568 40.9933C77.0568 40.4077 76.554 40.1661 75.9495 40.1661H75.4913V41.8012Z" fill="white"/>
<path d="M79.2057 40.8727L78.7603 42.2217H78.1875L79.6449 37.9324H80.313L81.7765 42.2217H81.1848L80.7266 40.8727H79.2057ZM80.612 40.4401L80.1918 39.2054C80.0965 38.9251 80.033 38.6706 79.9691 38.4224H79.9563C79.8928 38.6768 79.8227 38.9382 79.7402 39.1989L79.32 40.4401H80.612Z" fill="white"/>
<path d="M82.5332 37.9835C82.8004 37.9386 83.1505 37.9007 83.5959 37.9007C84.1428 37.9007 84.5444 38.0281 84.7985 38.257C85.034 38.4607 85.1742 38.7725 85.1742 39.1543C85.1742 39.5424 85.0595 39.848 84.843 40.0707C84.5502 40.3824 84.0731 40.5416 83.5324 40.5416C83.3667 40.5416 83.2141 40.5354 83.0867 40.5036V42.2217H82.5332V37.9835ZM83.0867 40.0517C83.2075 40.0834 83.3605 40.0962 83.5448 40.0962C84.2129 40.0962 84.6203 39.7717 84.6203 39.1799C84.6203 38.6133 84.2195 38.3395 83.6083 38.3395C83.3667 38.3395 83.1823 38.3588 83.0867 38.3844V40.0517Z" fill="white"/>
<path d="M89.6588 40.0334C89.6588 41.5098 88.7615 42.2925 87.6666 42.2925C86.5341 42.2925 85.7383 41.4141 85.7383 40.1159C85.7383 38.7542 86.5849 37.863 87.7305 37.863C88.9013 37.863 89.6588 38.7604 89.6588 40.0334ZM86.3304 40.1031C86.3304 41.0195 86.8269 41.8405 87.6987 41.8405C88.5771 41.8405 89.0732 41.0326 89.0732 40.0586C89.0732 39.2061 88.6278 38.315 87.7049 38.315C86.7886 38.315 86.3304 39.1612 86.3304 40.1031Z" fill="white"/>
<path d="M90.9812 37.9324V39.2942C90.9812 39.8797 91.2867 40.2105 91.8917 40.2105C92.1907 40.2105 92.5152 40.109 92.7379 39.9688V37.9324H93.2979V42.2217H92.7379V40.4018H92.7251C92.4261 40.5737 92.0695 40.669 91.6942 40.669C91.1279 40.669 90.4277 40.427 90.4277 39.377V37.9324H90.9812Z" fill="white"/>
<path d="M94.9392 37.9324V39.7268H97.0139V37.9324H97.5739V42.2217H97.0139V40.2105H94.9392V42.2217H94.3857V37.9324H94.9392Z" fill="white"/>
<path d="M99.2146 37.9322V39.536C99.342 39.517 99.5837 39.5042 99.7235 39.5042C100.608 39.5042 101.378 39.8923 101.378 40.8469C101.378 41.2416 101.251 41.534 101.047 41.7571C100.698 42.1261 100.099 42.2598 99.5202 42.2598C99.1383 42.2598 98.8455 42.2342 98.6611 42.2087V37.9322H99.2146ZM99.2146 41.7954C99.3292 41.8206 99.469 41.8272 99.66 41.8272C100.271 41.8272 100.799 41.515 100.799 40.8659C100.799 40.1978 100.227 39.943 99.6541 39.943C99.4504 39.943 99.2847 39.9624 99.2146 39.9751V41.7954ZM102.416 37.9322V42.2214H101.856V37.9322H102.416Z" fill="white"/>
<path d="M105.884 42.2217L105.337 41.2736C105.114 40.9107 104.974 40.6756 104.84 40.427H104.827C104.706 40.6756 104.585 40.9045 104.363 41.2798L103.848 42.2217H103.211L104.522 40.0517L103.262 37.9324H103.905L104.471 38.9382C104.63 39.2182 104.751 39.4343 104.866 39.6632H104.884C105.005 39.4088 105.114 39.2116 105.273 38.9382L105.858 37.9324H106.495L105.19 40.0199L106.527 42.2217H105.884Z" fill="white"/>
<path d="M109.585 38.4034H108.28V37.9324H111.456V38.4034H110.145V42.2217H109.585V38.4034Z" fill="white"/>
<path d="M114.281 40.2105H112.614V41.7573H114.473V42.2217H112.061V37.9324H114.377V38.3972H112.614V39.7527H114.281V40.2105Z" fill="white"/>
<path d="M117.665 42.2217L117.118 41.2736C116.895 40.9107 116.755 40.6756 116.622 40.427H116.609C116.488 40.6756 116.367 40.9045 116.144 41.2798L115.629 42.2217H114.992L116.304 40.0517L115.043 37.9324H115.686L116.252 38.9382C116.411 39.2182 116.532 39.4343 116.647 39.6632H116.666C116.787 39.4088 116.895 39.2116 117.054 38.9382L117.64 37.9324H118.276L116.972 40.0199L118.308 42.2217H117.665Z" fill="white"/>
<path d="M119.632 37.9324V39.7268H121.706V37.9324H122.267V42.2217H121.706V40.2105H119.632V42.2217H119.078V37.9324H119.632Z" fill="white"/>
<path d="M127.021 40.0334C127.021 41.5098 126.123 42.2925 125.029 42.2925C123.896 42.2925 123.101 41.4141 123.101 40.1159C123.101 38.7542 123.947 37.863 125.092 37.863C126.263 37.863 127.021 38.7604 127.021 40.0334ZM123.692 40.1031C123.692 41.0195 124.189 41.8405 125.06 41.8405C125.939 41.8405 126.435 41.0326 126.435 40.0586C126.435 39.2061 125.99 38.315 125.067 38.315C124.151 38.315 123.692 39.1612 123.692 40.1031Z" fill="white"/>
<path d="M130.657 37.9326V42.2218H130.097V38.3973H128.678V39.6952C128.678 40.6246 128.64 41.6618 128.035 42.0692C127.877 42.1707 127.628 42.2729 127.38 42.2729L127.31 41.8276C127.482 41.7958 127.66 41.6939 127.762 41.5979C128.105 41.261 128.137 40.4271 128.137 39.7401V37.9326H130.657Z" fill="white"/>
<path d="M135.409 40.0334C135.409 41.5098 134.512 42.2925 133.418 42.2925C132.285 42.2925 131.489 41.4141 131.489 40.1159C131.489 38.7542 132.336 37.863 133.481 37.863C134.652 37.863 135.409 38.7604 135.409 40.0334ZM132.081 40.1031C132.081 41.0195 132.578 41.8405 133.449 41.8405C134.328 41.8405 134.824 41.0326 134.824 40.0586C134.824 39.2061 134.378 38.315 133.456 38.315C132.539 38.315 132.081 39.1612 132.081 40.1031Z" fill="white"/>
<path d="M138.534 37.9324V38.3972H136.809V42.2217H136.256V37.9324H138.534Z" fill="white"/>
<path d="M139.66 37.9324V39.7399C139.66 40.4208 139.648 40.9808 139.61 41.5536L139.622 41.5598C139.839 41.1144 140.106 40.6497 140.418 40.1408L141.805 37.9324H142.359V42.2217H141.837V40.3952C141.837 39.7016 141.843 39.1923 141.888 38.6513L141.868 38.645C141.659 39.116 141.366 39.6125 141.073 40.09L139.73 42.2217H139.139V37.9324H139.66Z" fill="white"/>
<path d="M143.972 37.9324V39.7399C143.972 40.4208 143.959 40.9808 143.922 41.5536L143.934 41.5598C144.15 41.1144 144.418 40.6497 144.729 40.1408L146.117 37.9324H146.671V42.2217H146.148V40.3952C146.148 39.7016 146.155 39.1923 146.2 38.6513L146.18 38.645C145.97 39.116 145.678 39.6125 145.385 40.09L144.042 42.2217H143.45V37.9324H143.972ZM144.672 37.0351C144.698 37.2326 144.761 37.4297 145.061 37.4297C145.353 37.4297 145.423 37.2454 145.449 37.0351H145.875C145.843 37.4549 145.589 37.7163 145.048 37.7163C144.526 37.7163 144.277 37.4549 144.246 37.0351H144.672Z" fill="white"/>
<defs>
<linearGradient id="paint0_linear_1066_156" x1="134.865" y1="10.5298" x2="134.865" y2="35.9773" gradientUnits="userSpaceOnUse">
<stop stop-color="#FBC408"/>
<stop offset="0.661417" stop-color="#F38330"/>
<stop offset="0.88189" stop-color="#EF5333"/>
<stop offset="1" stop-color="#EC2C35"/>
</linearGradient>
</defs>
</svg>
