<?xml version="1.0" standalone="no"?>
<!DOCTYPE svg PUBLIC "-//W3C//DTD SVG 1.1//EN" "http://www.w3.org/Graphics/SVG/1.1/DTD/svg11.dtd" >
<svg xmlns="http://www.w3.org/2000/svg" xmlns:xlink="http://www.w3.org/1999/xlink" version="1.1">
<metadata>
Created by FontForge 20230101 at Thu Apr 30 07:00:18 2020
 By Unknown
Copyright \(c\) 2020 CoType Foundry. All Rights Reserved.
</metadata>
<defs>
<font id="AeonikPro-Bold" horiz-adv-x="600" >
  <font-face 
    font-family="Aeonik Pro"
    font-weight="700"
    font-stretch="normal"
    units-per-em="1000"
    panose-1="2 11 8 3 3 3 0 0 0 0"
    ascent="750"
    descent="-250"
    x-height="514"
    cap-height="700"
    bbox="-407 -206 2173 914"
    underline-thickness="86"
    underline-position="-200"
    stemh="119"
    stemv="150"
    unicode-range="U+000D-1F10C"
  />
<missing-glyph horiz-adv-x="620" 
d="M60 -109v829h500v-829h-500zM217 632c-55 0 -85 -35 -85 -90s30 -90 85 -90c44 0 71 28 74 67h-46c-4 -17 -12 -29 -30 -29c-25 0 -35 21 -35 52c0 30 10 52 35 52c18 0 26 -13 30 -30h46c-3 40 -30 68 -74 68zM394 632c-54 0 -87 -39 -87 -90c0 -52 33 -90 87 -90
c53 0 87 38 87 90c0 51 -34 90 -87 90zM394 490c-26 0 -39 22 -39 52s13 52 39 52s39 -22 39 -52s-13 -52 -39 -52zM288 400h-146v-40h49v-138h47v138h50v40zM417 222v66l64 112h-52l-35 -65l-33 65h-55l64 -112v-66h47zM203 46h28c40 0 67 24 67 61c0 38 -27 62 -67 62h-74
v-178h46v55zM338 -9h125v40h-78v31h60v37h-60v30h75v40h-122v-178zM203 131h24c14 0 24 -9 24 -24c0 -14 -10 -23 -24 -23h-24v47z" />
    <glyph glyph-name="f_f.liga" unicode="ff" horiz-adv-x="675" 
d="M671 580h-87c-29 0 -42 -13 -42 -42v-24h129v-119h-129v-395h-141v395h-174v-395h-141v395h-85v119h85v45c0 89 51 141 155 141h99v-120h-71c-29 0 -42 -13 -42 -42v-24h174v45c0 89 51 141 155 141h115v-120z" />
    <glyph glyph-name="f_f_i.liga" unicode="ffi" horiz-adv-x="910" 
d="M791 569c-46 0 -82 34 -82 79c0 46 36 80 82 80s82 -34 82 -80c0 -45 -36 -79 -82 -79zM546 514h316v-514h-142v395h-174v-395h-141v395h-178v-395h-141v395h-85v119h85v45c0 89 51 141 155 141h99v-120h-71c-29 0 -42 -13 -42 -42v-24h178v45c0 89 51 141 155 141h99
v-120h-71c-29 0 -42 -13 -42 -42v-24z" />
    <glyph glyph-name="f_f_t.liga" unicode="fft" horiz-adv-x="997" 
d="M907 119h73v-119h-117c-98 0 -147 49 -147 147v248h-170v-395h-141v395h-178v-395h-141v395h-85v119h85v45c0 89 51 141 155 141h99v-120h-71c-29 0 -42 -13 -42 -42v-24h178v45c0 89 51 141 155 141h90v-120h-62c-29 0 -42 -13 -42 -42v-24h170v144h141v-144h118v-119
h-118v-225c0 -36 15 -51 50 -51z" />
    <glyph glyph-name="f_t.liga" unicode="ft" horiz-adv-x="677" 
d="M588 119h73v-119h-117c-98 0 -147 49 -147 147v248h-170v-395h-141v395h-85v119h85v45c0 89 51 141 155 141h90v-120h-62c-29 0 -42 -13 -42 -42v-24h170v144h141v-144h117v-119h-117v-225c0 -36 15 -51 50 -51z" />
    <glyph glyph-name="fi" unicode="fi" horiz-adv-x="591" 
d="M472 569c-46 0 -82 34 -82 79c0 46 36 80 82 80s81 -34 81 -80c0 -45 -35 -79 -81 -79zM227 514h315v-514h-141v395h-174v-395h-141v395h-85v119h85v45c0 89 51 141 155 141h99v-120h-71c-29 0 -42 -13 -42 -42v-24z" />
    <glyph glyph-name="t_t.liga" unicode="tt" horiz-adv-x="688" 
d="M599 119h72v-119h-116c-98 0 -148 49 -148 147v248h-180v-225c0 -36 14 -51 50 -51h60v-119h-104c-98 0 -147 49 -147 147v248h-85v119h85v144h141v-144h180v144h142v-144h117v-119h-117v-225c0 -36 14 -51 50 -51z" />
    <glyph glyph-name=".notdef" horiz-adv-x="620" 
d="M60 -109v829h500v-829h-500zM217 632c-55 0 -85 -35 -85 -90s30 -90 85 -90c44 0 71 28 74 67h-46c-4 -17 -12 -29 -30 -29c-25 0 -35 21 -35 52c0 30 10 52 35 52c18 0 26 -13 30 -30h46c-3 40 -30 68 -74 68zM394 632c-54 0 -87 -39 -87 -90c0 -52 33 -90 87 -90
c53 0 87 38 87 90c0 51 -34 90 -87 90zM394 490c-26 0 -39 22 -39 52s13 52 39 52s39 -22 39 -52s-13 -52 -39 -52zM288 400h-146v-40h49v-138h47v138h50v40zM417 222v66l64 112h-52l-35 -65l-33 65h-55l64 -112v-66h47zM203 46h28c40 0 67 24 67 61c0 38 -27 62 -67 62h-74
v-178h46v55zM338 -9h125v40h-78v31h60v37h-60v30h75v40h-122v-178zM203 131h24c14 0 24 -9 24 -24c0 -14 -10 -23 -24 -23h-24v47z" />
    <glyph glyph-name=".null" 
 />
    <glyph glyph-name="CR" unicode="&#xd;" 
 />
    <glyph glyph-name="space" unicode=" " horiz-adv-x="248" 
 />
    <glyph glyph-name="A" unicode="A" horiz-adv-x="698" 
d="M159 0h-155l256 700h180l254 -700h-161l-54 153h-266zM345 540l-92 -266h185z" />
    <glyph glyph-name="Aacute" unicode="&#xc1;" horiz-adv-x="698" 
d="M404 755h-103l73 141h161zM159 0h-155l256 700h180l254 -700h-161l-54 153h-266zM345 540l-92 -266h185z" />
    <glyph glyph-name="Abreve" unicode="&#x102;" horiz-adv-x="698" 
d="M194 896h101c0 -34 21 -56 55 -56c32 0 55 22 55 56h101c-4 -88 -67 -147 -159 -147c-89 0 -149 59 -153 147zM159 0h-155l256 700h180l254 -700h-161l-54 153h-266zM345 540l-92 -266h185z" />
    <glyph glyph-name="Acircumflex" unicode="&#xc2;" horiz-adv-x="698" 
d="M411 754l-61 59l-62 -59h-129l128 142h126l128 -142h-130zM159 0h-155l256 700h180l254 -700h-161l-54 153h-266zM345 540l-92 -266h185z" />
    <glyph glyph-name="Adieresis" unicode="&#xc4;" horiz-adv-x="698" 
d="M171 835c0 42 33 73 75 73c43 0 76 -31 76 -73c0 -41 -33 -73 -76 -73c-42 0 -75 32 -75 73zM379 835c0 42 33 73 75 73c43 0 75 -31 75 -73c0 -41 -32 -73 -75 -73c-42 0 -75 32 -75 73zM159 0h-155l256 700h180l254 -700h-161l-54 153h-266zM345 540l-92 -266h185z" />
    <glyph glyph-name="Agrave" unicode="&#xc0;" horiz-adv-x="698" 
d="M294 752l-125 144h161l70 -144h-106zM159 0h-155l256 700h180l254 -700h-161l-54 153h-266zM345 540l-92 -266h185z" />
    <glyph glyph-name="Amacron" unicode="&#x100;" horiz-adv-x="698" 
d="M506 785h-311v100h311v-100zM159 0h-155l256 700h180l254 -700h-161l-54 153h-266zM345 540l-92 -266h185z" />
    <glyph glyph-name="Aogonek" unicode="&#x104;" horiz-adv-x="698" 
d="M632 -106h64v-94h-90c-67 0 -119 37 -119 97c0 43 23 76 56 103h-10l-54 153h-266l-54 -153h-155l256 700h180l254 -700c-60 -27 -95 -52 -95 -80c0 -17 12 -26 33 -26zM345 540l-92 -266h185z" />
    <glyph glyph-name="Aring" unicode="&#xc5;" horiz-adv-x="698" 
d="M444 690l250 -690h-161l-54 153h-266l-54 -153h-155l252 688c-24 22 -38 52 -38 86c0 67 58 121 130 121c73 0 131 -54 131 -121c0 -33 -13 -62 -35 -84zM348 832c-32 0 -58 -25 -58 -58c0 -34 26 -59 58 -59c33 0 59 25 59 59c0 33 -26 58 -59 58zM345 540l-92 -266h185
z" />
    <glyph glyph-name="Atilde" unicode="&#xc3;" horiz-adv-x="698" 
d="M309 808c-21 0 -33 -18 -33 -39h-84v20c0 61 40 108 96 108c58 0 67 -42 104 -42c20 0 32 17 32 39h84v-21c0 -61 -41 -108 -96 -108c-59 0 -70 43 -103 43zM159 0h-155l256 700h180l254 -700h-161l-54 153h-266zM345 540l-92 -266h185z" />
    <glyph glyph-name="AE" unicode="&#xc6;" horiz-adv-x="996" 
d="M634 291v-162h332v-129h-482v148h-246l-89 -148h-155l410 700h550v-129h-320v-157h260v-123h-260zM484 573l-177 -304h177v304z" />
    <glyph glyph-name="AEacute" unicode="&#x1fc;" horiz-adv-x="996" 
d="M592 896h161l-131 -141h-103zM634 291v-162h332v-129h-482v148h-246l-89 -148h-155l410 700h550v-129h-320v-157h260v-123h-260zM484 573l-177 -304h177v304z" />
    <glyph glyph-name="B" unicode="B" horiz-adv-x="637" 
d="M60 0v700h266c162 0 256 -68 256 -185c0 -88 -52 -138 -132 -155c93 -12 157 -61 157 -161c0 -122 -96 -199 -268 -199h-279zM330 582h-120v-170h120c64 0 102 33 102 85s-37 85 -102 85zM340 296h-130v-177h130c72 0 113 33 113 87c0 57 -42 90 -113 90z" />
    <glyph glyph-name="C" unicode="C" horiz-adv-x="700" 
d="M366 -6c-208 0 -334 141 -334 356s131 356 343 356c166 0 283 -104 301 -256h-152c-18 78 -74 129 -157 129c-114 0 -182 -94 -182 -229c0 -134 67 -229 180 -229c85 0 141 51 159 129h151c-17 -152 -138 -256 -309 -256z" />
    <glyph glyph-name="Cacute" unicode="&#x106;" horiz-adv-x="700" 
d="M423 755h-103l73 141h161zM366 -6c-208 0 -334 141 -334 356s131 356 343 356c166 0 283 -104 301 -256h-152c-18 78 -74 129 -157 129c-114 0 -182 -94 -182 -229c0 -134 67 -229 180 -229c85 0 141 51 159 129h151c-17 -152 -138 -256 -309 -256z" />
    <glyph glyph-name="Ccaron" unicode="&#x10c;" horiz-adv-x="700" 
d="M308 896l61 -59l62 59h129l-128 -142h-126l-128 142h130zM366 -6c-208 0 -334 141 -334 356s131 356 343 356c166 0 283 -104 301 -256h-152c-18 78 -74 129 -157 129c-114 0 -182 -94 -182 -229c0 -134 67 -229 180 -229c85 0 141 51 159 129h151
c-17 -152 -138 -256 -309 -256z" />
    <glyph glyph-name="Ccedilla" unicode="&#xc7;" horiz-adv-x="700" 
d="M365 121c85 0 141 51 159 129h151c-16 -142 -123 -243 -277 -255l-7 -25h11c58 0 96 -28 96 -77c0 -57 -43 -93 -109 -93h-119v69h93c17 0 28 8 28 25c0 15 -11 22 -28 22h-61l20 80c-182 19 -290 155 -290 354c0 215 131 356 343 356c166 0 283 -104 301 -256h-152
c-18 78 -74 129 -157 129c-114 0 -182 -94 -182 -229c0 -134 67 -229 180 -229z" />
    <glyph glyph-name="Ccircumflex" unicode="&#x108;" horiz-adv-x="700" 
d="M430 754l-61 59l-62 -59h-129l128 142h126l128 -142h-130zM366 -6c-208 0 -334 141 -334 356s131 356 343 356c166 0 283 -104 301 -256h-152c-18 78 -74 129 -157 129c-114 0 -182 -94 -182 -229c0 -134 67 -229 180 -229c85 0 141 51 159 129h151
c-17 -152 -138 -256 -309 -256z" />
    <glyph glyph-name="Cdotaccent" unicode="&#x10a;" horiz-adv-x="700" 
d="M369 755c-46 0 -82 34 -82 79c0 46 36 80 82 80s82 -34 82 -80c0 -45 -36 -79 -82 -79zM366 -6c-208 0 -334 141 -334 356s131 356 343 356c166 0 283 -104 301 -256h-152c-18 78 -74 129 -157 129c-114 0 -182 -94 -182 -229c0 -134 67 -229 180 -229
c85 0 141 51 159 129h151c-17 -152 -138 -256 -309 -256z" />
    <glyph glyph-name="D" unicode="D" horiz-adv-x="709" 
d="M315 0h-255v700h255c218 0 363 -143 363 -349c0 -205 -145 -351 -363 -351zM210 575v-450h105c134 0 209 93 209 226c0 134 -75 224 -209 224h-105z" />
    <glyph glyph-name="Eth" unicode="&#xd0;" horiz-adv-x="734" 
d="M85 700h255c218 0 363 -143 363 -349c0 -205 -145 -351 -363 -351h-255v303h-79v104h79v293zM235 125h105c134 0 209 93 209 226c0 134 -75 224 -209 224h-105v-168h112v-104h-112v-178z" />
    <glyph glyph-name="Dcaron" unicode="&#x10e;" horiz-adv-x="709" 
d="M269 896l61 -59l62 59h129l-128 -142h-126l-128 142h130zM315 0h-255v700h255c218 0 363 -143 363 -349c0 -205 -145 -351 -363 -351zM210 575v-450h105c134 0 209 93 209 226c0 134 -75 224 -209 224h-105z" />
    <glyph glyph-name="Dcroat" unicode="&#x110;" horiz-adv-x="734" 
d="M85 700h255c218 0 363 -143 363 -349c0 -205 -145 -351 -363 -351h-255v303h-79v104h79v293zM235 125h105c134 0 209 93 209 226c0 134 -75 224 -209 224h-105v-168h112v-104h-112v-178z" />
    <glyph glyph-name="E" unicode="E" horiz-adv-x="571" 
d="M60 0v700h470v-129h-320v-157h260v-123h-260v-162h331v-129h-481z" />
    <glyph glyph-name="Eacute" unicode="&#xc9;" horiz-adv-x="571" 
d="M356 755h-103l73 141h161zM60 0v700h470v-129h-320v-157h260v-123h-260v-162h331v-129h-481z" />
    <glyph glyph-name="Ebreve" unicode="&#x114;" horiz-adv-x="571" 
d="M146 896h101c0 -34 21 -56 55 -56c32 0 55 22 55 56h101c-4 -88 -67 -147 -159 -147c-89 0 -149 59 -153 147zM60 0v700h470v-129h-320v-157h260v-123h-260v-162h331v-129h-481z" />
    <glyph glyph-name="Ecaron" unicode="&#x11a;" horiz-adv-x="571" 
d="M241 896l61 -59l62 59h129l-128 -142h-126l-128 142h130zM60 0v700h470v-129h-320v-157h260v-123h-260v-162h331v-129h-481z" />
    <glyph glyph-name="Ecircumflex" unicode="&#xca;" horiz-adv-x="571" 
d="M363 754l-61 59l-62 -59h-129l128 142h126l128 -142h-130zM60 0v700h470v-129h-320v-157h260v-123h-260v-162h331v-129h-481z" />
    <glyph glyph-name="Edieresis" unicode="&#xcb;" horiz-adv-x="571" 
d="M123 835c0 42 33 73 75 73c43 0 76 -31 76 -73c0 -41 -33 -73 -76 -73c-42 0 -75 32 -75 73zM331 835c0 42 33 73 75 73c43 0 75 -31 75 -73c0 -41 -32 -73 -75 -73c-42 0 -75 32 -75 73zM60 0v700h470v-129h-320v-157h260v-123h-260v-162h331v-129h-481z" />
    <glyph glyph-name="Edotaccent" unicode="&#x116;" horiz-adv-x="571" 
d="M302 755c-46 0 -82 34 -82 79c0 46 36 80 82 80s82 -34 82 -80c0 -45 -36 -79 -82 -79zM60 0v700h470v-129h-320v-157h260v-123h-260v-162h331v-129h-481z" />
    <glyph glyph-name="Egrave" unicode="&#xc8;" horiz-adv-x="571" 
d="M246 752l-125 144h161l70 -144h-106zM60 0v700h470v-129h-320v-157h260v-123h-260v-162h331v-129h-481z" />
    <glyph glyph-name="Emacron" unicode="&#x112;" horiz-adv-x="571" 
d="M458 785h-311v100h311v-100zM60 0v700h470v-129h-320v-157h260v-123h-260v-162h331v-129h-481z" />
    <glyph glyph-name="Eogonek" unicode="&#x118;" horiz-adv-x="571" 
d="M479 -106h64v-94h-90c-67 0 -119 37 -119 97c0 43 23 76 56 103h-330v700h470v-129h-320v-157h260v-123h-260v-162h331v-129c-60 -27 -95 -52 -95 -80c0 -17 12 -26 33 -26z" />
    <glyph glyph-name="F" unicode="F" horiz-adv-x="544" 
d="M60 0v700h462v-129h-312v-164h256v-123h-256v-284h-150z" />
    <glyph glyph-name="G" unicode="G" horiz-adv-x="749" 
d="M365 -6c-200 0 -333 141 -333 356s132 356 347 356c169 0 288 -104 306 -255h-150c-18 77 -74 128 -160 128c-117 0 -190 -94 -190 -229s70 -229 190 -229c80 0 161 42 175 140v9h-174v119h313v-389h-105l-15 84c-37 -49 -105 -90 -204 -90z" />
    <glyph glyph-name="Gbreve" unicode="&#x11e;" horiz-adv-x="749" 
d="M223 896h101c0 -34 21 -56 55 -56c32 0 55 22 55 56h101c-4 -88 -67 -147 -159 -147c-89 0 -149 59 -153 147zM365 -6c-200 0 -333 141 -333 356s132 356 347 356c169 0 288 -104 306 -255h-150c-18 77 -74 128 -160 128c-117 0 -190 -94 -190 -229s70 -229 190 -229
c80 0 161 42 175 140v9h-174v119h313v-389h-105l-15 84c-37 -49 -105 -90 -204 -90z" />
    <glyph glyph-name="Gcircumflex" unicode="&#x11c;" horiz-adv-x="749" 
d="M440 754l-61 59l-62 -59h-129l128 142h126l128 -142h-130zM365 -6c-200 0 -333 141 -333 356s132 356 347 356c169 0 288 -104 306 -255h-150c-18 77 -74 128 -160 128c-117 0 -190 -94 -190 -229s70 -229 190 -229c80 0 161 42 175 140v9h-174v119h313v-389h-105l-15 84
c-37 -49 -105 -90 -204 -90z" />
    <glyph glyph-name="uni0122" unicode="&#x122;" horiz-adv-x="749" 
d="M365 -6c-200 0 -333 141 -333 356s132 356 347 356c169 0 288 -104 306 -255h-150c-18 77 -74 128 -160 128c-117 0 -190 -94 -190 -229s70 -229 190 -229c80 0 161 42 175 140v9h-174v119h313v-389h-105l-15 84c-37 -49 -105 -90 -204 -90zM244 -195l52 147h138
l-85 -147h-105z" />
    <glyph glyph-name="Gdotaccent" unicode="&#x120;" horiz-adv-x="749" 
d="M379 755c-46 0 -82 34 -82 79c0 46 36 80 82 80s82 -34 82 -80c0 -45 -36 -79 -82 -79zM365 -6c-200 0 -333 141 -333 356s132 356 347 356c169 0 288 -104 306 -255h-150c-18 77 -74 128 -160 128c-117 0 -190 -94 -190 -229s70 -229 190 -229c80 0 161 42 175 140v9
h-174v119h313v-389h-105l-15 84c-37 -49 -105 -90 -204 -90z" />
    <glyph glyph-name="H" unicode="H" horiz-adv-x="697" 
d="M60 0v700h150v-281h278v281h150v-700h-150v289h-278v-289h-150z" />
    <glyph glyph-name="Hbar" unicode="&#x126;" horiz-adv-x="729" 
d="M654 597h74v-103h-74v-494h-150v266h-279v-266h-150v494h-74v103h74v103h150v-103h279v103h150v-103zM225 396h279v98h-279v-98z" />
    <glyph glyph-name="Hcircumflex" unicode="&#x124;" horiz-adv-x="697" 
d="M410 754l-61 59l-62 -59h-129l128 142h126l128 -142h-130zM60 0v700h150v-281h278v281h150v-700h-150v289h-278v-289h-150z" />
    <glyph glyph-name="I" unicode="I" horiz-adv-x="269" 
d="M60 0v700h150v-700h-150z" />
    <glyph glyph-name="IJ" unicode="&#x132;" horiz-adv-x="654" 
d="M55 273h151c0 -93 37 -152 120 -152c84 0 122 51 122 150v429h151v-425c0 -185 -97 -281 -273 -281c-175 0 -273 93 -271 279zM57 361v339h150v-339h-150z" />
    <glyph glyph-name="Iacute" unicode="&#xcd;" horiz-adv-x="269" 
d="M188 755h-103l73 141h161zM60 0v700h150v-700h-150z" />
    <glyph glyph-name="Ibreve" unicode="&#x12c;" horiz-adv-x="269" 
d="M-22 896h101c0 -34 21 -56 55 -56c32 0 55 22 55 56h101c-4 -88 -67 -147 -159 -147c-89 0 -149 59 -153 147zM60 0v700h150v-700h-150z" />
    <glyph glyph-name="Icircumflex" unicode="&#xce;" horiz-adv-x="269" 
d="M195 754l-61 59l-62 -59h-129l128 142h126l128 -142h-130zM60 0v700h150v-700h-150z" />
    <glyph glyph-name="Idieresis" unicode="&#xcf;" horiz-adv-x="269" 
d="M-45 835c0 42 33 73 75 73c43 0 76 -31 76 -73c0 -41 -33 -73 -76 -73c-42 0 -75 32 -75 73zM163 835c0 42 33 73 75 73c43 0 75 -31 75 -73c0 -41 -32 -73 -75 -73c-42 0 -75 32 -75 73zM60 0v700h150v-700h-150z" />
    <glyph glyph-name="Idotaccent" unicode="&#x130;" horiz-adv-x="269" 
d="M134 755c-46 0 -82 34 -82 79c0 46 36 80 82 80s82 -34 82 -80c0 -45 -36 -79 -82 -79zM60 0v700h150v-700h-150z" />
    <glyph glyph-name="Igrave" unicode="&#xcc;" horiz-adv-x="269" 
d="M78 752l-125 144h161l70 -144h-106zM60 0v700h150v-700h-150z" />
    <glyph glyph-name="Imacron" unicode="&#x12a;" horiz-adv-x="269" 
d="M290 785h-311v100h311v-100zM60 0v700h150v-700h-150z" />
    <glyph glyph-name="Iogonek" unicode="&#x12e;" horiz-adv-x="269" 
d="M148 -106h64v-94h-90c-67 0 -119 37 -119 97c0 43 24 76 57 104v699h150v-700c-60 -27 -95 -52 -95 -80c0 -17 12 -26 33 -26z" />
    <glyph glyph-name="Itilde" unicode="&#x128;" horiz-adv-x="269" 
d="M93 808c-21 0 -33 -18 -33 -39h-84v20c0 61 40 108 96 108c58 0 67 -42 104 -42c20 0 32 17 32 39h84v-21c0 -61 -41 -108 -96 -108c-59 0 -70 43 -103 43zM60 0v700h150v-700h-150z" />
    <glyph glyph-name="J" unicode="J" horiz-adv-x="397" 
d="M187 215v485h150v-514c0 -118 -68 -186 -186 -186h-129v129h83c59 0 82 28 82 86z" />
    <glyph glyph-name="J.ss07" horiz-adv-x="619" 
d="M20 273h151c0 -93 37 -152 121 -152s121 51 121 150v429h151v-425c0 -185 -97 -281 -272 -281s-273 93 -272 279z" />
    <glyph glyph-name="Jcircumflex" unicode="&#x134;" horiz-adv-x="397" 
d="M323 754l-61 59l-62 -59h-129l128 142h126l128 -142h-130zM187 215v485h150v-514c0 -118 -68 -186 -186 -186h-129v129h83c59 0 82 28 82 86z" />
    <glyph glyph-name="Jcircumflex.ss07" horiz-adv-x="619" 
d="M551 754l-61 59l-62 -59h-129l128 142h126l128 -142h-130zM20 273h151c0 -93 37 -152 121 -152s121 51 121 150v429h151v-425c0 -185 -97 -281 -272 -281s-273 93 -272 279z" />
    <glyph glyph-name="K" unicode="K" horiz-adv-x="683" 
d="M60 0v700h150v-317l280 317h182l-259 -292l276 -408h-180l-202 298l-97 -110v-188h-150z" />
    <glyph glyph-name="uni0136" unicode="&#x136;" horiz-adv-x="683" 
d="M60 0v700h150v-317l280 317h182l-259 -292l276 -408h-180l-202 298l-97 -110v-188h-150zM215 -195l52 147h138l-85 -147h-105z" />
    <glyph glyph-name="L" unicode="L" horiz-adv-x="508" 
d="M488 0h-428v700h150v-571h278v-129z" />
    <glyph glyph-name="Lacute" unicode="&#x139;" horiz-adv-x="508" 
d="M188 755h-103l73 141h161zM488 0h-428v700h150v-571h278v-129z" />
    <glyph glyph-name="Lcaron" unicode="&#x13d;" horiz-adv-x="508" 
d="M488 0h-428v700h150v-571h278v-129zM250 552l35 148h132l-68 -148h-99z" />
    <glyph glyph-name="uni013B" unicode="&#x13b;" horiz-adv-x="508" 
d="M488 0h-428v700h150v-571h278v-129zM150 -195l52 147h138l-85 -147h-105z" />
    <glyph glyph-name="Ldot" unicode="&#x13f;" horiz-adv-x="509" 
d="M488 0h-428v700h150v-571h278v-129zM389 302c-46 0 -82 34 -82 80s36 79 82 79s82 -33 82 -79s-36 -80 -82 -80z" />
    <glyph glyph-name="Lslash" unicode="&#x141;" horiz-adv-x="526" 
d="M227 344v-215h278v-129h-428v264l-71 -38v116l71 38v320h150v-240l140 74v-115z" />
    <glyph glyph-name="M" unicode="M" horiz-adv-x="892" 
d="M60 0v700h197l194 -514l188 514h193v-700h-143v469l-182 -469h-122l-182 469v-469h-143z" />
    <glyph glyph-name="N" unicode="N" horiz-adv-x="700" 
d="M207 0h-147v700h136l297 -441v441h148v-700h-137l-297 441v-441z" />
    <glyph glyph-name="Nacute" unicode="&#x143;" horiz-adv-x="700" 
d="M393 755h-103l73 141h161zM207 0h-147v700h136l297 -441v441h148v-700h-137l-297 441v-441z" />
    <glyph glyph-name="Ncaron" unicode="&#x147;" horiz-adv-x="700" 
d="M278 896l61 -59l62 59h129l-128 -142h-126l-128 142h130zM207 0h-147v700h136l297 -441v441h148v-700h-137l-297 441v-441z" />
    <glyph glyph-name="uni0145" unicode="&#x145;" horiz-adv-x="700" 
d="M207 0h-147v700h136l297 -441v441h148v-700h-137l-297 441v-441zM222 -195l52 147h138l-85 -147h-105z" />
    <glyph glyph-name="Eng" unicode="&#x14a;" horiz-adv-x="700" 
d="M493 259v441h148v-735c0 -104 -53 -165 -156 -165h-88v122h49c34 0 51 17 51 57v31l-290 431v-441h-147v700h136z" />
    <glyph glyph-name="Ntilde" unicode="&#xd1;" horiz-adv-x="700" 
d="M298 808c-21 0 -33 -18 -33 -39h-84v20c0 61 40 108 96 108c58 0 67 -42 104 -42c20 0 32 17 32 39h84v-21c0 -61 -41 -108 -96 -108c-59 0 -70 43 -103 43zM207 0h-147v700h136l297 -441v441h148v-700h-137l-297 441v-441z" />
    <glyph glyph-name="O" unicode="O" horiz-adv-x="757" 
d="M726 350c0 -204 -141 -356 -347 -356s-347 152 -347 356s141 356 347 356s347 -152 347 -356zM185 350c0 -132 76 -229 194 -229c117 0 193 97 193 229s-76 229 -193 229c-118 0 -194 -97 -194 -229z" />
    <glyph glyph-name="Oacute" unicode="&#xd3;" horiz-adv-x="757" 
d="M433 755h-103l73 141h161zM726 350c0 -204 -141 -356 -347 -356s-347 152 -347 356s141 356 347 356s347 -152 347 -356zM185 350c0 -132 76 -229 194 -229c117 0 193 97 193 229s-76 229 -193 229c-118 0 -194 -97 -194 -229z" />
    <glyph glyph-name="Obreve" unicode="&#x14e;" horiz-adv-x="757" 
d="M223 896h101c0 -34 21 -56 55 -56c32 0 55 22 55 56h101c-4 -88 -67 -147 -159 -147c-89 0 -149 59 -153 147zM726 350c0 -204 -141 -356 -347 -356s-347 152 -347 356s141 356 347 356s347 -152 347 -356zM185 350c0 -132 76 -229 194 -229c117 0 193 97 193 229
s-76 229 -193 229c-118 0 -194 -97 -194 -229z" />
    <glyph glyph-name="Ocircumflex" unicode="&#xd4;" horiz-adv-x="757" 
d="M440 754l-61 59l-62 -59h-129l128 142h126l128 -142h-130zM726 350c0 -204 -141 -356 -347 -356s-347 152 -347 356s141 356 347 356s347 -152 347 -356zM185 350c0 -132 76 -229 194 -229c117 0 193 97 193 229s-76 229 -193 229c-118 0 -194 -97 -194 -229z" />
    <glyph glyph-name="Odieresis" unicode="&#xd6;" horiz-adv-x="757" 
d="M200 835c0 42 33 73 75 73c43 0 76 -31 76 -73c0 -41 -33 -73 -76 -73c-42 0 -75 32 -75 73zM408 835c0 42 33 73 75 73c43 0 75 -31 75 -73c0 -41 -32 -73 -75 -73c-42 0 -75 32 -75 73zM726 350c0 -204 -141 -356 -347 -356s-347 152 -347 356s141 356 347 356
s347 -152 347 -356zM185 350c0 -132 76 -229 194 -229c117 0 193 97 193 229s-76 229 -193 229c-118 0 -194 -97 -194 -229z" />
    <glyph glyph-name="Ograve" unicode="&#xd2;" horiz-adv-x="757" 
d="M323 752l-125 144h161l70 -144h-106zM726 350c0 -204 -141 -356 -347 -356s-347 152 -347 356s141 356 347 356s347 -152 347 -356zM185 350c0 -132 76 -229 194 -229c117 0 193 97 193 229s-76 229 -193 229c-118 0 -194 -97 -194 -229z" />
    <glyph glyph-name="Ohungarumlaut" unicode="&#x150;" horiz-adv-x="757" 
d="M315 752h-96l73 144h154zM515 752h-97l74 144h153zM726 350c0 -204 -141 -356 -347 -356s-347 152 -347 356s141 356 347 356s347 -152 347 -356zM185 350c0 -132 76 -229 194 -229c117 0 193 97 193 229s-76 229 -193 229c-118 0 -194 -97 -194 -229z" />
    <glyph glyph-name="Omacron" unicode="&#x14c;" horiz-adv-x="757" 
d="M535 785h-311v100h311v-100zM726 350c0 -204 -141 -356 -347 -356s-347 152 -347 356s141 356 347 356s347 -152 347 -356zM185 350c0 -132 76 -229 194 -229c117 0 193 97 193 229s-76 229 -193 229c-118 0 -194 -97 -194 -229z" />
    <glyph glyph-name="Oslash" unicode="&#xd8;" horiz-adv-x="757" 
d="M654 706l72 -72l-66 -68c42 -59 66 -133 66 -216c0 -204 -141 -356 -347 -356c-81 0 -153 24 -210 66l-64 -66l-73 73l65 67c-41 59 -65 133 -65 216c0 204 141 356 347 356c81 0 153 -24 210 -67zM185 350c0 -39 7 -75 19 -107l289 298c-30 25 -69 38 -114 38
c-118 0 -194 -97 -194 -229zM572 350c0 39 -6 75 -19 106l-288 -297c31 -24 69 -38 114 -38c117 0 193 97 193 229z" />
    <glyph glyph-name="Otilde" unicode="&#xd5;" horiz-adv-x="757" 
d="M338 808c-21 0 -33 -18 -33 -39h-84v20c0 61 40 108 96 108c58 0 67 -42 104 -42c20 0 32 17 32 39h84v-21c0 -61 -41 -108 -96 -108c-59 0 -70 43 -103 43zM726 350c0 -204 -141 -356 -347 -356s-347 152 -347 356s141 356 347 356s347 -152 347 -356zM185 350
c0 -132 76 -229 194 -229c117 0 193 97 193 229s-76 229 -193 229c-118 0 -194 -97 -194 -229z" />
    <glyph glyph-name="OE" unicode="&#x152;" horiz-adv-x="1115" 
d="M753 291v-162h332v-129h-482v75c-48 -51 -117 -81 -211 -81c-214 0 -360 152 -360 356s146 356 360 356c94 0 163 -30 211 -81v75h470v-129h-320v-157h260v-123h-260zM394 121c127 0 209 97 209 229s-82 229 -209 229c-128 0 -209 -97 -209 -229s81 -229 209 -229z" />
    <glyph glyph-name="P" unicode="P" horiz-adv-x="622" 
d="M60 0v700h285c152 0 253 -91 253 -233c0 -141 -101 -232 -253 -232h-135v-235h-150zM331 575h-121v-215h121c70 0 115 41 115 107c0 67 -45 108 -115 108z" />
    <glyph glyph-name="Thorn" unicode="&#xde;" horiz-adv-x="623" 
d="M60 0v700h150v-108h120c167 0 269 -89 269 -233c0 -145 -105 -232 -268 -232h-121v-127h-150zM327 467h-117v-215h116c74 0 121 39 121 107c0 69 -47 108 -120 108z" />
    <glyph glyph-name="Q" unicode="Q" horiz-adv-x="764" 
d="M683 129h69v-129h-72c-60 0 -85 17 -109 47c-53 -34 -119 -53 -192 -53c-206 0 -347 152 -347 356s141 356 347 356s347 -152 347 -356c0 -83 -23 -158 -65 -217c6 -2 13 -4 22 -4zM185 350c0 -132 76 -229 194 -229c41 0 77 12 107 33l-10 12c-15 20 -28 31 -50 31h-65
v127h76c59 0 79 -21 103 -51l16 -20c11 29 16 62 16 97c0 132 -76 229 -193 229c-118 0 -194 -97 -194 -229z" />
    <glyph glyph-name="Q.ss08" horiz-adv-x="757" 
d="M726 350c0 -126 -54 -232 -143 -295l87 -133h-151l-53 82c-28 -7 -57 -10 -87 -10c-206 0 -347 152 -347 356s141 356 347 356s347 -152 347 -356zM379 121h10l-71 109h151l38 -58c41 41 65 104 65 178c0 132 -76 229 -193 229c-118 0 -194 -97 -194 -229
s76 -229 194 -229z" />
    <glyph glyph-name="R" unicode="R" horiz-adv-x="638" 
d="M60 0v700h285c154 0 257 -91 257 -233c0 -90 -47 -162 -120 -197l138 -270h-166l-118 235h-126v-235h-150zM333 575h-123v-215h123c71 0 116 42 116 107c0 66 -45 108 -116 108z" />
    <glyph glyph-name="Racute" unicode="&#x154;" horiz-adv-x="638" 
d="M348 755h-103l73 141h161zM60 0v700h285c154 0 257 -91 257 -233c0 -90 -47 -162 -120 -197l138 -270h-166l-118 235h-126v-235h-150zM333 575h-123v-215h123c71 0 116 42 116 107c0 66 -45 108 -116 108z" />
    <glyph glyph-name="Rcaron" unicode="&#x158;" horiz-adv-x="638" 
d="M233 896l61 -59l62 59h129l-128 -142h-126l-128 142h130zM60 0v700h285c154 0 257 -91 257 -233c0 -90 -47 -162 -120 -197l138 -270h-166l-118 235h-126v-235h-150zM333 575h-123v-215h123c71 0 116 42 116 107c0 66 -45 108 -116 108z" />
    <glyph glyph-name="uni0156" unicode="&#x156;" horiz-adv-x="638" 
d="M60 0v700h285c154 0 257 -91 257 -233c0 -90 -47 -162 -120 -197l138 -270h-166l-118 235h-126v-235h-150zM333 575h-123v-215h123c71 0 116 42 116 107c0 66 -45 108 -116 108zM194 -195l52 147h138l-85 -147h-105z" />
    <glyph glyph-name="S" unicode="S" horiz-adv-x="625" 
d="M32 230l147 -2c5 -68 59 -115 145 -115c69 0 120 30 120 85c0 59 -57 71 -174 94c-118 22 -222 60 -222 202c0 124 103 212 261 212c165 0 270 -86 272 -220h-147c-7 59 -52 100 -125 100c-64 0 -110 -27 -110 -81c0 -57 55 -69 171 -91c120 -22 226 -58 225 -199
c-1 -131 -109 -221 -273 -221c-178 0 -289 94 -290 236z" />
    <glyph glyph-name="Sacute" unicode="&#x15a;" horiz-adv-x="625" 
d="M365 755h-103l73 141h161zM32 230l147 -2c5 -68 59 -115 145 -115c69 0 120 30 120 85c0 59 -57 71 -174 94c-118 22 -222 60 -222 202c0 124 103 212 261 212c165 0 270 -86 272 -220h-147c-7 59 -52 100 -125 100c-64 0 -110 -27 -110 -81c0 -57 55 -69 171 -91
c120 -22 226 -58 225 -199c-1 -131 -109 -221 -273 -221c-178 0 -289 94 -290 236z" />
    <glyph glyph-name="Scaron" unicode="&#x160;" horiz-adv-x="625" 
d="M250 896l61 -59l62 59h129l-128 -142h-126l-128 142h130zM32 230l147 -2c5 -68 59 -115 145 -115c69 0 120 30 120 85c0 59 -57 71 -174 94c-118 22 -222 60 -222 202c0 124 103 212 261 212c165 0 270 -86 272 -220h-147c-7 59 -52 100 -125 100
c-64 0 -110 -27 -110 -81c0 -57 55 -69 171 -91c120 -22 226 -58 225 -199c-1 -131 -109 -221 -273 -221c-178 0 -289 94 -290 236z" />
    <glyph glyph-name="Scedilla" unicode="&#x15e;" horiz-adv-x="625" 
d="M370 414c120 -22 226 -58 225 -199c-1 -123 -96 -209 -242 -220l-7 -25h11c58 0 96 -28 96 -77c0 -57 -43 -93 -109 -93h-119v69h93c17 0 28 8 28 25c0 15 -11 22 -28 22h-61l20 80c-152 15 -244 104 -245 234l147 -2c5 -68 59 -115 145 -115c69 0 120 30 120 85
c0 59 -57 71 -174 94c-118 22 -222 60 -222 202c0 124 103 212 261 212c165 0 270 -86 272 -220h-147c-7 59 -52 100 -125 100c-64 0 -110 -27 -110 -81c0 -57 55 -69 171 -91z" />
    <glyph glyph-name="Scircumflex" unicode="&#x15c;" horiz-adv-x="625" 
d="M372 754l-61 59l-62 -59h-129l128 142h126l128 -142h-130zM32 230l147 -2c5 -68 59 -115 145 -115c69 0 120 30 120 85c0 59 -57 71 -174 94c-118 22 -222 60 -222 202c0 124 103 212 261 212c165 0 270 -86 272 -220h-147c-7 59 -52 100 -125 100
c-64 0 -110 -27 -110 -81c0 -57 55 -69 171 -91c120 -22 226 -58 225 -199c-1 -131 -109 -221 -273 -221c-178 0 -289 94 -290 236z" />
    <glyph glyph-name="uni0218" unicode="&#x218;" horiz-adv-x="625" 
d="M32 230l147 -2c5 -68 59 -115 145 -115c69 0 120 30 120 85c0 59 -57 71 -174 94c-118 22 -222 60 -222 202c0 124 103 212 261 212c165 0 270 -86 272 -220h-147c-7 59 -52 100 -125 100c-64 0 -110 -27 -110 -81c0 -57 55 -69 171 -91c120 -22 226 -58 225 -199
c-1 -131 -109 -221 -273 -221c-178 0 -289 94 -290 236zM193 -195l52 147h138l-85 -147h-105z" />
    <glyph glyph-name="T" unicode="T" horiz-adv-x="595" 
d="M20 571v129h555v-129h-203v-571h-150v571h-202z" />
    <glyph glyph-name="Tbar" unicode="&#x166;" horiz-adv-x="598" 
d="M575 700v-129h-203v-181h112v-104h-112v-286h-150v286h-107v104h107v181h-202v129h555z" />
    <glyph glyph-name="Tcaron" unicode="&#x164;" horiz-adv-x="595" 
d="M240 896l61 -59l62 59h129l-128 -142h-126l-128 142h130zM20 571v129h555v-129h-203v-571h-150v571h-202z" />
    <glyph glyph-name="uni0162" unicode="&#x162;" horiz-adv-x="595" 
d="M372 571v-571h-39l-8 -30h11c58 0 96 -28 96 -77c0 -57 -43 -93 -109 -93h-119v69h93c17 0 28 8 28 25c0 15 -11 22 -28 22h-61l21 84h-35v571h-202v129h555v-129h-203z" />
    <glyph glyph-name="uni021A" unicode="&#x21a;" horiz-adv-x="595" 
d="M20 571v129h555v-129h-203v-571h-150v571h-202zM172 -195l52 147h138l-85 -147h-105z" />
    <glyph glyph-name="U" unicode="U" horiz-adv-x="685" 
d="M55 302v398h150v-406c0 -111 41 -171 137 -171c97 0 138 60 138 171v406h150v-398c0 -199 -99 -308 -288 -308c-188 0 -287 109 -287 308z" />
    <glyph glyph-name="Uacute" unicode="&#xda;" horiz-adv-x="685" 
d="M397 755h-103l73 141h161zM55 302v398h150v-406c0 -111 41 -171 137 -171c97 0 138 60 138 171v406h150v-398c0 -199 -99 -308 -288 -308c-188 0 -287 109 -287 308z" />
    <glyph glyph-name="Ubreve" unicode="&#x16c;" horiz-adv-x="685" 
d="M187 896h101c0 -34 21 -56 55 -56c32 0 55 22 55 56h101c-4 -88 -67 -147 -159 -147c-89 0 -149 59 -153 147zM55 302v398h150v-406c0 -111 41 -171 137 -171c97 0 138 60 138 171v406h150v-398c0 -199 -99 -308 -288 -308c-188 0 -287 109 -287 308z" />
    <glyph glyph-name="Ucircumflex" unicode="&#xdb;" horiz-adv-x="685" 
d="M404 754l-61 59l-62 -59h-129l128 142h126l128 -142h-130zM55 302v398h150v-406c0 -111 41 -171 137 -171c97 0 138 60 138 171v406h150v-398c0 -199 -99 -308 -288 -308c-188 0 -287 109 -287 308z" />
    <glyph glyph-name="Udieresis" unicode="&#xdc;" horiz-adv-x="685" 
d="M164 835c0 42 33 73 75 73c43 0 76 -31 76 -73c0 -41 -33 -73 -76 -73c-42 0 -75 32 -75 73zM372 835c0 42 33 73 75 73c43 0 75 -31 75 -73c0 -41 -32 -73 -75 -73c-42 0 -75 32 -75 73zM55 302v398h150v-406c0 -111 41 -171 137 -171c97 0 138 60 138 171v406h150v-398
c0 -199 -99 -308 -288 -308c-188 0 -287 109 -287 308z" />
    <glyph glyph-name="Ugrave" unicode="&#xd9;" horiz-adv-x="685" 
d="M287 752l-125 144h161l70 -144h-106zM55 302v398h150v-406c0 -111 41 -171 137 -171c97 0 138 60 138 171v406h150v-398c0 -199 -99 -308 -288 -308c-188 0 -287 109 -287 308z" />
    <glyph glyph-name="Uhungarumlaut" unicode="&#x170;" horiz-adv-x="685" 
d="M279 752h-96l73 144h154zM479 752h-97l74 144h153zM55 302v398h150v-406c0 -111 41 -171 137 -171c97 0 138 60 138 171v406h150v-398c0 -199 -99 -308 -288 -308c-188 0 -287 109 -287 308z" />
    <glyph glyph-name="Umacron" unicode="&#x16a;" horiz-adv-x="685" 
d="M499 785h-311v100h311v-100zM55 302v398h150v-406c0 -111 41 -171 137 -171c97 0 138 60 138 171v406h150v-398c0 -199 -99 -308 -288 -308c-188 0 -287 109 -287 308z" />
    <glyph glyph-name="Uogonek" unicode="&#x172;" horiz-adv-x="685" 
d="M501 -200h-90c-68 0 -119 37 -119 97c0 39 18 71 45 97c-12 1 -24 1 -35 3c-163 14 -247 120 -247 305v398h150v-406c0 -111 41 -171 137 -171c97 0 138 60 138 171v406h150v-398c0 -122 -39 -205 -111 -258c-69 -53 -115 -81 -115 -124c0 -17 11 -26 33 -26h64v-94z" />
    <glyph glyph-name="Uring" unicode="&#x16e;" horiz-adv-x="685" 
d="M212 793c0 67 58 121 131 121c72 0 130 -54 130 -121c0 -68 -58 -121 -130 -121c-73 0 -131 53 -131 121zM401 793c0 33 -26 58 -58 58c-33 0 -59 -25 -59 -58c0 -34 26 -59 59 -59c32 0 58 25 58 59zM55 302v398h150v-406c0 -111 41 -171 137 -171c97 0 138 60 138 171
v406h150v-398c0 -199 -99 -308 -288 -308c-188 0 -287 109 -287 308z" />
    <glyph glyph-name="Utilde" unicode="&#x168;" horiz-adv-x="685" 
d="M302 808c-21 0 -33 -18 -33 -39h-84v20c0 61 40 108 96 108c58 0 67 -42 104 -42c20 0 32 17 32 39h84v-21c0 -61 -41 -108 -96 -108c-59 0 -70 43 -103 43zM55 302v398h150v-406c0 -111 41 -171 137 -171c97 0 138 60 138 171v406h150v-398c0 -199 -99 -308 -288 -308
c-188 0 -287 109 -287 308z" />
    <glyph glyph-name="V" unicode="V" horiz-adv-x="654" 
d="M238 0l-238 700h159l168 -518l172 518h155l-237 -700h-179z" />
    <glyph glyph-name="W" unicode="W" horiz-adv-x="982" 
d="M199 0l-195 700l156 1l129 -512l137 511h135l133 -511l132 511h152l-195 -700h-172l-122 465l-118 -465h-172z" />
    <glyph glyph-name="Wacute" unicode="&#x1e82;" horiz-adv-x="982" 
d="M543 755h-103l73 141h161zM199 0l-195 700l156 1l129 -512l137 511h135l133 -511l132 511h152l-195 -700h-172l-122 465l-118 -465h-172z" />
    <glyph glyph-name="Wcircumflex" unicode="&#x174;" horiz-adv-x="982" 
d="M550 754l-61 59l-62 -59h-129l128 142h126l128 -142h-130zM199 0l-195 700l156 1l129 -512l137 511h135l133 -511l132 511h152l-195 -700h-172l-122 465l-118 -465h-172z" />
    <glyph glyph-name="Wdieresis" unicode="&#x1e84;" horiz-adv-x="982" 
d="M310 835c0 42 33 73 75 73c43 0 76 -31 76 -73c0 -41 -33 -73 -76 -73c-42 0 -75 32 -75 73zM518 835c0 42 33 73 75 73c43 0 75 -31 75 -73c0 -41 -32 -73 -75 -73c-42 0 -75 32 -75 73zM199 0l-195 700l156 1l129 -512l137 511h135l133 -511l132 511h152l-195 -700
h-172l-122 465l-118 -465h-172z" />
    <glyph glyph-name="Wgrave" unicode="&#x1e80;" horiz-adv-x="982" 
d="M433 752l-125 144h161l70 -144h-106zM199 0l-195 700l156 1l129 -512l137 511h135l133 -511l132 511h152l-195 -700h-172l-122 465l-118 -465h-172z" />
    <glyph glyph-name="X" unicode="X" horiz-adv-x="665" 
d="M10 0l228 358l-217 342h178l136 -222l141 222h168l-217 -340l228 -360h-179l-147 240l-152 -240h-167z" />
    <glyph glyph-name="Y" unicode="Y" horiz-adv-x="664" 
d="M257 260l-257 440h175l157 -287l165 287h167l-257 -440v-260h-150v260z" />
    <glyph glyph-name="Yacute" unicode="&#xdd;" horiz-adv-x="664" 
d="M390 755h-103l73 141h161zM257 260l-257 440h175l157 -287l165 287h167l-257 -440v-260h-150v260z" />
    <glyph glyph-name="Ycircumflex" unicode="&#x176;" horiz-adv-x="664" 
d="M397 754l-61 59l-62 -59h-129l128 142h126l128 -142h-130zM257 260l-257 440h175l157 -287l165 287h167l-257 -440v-260h-150v260z" />
    <glyph glyph-name="Ydieresis" unicode="&#x178;" horiz-adv-x="664" 
d="M157 835c0 42 33 73 75 73c43 0 76 -31 76 -73c0 -41 -33 -73 -76 -73c-42 0 -75 32 -75 73zM365 835c0 42 33 73 75 73c43 0 75 -31 75 -73c0 -41 -32 -73 -75 -73c-42 0 -75 32 -75 73zM257 260l-257 440h175l157 -287l165 287h167l-257 -440v-260h-150v260z" />
    <glyph glyph-name="Ygrave" unicode="&#x1ef2;" horiz-adv-x="664" 
d="M280 752l-125 144h161l70 -144h-106zM257 260l-257 440h175l157 -287l165 287h167l-257 -440v-260h-150v260z" />
    <glyph glyph-name="Z" unicode="Z" horiz-adv-x="625" 
d="M34 572v128h557v-99l-359 -473h368v-128h-575v99l359 473h-350z" />
    <glyph glyph-name="Zacute" unicode="&#x179;" horiz-adv-x="625" 
d="M367 755h-103l73 141h161zM34 572v128h557v-99l-359 -473h368v-128h-575v99l359 473h-350z" />
    <glyph glyph-name="Zcaron" unicode="&#x17d;" horiz-adv-x="625" 
d="M252 896l61 -59l62 59h129l-128 -142h-126l-128 142h130zM34 572v128h557v-99l-359 -473h368v-128h-575v99l359 473h-350z" />
    <glyph glyph-name="Zdotaccent" unicode="&#x17b;" horiz-adv-x="625" 
d="M313 755c-46 0 -82 34 -82 79c0 46 36 80 82 80s82 -34 82 -80c0 -45 -36 -79 -82 -79zM34 572v128h557v-99l-359 -473h368v-128h-575v99l359 473h-350z" />
    <glyph glyph-name="a" unicode="a" horiz-adv-x="561" 
d="M539 119h16v-119h-72c-73 0 -96 35 -95 84c-36 -57 -88 -90 -168 -90c-111 0 -191 53 -191 151c0 109 82 171 236 171h102v25c0 46 -33 76 -92 76c-55 0 -92 -25 -98 -63h-136c10 100 102 166 238 166c144 0 227 -64 227 -187v-182c0 -27 11 -32 33 -32zM367 212v10h-103
c-59 0 -93 -24 -93 -67c0 -36 29 -59 76 -59c74 0 119 46 120 116z" />
    <glyph glyph-name="a.ss01" horiz-adv-x="612" 
d="M425 446l14 68h124v-514h-125l-12 72c-34 -43 -85 -77 -158 -77c-138 -1 -239 100 -239 263c0 159 101 263 238 263c73 0 125 -31 158 -75zM299 109c77 0 125 60 125 147c0 88 -48 149 -125 149s-126 -61 -126 -149c0 -87 49 -147 126 -147z" />
    <glyph glyph-name="a.ss02" horiz-adv-x="546" 
d="M279 520c144 0 227 -64 227 -187v-333h-124l-11 65c-37 -44 -84 -71 -156 -71c-112 0 -186 54 -186 152c0 109 82 170 237 170h101v25c0 46 -33 76 -92 76c-55 0 -92 -25 -98 -63h-136c10 100 102 166 238 166zM247 96c74 0 119 46 120 116v10h-103
c-59 0 -93 -24 -93 -67c0 -36 29 -59 76 -59z" />
    <glyph glyph-name="aacute" unicode="&#xe1;" horiz-adv-x="561" 
d="M302 710h161l-131 -141h-103zM539 119h16v-119h-72c-73 0 -96 35 -95 84c-36 -57 -88 -90 -168 -90c-111 0 -191 53 -191 151c0 109 82 171 236 171h102v25c0 46 -33 76 -92 76c-55 0 -92 -25 -98 -63h-136c10 100 102 166 238 166c144 0 227 -64 227 -187v-182
c0 -27 11 -32 33 -32zM367 212v10h-103c-59 0 -93 -24 -93 -67c0 -36 29 -59 76 -59c74 0 119 46 120 116z" />
    <glyph glyph-name="aacute.ss01" horiz-adv-x="612" 
d="M327 710h161l-131 -141h-103zM425 446l14 68h124v-514h-125l-12 72c-34 -43 -85 -77 -158 -77c-138 -1 -239 100 -239 263c0 159 101 263 238 263c73 0 125 -31 158 -75zM299 109c77 0 125 60 125 147c0 88 -48 149 -125 149s-126 -61 -126 -149c0 -87 49 -147 126 -147z
" />
    <glyph glyph-name="aacute.ss02" horiz-adv-x="546" 
d="M302 710h161l-131 -141h-103zM279 520c144 0 227 -64 227 -187v-333h-124l-11 65c-37 -44 -84 -71 -156 -71c-112 0 -186 54 -186 152c0 109 82 170 237 170h101v25c0 46 -33 76 -92 76c-55 0 -92 -25 -98 -63h-136c10 100 102 166 238 166zM247 96c74 0 119 46 120 116
v10h-103c-59 0 -93 -24 -93 -67c0 -36 29 -59 76 -59z" />
    <glyph glyph-name="abreve" unicode="&#x103;" horiz-adv-x="561" 
d="M275 563c-89 0 -149 59 -153 147h101c0 -34 21 -56 55 -56c32 0 55 22 55 56h101c-4 -88 -67 -147 -159 -147zM539 119h16v-119h-72c-73 0 -96 35 -95 84c-36 -57 -88 -90 -168 -90c-111 0 -191 53 -191 151c0 109 82 171 236 171h102v25c0 46 -33 76 -92 76
c-55 0 -92 -25 -98 -63h-136c10 100 102 166 238 166c144 0 227 -64 227 -187v-182c0 -27 11 -32 33 -32zM367 212v10h-103c-59 0 -93 -24 -93 -67c0 -36 29 -59 76 -59c74 0 119 46 120 116z" />
    <glyph glyph-name="abreve.ss01" horiz-adv-x="612" 
d="M300 563c-89 0 -149 59 -153 147h101c0 -34 21 -56 55 -56c32 0 55 22 55 56h101c-4 -88 -67 -147 -159 -147zM425 446l14 68h124v-514h-125l-12 72c-34 -43 -85 -77 -158 -77c-138 -1 -239 100 -239 263c0 159 101 263 238 263c73 0 125 -31 158 -75zM299 109
c77 0 125 60 125 147c0 88 -48 149 -125 149s-126 -61 -126 -149c0 -87 49 -147 126 -147z" />
    <glyph glyph-name="abreve.ss02" horiz-adv-x="546" 
d="M275 563c-89 0 -149 59 -153 147h101c0 -34 21 -56 55 -56c32 0 55 22 55 56h101c-4 -88 -67 -147 -159 -147zM279 520c144 0 227 -64 227 -187v-333h-124l-11 65c-37 -44 -84 -71 -156 -71c-112 0 -186 54 -186 152c0 109 82 170 237 170h101v25c0 46 -33 76 -92 76
c-55 0 -92 -25 -98 -63h-136c10 100 102 166 238 166zM247 96c74 0 119 46 120 116v10h-103c-59 0 -93 -24 -93 -67c0 -36 29 -59 76 -59z" />
    <glyph glyph-name="acircumflex" unicode="&#xe2;" horiz-adv-x="561" 
d="M339 568l-61 59l-62 -59h-129l128 142h126l128 -142h-130zM539 119h16v-119h-72c-73 0 -96 35 -95 84c-36 -57 -88 -90 -168 -90c-111 0 -191 53 -191 151c0 109 82 171 236 171h102v25c0 46 -33 76 -92 76c-55 0 -92 -25 -98 -63h-136c10 100 102 166 238 166
c144 0 227 -64 227 -187v-182c0 -27 11 -32 33 -32zM367 212v10h-103c-59 0 -93 -24 -93 -67c0 -36 29 -59 76 -59c74 0 119 46 120 116z" />
    <glyph glyph-name="acircumflex.ss01" horiz-adv-x="612" 
d="M364 568l-61 59l-62 -59h-129l128 142h126l128 -142h-130zM425 446l14 68h124v-514h-125l-12 72c-34 -43 -85 -77 -158 -77c-138 -1 -239 100 -239 263c0 159 101 263 238 263c73 0 125 -31 158 -75zM299 109c77 0 125 60 125 147c0 88 -48 149 -125 149
s-126 -61 -126 -149c0 -87 49 -147 126 -147z" />
    <glyph glyph-name="acircumflex.ss02" horiz-adv-x="546" 
d="M339 568l-61 59l-62 -59h-129l128 142h126l128 -142h-130zM279 520c144 0 227 -64 227 -187v-333h-124l-11 65c-37 -44 -84 -71 -156 -71c-112 0 -186 54 -186 152c0 109 82 170 237 170h101v25c0 46 -33 76 -92 76c-55 0 -92 -25 -98 -63h-136c10 100 102 166 238 166z
M247 96c74 0 119 46 120 116v10h-103c-59 0 -93 -24 -93 -67c0 -36 29 -59 76 -59z" />
    <glyph glyph-name="adieresis" unicode="&#xe4;" horiz-adv-x="561" 
d="M174 576c-42 0 -75 32 -75 73c0 42 33 73 75 73c43 0 76 -31 76 -73c0 -41 -33 -73 -76 -73zM382 576c-42 0 -75 32 -75 73c0 42 33 73 75 73c43 0 75 -31 75 -73c0 -41 -32 -73 -75 -73zM539 119h16v-119h-72c-73 0 -96 35 -95 84c-36 -57 -88 -90 -168 -90
c-111 0 -191 53 -191 151c0 109 82 171 236 171h102v25c0 46 -33 76 -92 76c-55 0 -92 -25 -98 -63h-136c10 100 102 166 238 166c144 0 227 -64 227 -187v-182c0 -27 11 -32 33 -32zM367 212v10h-103c-59 0 -93 -24 -93 -67c0 -36 29 -59 76 -59c74 0 119 46 120 116z" />
    <glyph glyph-name="adieresis.ss01" horiz-adv-x="612" 
d="M199 576c-42 0 -75 32 -75 73c0 42 33 73 75 73c43 0 76 -31 76 -73c0 -41 -33 -73 -76 -73zM407 576c-42 0 -75 32 -75 73c0 42 33 73 75 73c43 0 75 -31 75 -73c0 -41 -32 -73 -75 -73zM425 446l14 68h124v-514h-125l-12 72c-34 -43 -85 -77 -158 -77
c-138 -1 -239 100 -239 263c0 159 101 263 238 263c73 0 125 -31 158 -75zM299 109c77 0 125 60 125 147c0 88 -48 149 -125 149s-126 -61 -126 -149c0 -87 49 -147 126 -147z" />
    <glyph glyph-name="adieresis.ss02" horiz-adv-x="546" 
d="M174 576c-42 0 -75 32 -75 73c0 42 33 73 75 73c43 0 76 -31 76 -73c0 -41 -33 -73 -76 -73zM382 576c-42 0 -75 32 -75 73c0 42 33 73 75 73c43 0 75 -31 75 -73c0 -41 -32 -73 -75 -73zM279 520c144 0 227 -64 227 -187v-333h-124l-11 65c-37 -44 -84 -71 -156 -71
c-112 0 -186 54 -186 152c0 109 82 170 237 170h101v25c0 46 -33 76 -92 76c-55 0 -92 -25 -98 -63h-136c10 100 102 166 238 166zM247 96c74 0 119 46 120 116v10h-103c-59 0 -93 -24 -93 -67c0 -36 29 -59 76 -59z" />
    <glyph glyph-name="agrave" unicode="&#xe0;" horiz-adv-x="561" 
d="M258 710l70 -144h-106l-125 144h161zM539 119h16v-119h-72c-73 0 -96 35 -95 84c-36 -57 -88 -90 -168 -90c-111 0 -191 53 -191 151c0 109 82 171 236 171h102v25c0 46 -33 76 -92 76c-55 0 -92 -25 -98 -63h-136c10 100 102 166 238 166c144 0 227 -64 227 -187v-182
c0 -27 11 -32 33 -32zM367 212v10h-103c-59 0 -93 -24 -93 -67c0 -36 29 -59 76 -59c74 0 119 46 120 116z" />
    <glyph glyph-name="agrave.ss01" horiz-adv-x="612" 
d="M283 710l70 -144h-106l-125 144h161zM425 446l14 68h124v-514h-125l-12 72c-34 -43 -85 -77 -158 -77c-138 -1 -239 100 -239 263c0 159 101 263 238 263c73 0 125 -31 158 -75zM299 109c77 0 125 60 125 147c0 88 -48 149 -125 149s-126 -61 -126 -149
c0 -87 49 -147 126 -147z" />
    <glyph glyph-name="agrave.ss02" horiz-adv-x="546" 
d="M258 710l70 -144h-106l-125 144h161zM279 520c144 0 227 -64 227 -187v-333h-124l-11 65c-37 -44 -84 -71 -156 -71c-112 0 -186 54 -186 152c0 109 82 170 237 170h101v25c0 46 -33 76 -92 76c-55 0 -92 -25 -98 -63h-136c10 100 102 166 238 166zM247 96
c74 0 119 46 120 116v10h-103c-59 0 -93 -24 -93 -67c0 -36 29 -59 76 -59z" />
    <glyph glyph-name="amacron" unicode="&#x101;" horiz-adv-x="561" 
d="M123 699h311v-100h-311v100zM539 119h16v-119h-72c-73 0 -96 35 -95 84c-36 -57 -88 -90 -168 -90c-111 0 -191 53 -191 151c0 109 82 171 236 171h102v25c0 46 -33 76 -92 76c-55 0 -92 -25 -98 -63h-136c10 100 102 166 238 166c144 0 227 -64 227 -187v-182
c0 -27 11 -32 33 -32zM367 212v10h-103c-59 0 -93 -24 -93 -67c0 -36 29 -59 76 -59c74 0 119 46 120 116z" />
    <glyph glyph-name="amacron.ss01" horiz-adv-x="612" 
d="M148 699h311v-100h-311v100zM425 446l14 68h124v-514h-125l-12 72c-34 -43 -85 -77 -158 -77c-138 -1 -239 100 -239 263c0 159 101 263 238 263c73 0 125 -31 158 -75zM299 109c77 0 125 60 125 147c0 88 -48 149 -125 149s-126 -61 -126 -149c0 -87 49 -147 126 -147z
" />
    <glyph glyph-name="amacron.ss02" horiz-adv-x="546" 
d="M123 699h311v-100h-311v100zM279 520c144 0 227 -64 227 -187v-333h-124l-11 65c-37 -44 -84 -71 -156 -71c-112 0 -186 54 -186 152c0 109 82 170 237 170h101v25c0 46 -33 76 -92 76c-55 0 -92 -25 -98 -63h-136c10 100 102 166 238 166zM247 96c74 0 119 46 120 116
v10h-103c-59 0 -93 -24 -93 -67c0 -36 29 -59 76 -59z" />
    <glyph glyph-name="aogonek" unicode="&#x105;" horiz-adv-x="561" 
d="M493 -106h64v-94h-90c-67 0 -119 37 -119 97c0 50 31 86 73 116c-25 15 -34 40 -33 71c-36 -57 -88 -90 -168 -90c-111 0 -191 53 -191 151c0 109 82 171 236 171h102v25c0 46 -33 76 -92 76c-55 0 -92 -25 -98 -63h-136c10 100 102 166 238 166c144 0 227 -64 227 -187
v-182c0 -27 11 -32 33 -32h16v-119c-60 -27 -95 -52 -95 -80c0 -17 12 -26 33 -26zM367 212v10h-103c-59 0 -93 -24 -93 -67c0 -36 29 -59 76 -59c74 0 119 46 120 116z" />
    <glyph glyph-name="aogonek.ss01" horiz-adv-x="612" 
d="M502 -106h64v-94h-90c-67 0 -119 37 -119 97c0 52 34 89 78 120l-9 55c-34 -43 -85 -77 -158 -77c-138 -1 -239 100 -239 263c0 159 101 263 238 263c73 0 125 -31 158 -75l14 68h124v-514h1c-60 -27 -95 -52 -95 -80c0 -17 12 -26 33 -26zM299 109c77 0 125 60 125 147
c0 88 -48 149 -125 149s-126 -61 -126 -149c0 -87 49 -147 126 -147z" />
    <glyph glyph-name="aogonek.ss02" horiz-adv-x="546" 
d="M444 -106h64v-94h-90c-67 0 -119 37 -119 97c0 53 35 90 80 121l-8 47c-37 -44 -84 -71 -156 -71c-112 0 -186 54 -186 152c0 109 82 170 237 170h101v25c0 46 -33 76 -92 76c-55 0 -92 -25 -98 -63h-136c10 100 102 166 238 166c144 0 227 -64 227 -187v-333
c-60 -27 -95 -52 -95 -80c0 -17 12 -26 33 -26zM247 96c74 0 119 46 120 116v10h-103c-59 0 -93 -24 -93 -67c0 -36 29 -59 76 -59z" />
    <glyph glyph-name="aring" unicode="&#xe5;" horiz-adv-x="561" 
d="M278 553c-73 0 -130 53 -130 121c0 67 57 121 130 121s130 -54 130 -121c0 -68 -57 -121 -130 -121zM278 732c-33 0 -58 -25 -58 -58c0 -34 25 -59 58 -59s58 25 58 59c0 33 -25 58 -58 58zM539 119h16v-119h-72c-73 0 -96 35 -95 84c-36 -57 -88 -90 -168 -90
c-111 0 -191 53 -191 151c0 109 82 171 236 171h102v25c0 46 -33 76 -92 76c-55 0 -92 -25 -98 -63h-136c10 100 102 166 238 166c144 0 227 -64 227 -187v-182c0 -27 11 -32 33 -32zM367 212v10h-103c-59 0 -93 -24 -93 -67c0 -36 29 -59 76 -59c74 0 119 46 120 116z" />
    <glyph glyph-name="aring.ss01" horiz-adv-x="612" 
d="M303 553c-73 0 -130 53 -130 121c0 67 57 121 130 121s130 -54 130 -121c0 -68 -57 -121 -130 -121zM303 732c-33 0 -58 -25 -58 -58c0 -34 25 -59 58 -59s58 25 58 59c0 33 -25 58 -58 58zM425 446l14 68h124v-514h-125l-12 72c-34 -43 -85 -77 -158 -77
c-138 -1 -239 100 -239 263c0 159 101 263 238 263c73 0 125 -31 158 -75zM299 109c77 0 125 60 125 147c0 88 -48 149 -125 149s-126 -61 -126 -149c0 -87 49 -147 126 -147z" />
    <glyph glyph-name="aring.ss02" horiz-adv-x="546" 
d="M278 553c-73 0 -130 53 -130 121c0 67 57 121 130 121s130 -54 130 -121c0 -68 -57 -121 -130 -121zM278 732c-33 0 -58 -25 -58 -58c0 -34 25 -59 58 -59s58 25 58 59c0 33 -25 58 -58 58zM279 520c144 0 227 -64 227 -187v-333h-124l-11 65c-37 -44 -84 -71 -156 -71
c-112 0 -186 54 -186 152c0 109 82 170 237 170h101v25c0 46 -33 76 -92 76c-55 0 -92 -25 -98 -63h-136c10 100 102 166 238 166zM247 96c74 0 119 46 120 116v10h-103c-59 0 -93 -24 -93 -67c0 -36 29 -59 76 -59z" />
    <glyph glyph-name="atilde" unicode="&#xe3;" horiz-adv-x="561" 
d="M237 622c-21 0 -33 -18 -33 -39h-84v20c0 61 40 108 96 108c58 0 67 -42 104 -42c20 0 32 17 32 39h84v-21c0 -61 -41 -108 -96 -108c-59 0 -70 43 -103 43zM539 119h16v-119h-72c-73 0 -96 35 -95 84c-36 -57 -88 -90 -168 -90c-111 0 -191 53 -191 151
c0 109 82 171 236 171h102v25c0 46 -33 76 -92 76c-55 0 -92 -25 -98 -63h-136c10 100 102 166 238 166c144 0 227 -64 227 -187v-182c0 -27 11 -32 33 -32zM367 212v10h-103c-59 0 -93 -24 -93 -67c0 -36 29 -59 76 -59c74 0 119 46 120 116z" />
    <glyph glyph-name="atilde.ss01" horiz-adv-x="612" 
d="M262 622c-21 0 -33 -18 -33 -39h-84v20c0 61 40 108 96 108c58 0 67 -42 104 -42c20 0 32 17 32 39h84v-21c0 -61 -41 -108 -96 -108c-59 0 -70 43 -103 43zM425 446l14 68h124v-514h-125l-12 72c-34 -43 -85 -77 -158 -77c-138 -1 -239 100 -239 263
c0 159 101 263 238 263c73 0 125 -31 158 -75zM299 109c77 0 125 60 125 147c0 88 -48 149 -125 149s-126 -61 -126 -149c0 -87 49 -147 126 -147z" />
    <glyph glyph-name="atilde.ss02" horiz-adv-x="546" 
d="M237 622c-21 0 -33 -18 -33 -39h-84v20c0 61 40 108 96 108c58 0 67 -42 104 -42c20 0 32 17 32 39h84v-21c0 -61 -41 -108 -96 -108c-59 0 -70 43 -103 43zM279 520c144 0 227 -64 227 -187v-333h-124l-11 65c-37 -44 -84 -71 -156 -71c-112 0 -186 54 -186 152
c0 109 82 170 237 170h101v25c0 46 -33 76 -92 76c-55 0 -92 -25 -98 -63h-136c10 100 102 166 238 166zM247 96c74 0 119 46 120 116v10h-103c-59 0 -93 -24 -93 -67c0 -36 29 -59 76 -59z" />
    <glyph glyph-name="ae" unicode="&#xe6;" horiz-adv-x="910" 
d="M877 225h-372v-4c1 -67 47 -120 119 -120c58 0 98 25 111 73h139c-16 -100 -107 -180 -245 -180c-91 0 -160 35 -200 94c-47 -61 -110 -94 -202 -94c-110 0 -198 53 -198 151c0 105 82 163 236 163h102v33c0 46 -37 76 -96 76c-52 0 -88 -25 -94 -63h-136
c10 100 102 166 238 166c75 0 142 -24 178 -69c41 44 99 69 172 69c150 0 251 -96 252 -247c0 -15 -1 -32 -4 -48zM623 415c-61 0 -107 -37 -115 -98h231c-9 63 -53 98 -116 98zM367 206v12h-97c-62 0 -99 -21 -99 -63c0 -36 29 -59 76 -59c74 0 120 44 120 110z" />
    <glyph glyph-name="aeacute" unicode="&#x1fd;" horiz-adv-x="910" 
d="M475 700h161l-131 -141h-104zM877 225h-372v-4c6 -74 47 -120 121 -120c56 0 96 25 109 73h139c-16 -100 -103 -180 -238 -180c-94 0 -165 35 -207 95c-46 -62 -109 -95 -202 -95c-110 0 -198 53 -198 151c0 105 82 163 236 163h102v33c0 46 -37 76 -96 76
c-52 0 -88 -25 -94 -63h-136c10 107 100 166 237 166c75 0 143 -24 179 -70c41 45 98 70 165 70c153 0 258 -96 259 -247c0 -15 -1 -32 -4 -48zM623 415c-61 0 -107 -37 -115 -98h232c-9 63 -54 98 -117 98zM367 206v12h-97c-62 0 -99 -21 -99 -63c0 -36 29 -59 76 -59
c74 0 120 44 120 110z" />
    <glyph glyph-name="b" unicode="b" horiz-adv-x="612" 
d="M345 520c138 0 238 -99 238 -262c0 -159 -100 -264 -239 -264c-74 0 -125 32 -158 76l-14 -70h-123v700h141v-251c34 41 84 71 155 71zM313 109c77 0 127 60 127 148s-50 148 -127 148s-125 -60 -125 -147c0 -88 48 -149 125 -149z" />
    <glyph glyph-name="c" unicode="c" horiz-adv-x="569" 
d="M291 -6c-163 0 -262 101 -262 263c0 159 104 263 267 263c140 0 227 -76 247 -198h-147c-12 51 -47 83 -102 83c-74 0 -121 -61 -121 -148c0 -88 47 -148 121 -148c55 0 92 33 102 85h148c-20 -123 -113 -200 -253 -200z" />
    <glyph glyph-name="cacute" unicode="&#x107;" horiz-adv-x="569" 
d="M351 569h-103l73 141h161zM291 -6c-163 0 -262 101 -262 263c0 159 104 263 267 263c140 0 227 -76 247 -198h-147c-12 51 -47 83 -102 83c-74 0 -121 -61 -121 -148c0 -88 47 -148 121 -148c55 0 92 33 102 85h148c-20 -123 -113 -200 -253 -200z" />
    <glyph glyph-name="ccaron" unicode="&#x10d;" horiz-adv-x="569" 
d="M236 710l61 -59l62 59h129l-128 -142h-126l-128 142h130zM291 -6c-163 0 -262 101 -262 263c0 159 104 263 267 263c140 0 227 -76 247 -198h-147c-12 51 -47 83 -102 83c-74 0 -121 -61 -121 -148c0 -88 47 -148 121 -148c55 0 92 33 102 85h148
c-20 -123 -113 -200 -253 -200z" />
    <glyph glyph-name="ccedilla" unicode="&#xe7;" horiz-adv-x="569" 
d="M396 194h148c-18 -111 -95 -184 -213 -198l-7 -26h11c58 0 96 -28 96 -77c0 -57 -43 -93 -109 -93h-119v69h93c17 0 28 8 28 25c0 15 -11 22 -28 22h-61l20 80c-141 14 -226 111 -226 261c0 159 104 263 267 263c140 0 227 -76 247 -198h-147c-12 51 -47 83 -102 83
c-74 0 -121 -61 -121 -148c0 -88 47 -148 121 -148c55 0 92 33 102 85z" />
    <glyph glyph-name="ccircumflex" unicode="&#x109;" horiz-adv-x="569" 
d="M358 568l-61 59l-62 -59h-129l128 142h126l128 -142h-130zM291 -6c-163 0 -262 101 -262 263c0 159 104 263 267 263c140 0 227 -76 247 -198h-147c-12 51 -47 83 -102 83c-74 0 -121 -61 -121 -148c0 -88 47 -148 121 -148c55 0 92 33 102 85h148
c-20 -123 -113 -200 -253 -200z" />
    <glyph glyph-name="cdotaccent" unicode="&#x10b;" horiz-adv-x="569" 
d="M297 569c-46 0 -82 34 -82 79c0 46 36 80 82 80s82 -34 82 -80c0 -45 -36 -79 -82 -79zM291 -6c-163 0 -262 101 -262 263c0 159 104 263 267 263c140 0 227 -76 247 -198h-147c-12 51 -47 83 -102 83c-74 0 -121 -61 -121 -148c0 -88 47 -148 121 -148
c55 0 92 33 102 85h148c-20 -123 -113 -200 -253 -200z" />
    <glyph glyph-name="d" unicode="d" horiz-adv-x="612" 
d="M422 450v250h141v-700h-123l-14 71c-34 -44 -84 -77 -158 -77c-138 0 -239 101 -239 264c0 159 101 262 238 262c71 0 122 -28 155 -70zM299 109c77 0 125 60 125 147c0 88 -48 149 -125 149s-126 -60 -126 -148s49 -148 126 -148z" />
    <glyph glyph-name="eth" unicode="&#xf0;" horiz-adv-x="606" 
d="M485 638l-78 -46c93 -76 160 -181 160 -319c0 -153 -87 -279 -273 -279c-162 0 -265 101 -265 237c0 151 117 222 233 222c55 0 96 -13 148 -52c-22 50 -59 92 -107 130l-114 -67l-45 76l76 45c-29 17 -62 33 -96 49l80 72c42 -15 84 -35 124 -58l112 66zM294 107
c78 0 128 52 128 127c0 74 -54 121 -128 121c-72 0 -121 -52 -121 -125s49 -123 121 -123z" />
    <glyph glyph-name="dcaron" unicode="&#x10f;" horiz-adv-x="679" 
d="M422 450v250h141v-700h-123l-14 71c-34 -44 -84 -77 -158 -77c-138 0 -239 101 -239 264c0 159 101 262 238 262c71 0 122 -28 155 -70zM597 552l35 148h132l-68 -148h-99zM299 109c77 0 125 60 125 147c0 88 -48 149 -125 149s-126 -60 -126 -148s49 -148 126 -148z" />
    <glyph glyph-name="dcroat" unicode="&#x111;" horiz-adv-x="620" 
d="M563 651h75v-103h-75v-548h-123l-14 71c-34 -44 -84 -77 -158 -77c-138 0 -239 101 -239 264c0 159 101 262 238 262c71 0 122 -28 155 -70v98h-137v103h137v49h141v-49zM299 109c77 0 125 60 125 147c0 88 -48 149 -125 149s-126 -60 -126 -148s49 -148 126 -148z" />
    <glyph glyph-name="e" unicode="e" horiz-adv-x="581" 
d="M303 -6c-171 0 -274 103 -274 262c0 160 105 264 264 264c154 0 258 -96 260 -247c0 -15 -1 -32 -4 -48h-373v-7c3 -73 50 -117 121 -117c57 0 97 25 109 73h139c-16 -100 -105 -180 -242 -180zM179 317h232c-10 63 -53 98 -117 98c-61 0 -107 -37 -115 -98z" />
    <glyph glyph-name="eacute" unicode="&#xe9;" horiz-adv-x="581" 
d="M346 569h-103l73 141h161zM303 -6c-171 0 -274 103 -274 262c0 160 105 264 264 264c154 0 258 -96 260 -247c0 -15 -1 -32 -4 -48h-373v-7c3 -73 50 -117 121 -117c57 0 97 25 109 73h139c-16 -100 -105 -180 -242 -180zM179 317h232c-10 63 -53 98 -117 98
c-61 0 -107 -37 -115 -98z" />
    <glyph glyph-name="ebreve" unicode="&#x115;" horiz-adv-x="581" 
d="M136 710h101c0 -34 21 -56 55 -56c32 0 55 22 55 56h101c-4 -88 -67 -147 -159 -147c-89 0 -149 59 -153 147zM303 -6c-171 0 -274 103 -274 262c0 160 105 264 264 264c154 0 258 -96 260 -247c0 -15 -1 -32 -4 -48h-373v-7c3 -73 50 -117 121 -117c57 0 97 25 109 73
h139c-16 -100 -105 -180 -242 -180zM179 317h232c-10 63 -53 98 -117 98c-61 0 -107 -37 -115 -98z" />
    <glyph glyph-name="ecaron" unicode="&#x11b;" horiz-adv-x="581" 
d="M231 710l61 -59l62 59h129l-128 -142h-126l-128 142h130zM303 -6c-171 0 -274 103 -274 262c0 160 105 264 264 264c154 0 258 -96 260 -247c0 -15 -1 -32 -4 -48h-373v-7c3 -73 50 -117 121 -117c57 0 97 25 109 73h139c-16 -100 -105 -180 -242 -180zM179 317h232
c-10 63 -53 98 -117 98c-61 0 -107 -37 -115 -98z" />
    <glyph glyph-name="ecircumflex" unicode="&#xea;" horiz-adv-x="581" 
d="M353 568l-61 59l-62 -59h-129l128 142h126l128 -142h-130zM303 -6c-171 0 -274 103 -274 262c0 160 105 264 264 264c154 0 258 -96 260 -247c0 -15 -1 -32 -4 -48h-373v-7c3 -73 50 -117 121 -117c57 0 97 25 109 73h139c-16 -100 -105 -180 -242 -180zM179 317h232
c-10 63 -53 98 -117 98c-61 0 -107 -37 -115 -98z" />
    <glyph glyph-name="edieresis" unicode="&#xeb;" horiz-adv-x="581" 
d="M113 649c0 42 33 73 75 73c43 0 76 -31 76 -73c0 -41 -33 -73 -76 -73c-42 0 -75 32 -75 73zM321 649c0 42 33 73 75 73c43 0 75 -31 75 -73c0 -41 -32 -73 -75 -73c-42 0 -75 32 -75 73zM303 -6c-171 0 -274 103 -274 262c0 160 105 264 264 264c154 0 258 -96 260 -247
c0 -15 -1 -32 -4 -48h-373v-7c3 -73 50 -117 121 -117c57 0 97 25 109 73h139c-16 -100 -105 -180 -242 -180zM179 317h232c-10 63 -53 98 -117 98c-61 0 -107 -37 -115 -98z" />
    <glyph glyph-name="edotaccent" unicode="&#x117;" horiz-adv-x="581" 
d="M292 569c-46 0 -82 34 -82 79c0 46 36 80 82 80s82 -34 82 -80c0 -45 -36 -79 -82 -79zM303 -6c-171 0 -274 103 -274 262c0 160 105 264 264 264c154 0 258 -96 260 -247c0 -15 -1 -32 -4 -48h-373v-7c3 -73 50 -117 121 -117c57 0 97 25 109 73h139
c-16 -100 -105 -180 -242 -180zM179 317h232c-10 63 -53 98 -117 98c-61 0 -107 -37 -115 -98z" />
    <glyph glyph-name="egrave" unicode="&#xe8;" horiz-adv-x="581" 
d="M236 566l-125 144h161l70 -144h-106zM303 -6c-171 0 -274 103 -274 262c0 160 105 264 264 264c154 0 258 -96 260 -247c0 -15 -1 -32 -4 -48h-373v-7c3 -73 50 -117 121 -117c57 0 97 25 109 73h139c-16 -100 -105 -180 -242 -180zM179 317h232c-10 63 -53 98 -117 98
c-61 0 -107 -37 -115 -98z" />
    <glyph glyph-name="emacron" unicode="&#x113;" horiz-adv-x="581" 
d="M448 599h-311v100h311v-100zM303 -6c-171 0 -274 103 -274 262c0 160 105 264 264 264c154 0 258 -96 260 -247c0 -15 -1 -32 -4 -48h-373v-7c3 -73 50 -117 121 -117c57 0 97 25 109 73h139c-16 -100 -105 -180 -242 -180zM179 317h232c-10 63 -53 98 -117 98
c-61 0 -107 -37 -115 -98z" />
    <glyph glyph-name="eogonek" unicode="&#x119;" horiz-adv-x="581" 
d="M447 -200h-90c-67 0 -119 37 -119 97c0 40 18 71 43 98c-12 0 -24 2 -35 3c-136 21 -217 117 -217 258c0 160 105 264 264 264c154 0 258 -96 260 -247c0 -15 -1 -32 -4 -48h-373v-6c1 -67 45 -118 121 -118c57 0 97 25 109 73h139c-8 -53 -38 -100 -92 -138
c-54 -37 -103 -74 -103 -113c0 -21 13 -29 40 -29h57v-94zM179 317h232c-10 63 -53 98 -117 98c-61 0 -107 -37 -115 -98z" />
    <glyph glyph-name="f" unicode="f" horiz-adv-x="360" 
d="M1 395v119h85v38c0 95 51 148 155 148h115v-120h-90c-28 0 -42 -13 -42 -42v-24h132v-119h-129v-395h-141v395h-85z" />
    <glyph glyph-name="f.ss05" horiz-adv-x="324" 
d="M49 0v552c0 96 51 148 155 148h115v-120h-89c-29 0 -43 -13 -43 -42v-24h132v-119h-129v-395h-141z" />
    <glyph glyph-name="g" unicode="g" horiz-adv-x="612" 
d="M427 443l12 71h124v-499c0 -127 -78 -221 -275 -221c-143 0 -241 65 -248 184h142c13 -49 52 -77 117 -77c79 0 126 39 126 119v54c-34 -43 -85 -71 -157 -71c-138 -1 -239 100 -239 259c0 157 101 259 238 259c74 0 126 -33 160 -78zM299 116c77 0 125 59 125 144
c0 86 -48 147 -125 147s-126 -60 -126 -146s49 -145 126 -145z" />
    <glyph glyph-name="gbreve" unicode="&#x11f;" horiz-adv-x="612" 
d="M294 563c-89 0 -149 59 -153 147h101c0 -34 21 -56 55 -56c32 0 55 22 55 56h101c-4 -88 -67 -147 -159 -147zM427 443l12 71h124v-499c0 -127 -78 -221 -275 -221c-143 0 -241 65 -248 184h142c13 -49 52 -77 117 -77c79 0 126 39 126 119v54c-34 -43 -85 -71 -157 -71
c-138 -1 -239 100 -239 259c0 157 101 259 238 259c74 0 126 -33 160 -78zM299 116c77 0 125 59 125 144c0 86 -48 147 -125 147s-126 -60 -126 -146s49 -145 126 -145z" />
    <glyph glyph-name="gcircumflex" unicode="&#x11d;" horiz-adv-x="612" 
d="M358 568l-61 59l-62 -59h-129l128 142h126l128 -142h-130zM427 443l12 71h124v-499c0 -127 -78 -221 -275 -221c-143 0 -241 65 -248 184h142c13 -49 52 -77 117 -77c79 0 126 39 126 119v54c-34 -43 -85 -71 -157 -71c-138 -1 -239 100 -239 259c0 157 101 259 238 259
c74 0 126 -33 160 -78zM299 116c77 0 125 59 125 144c0 86 -48 147 -125 147s-126 -60 -126 -146s49 -145 126 -145z" />
    <glyph glyph-name="uni0123" unicode="&#x123;" horiz-adv-x="612" 
d="M304 710h107l-53 -146h-137zM427 443l12 71h124v-499c0 -127 -78 -221 -275 -221c-143 0 -241 65 -248 184h142c13 -49 52 -77 117 -77c79 0 126 39 126 119v54c-34 -43 -85 -71 -157 -71c-138 -1 -239 100 -239 259c0 157 101 259 238 259c74 0 126 -33 160 -78z
M299 116c77 0 125 59 125 144c0 86 -48 147 -125 147s-126 -60 -126 -146s49 -145 126 -145z" />
    <glyph glyph-name="gdotaccent" unicode="&#x121;" horiz-adv-x="612" 
d="M297 569c-46 0 -82 34 -82 79c0 46 36 80 82 80s82 -34 82 -80c0 -45 -36 -79 -82 -79zM427 443l12 71h124v-499c0 -127 -78 -221 -275 -221c-143 0 -241 65 -248 184h142c13 -49 52 -77 117 -77c79 0 126 39 126 119v54c-34 -43 -85 -71 -157 -71
c-138 -1 -239 100 -239 259c0 157 101 259 238 259c74 0 126 -33 160 -78zM299 116c77 0 125 59 125 144c0 86 -48 147 -125 147s-126 -60 -126 -146s49 -145 126 -145z" />
    <glyph glyph-name="h" unicode="h" horiz-adv-x="590" 
d="M342 520c114 0 208 -61 208 -235v-285h-141v273c0 84 -34 131 -104 131c-72 0 -115 -52 -115 -140v-264h-141v700h141v-249c33 40 79 69 152 69z" />
    <glyph glyph-name="hbar" unicode="&#x127;" horiz-adv-x="598" 
d="M351 520c113 0 207 -61 207 -235v-285h-141v273c0 84 -33 131 -104 131c-72 0 -115 -52 -115 -140v-264h-141v548h-75v103h75v49h141v-49h137v-103h-137v-98c33 41 79 70 153 70z" />
    <glyph glyph-name="hcircumflex" unicode="&#x125;" horiz-adv-x="590" 
d="M180 747l-61 59l-62 -59h-129l128 142h126l128 -142h-130zM342 520c114 0 208 -61 208 -235v-285h-141v273c0 84 -34 131 -104 131c-72 0 -115 -52 -115 -140v-264h-141v700h141v-249c33 40 79 69 152 69z" />
    <glyph glyph-name="i" unicode="i" horiz-adv-x="239" 
d="M120 569c-46 0 -82 34 -82 79c0 46 36 80 82 80s82 -34 82 -80c0 -45 -36 -79 -82 -79zM49 0v514h142v-514h-142z" />
    <glyph glyph-name="i.ss03" horiz-adv-x="270" 
d="M152 568c-46 0 -82 34 -82 79c0 46 36 80 82 80s82 -34 82 -80c0 -45 -36 -79 -82 -79zM80 0v395h-80v119h221v-514h-141z" />
    <glyph glyph-name="dotlessi" unicode="&#x131;" horiz-adv-x="239" 
d="M49 0v514h142v-514h-142z" />
    <glyph glyph-name="dotlessi.ss03" horiz-adv-x="270" 
d="M80 0v395h-80v119h221v-514h-141z" />
    <glyph glyph-name="iacute" unicode="&#xed;" horiz-adv-x="239" 
d="M174 569h-103l73 141h161zM49 0v514h142v-514h-142z" />
    <glyph glyph-name="iacute.ss03" horiz-adv-x="270" 
d="M206 568h-103l73 141h161zM80 0v395h-80v119h221v-514h-141z" />
    <glyph glyph-name="ibreve" unicode="&#x12d;" horiz-adv-x="239" 
d="M-36 710h101c0 -34 21 -56 55 -56c32 0 55 22 55 56h101c-4 -88 -67 -147 -159 -147c-89 0 -149 59 -153 147zM49 0v514h142v-514h-142z" />
    <glyph glyph-name="ibreve.ss03" horiz-adv-x="270" 
d="M-4 709h101c0 -34 21 -56 55 -56c32 0 55 22 55 56h101c-4 -88 -67 -147 -159 -147c-89 0 -149 59 -153 147zM80 0v395h-80v119h221v-514h-141z" />
    <glyph glyph-name="icircumflex" unicode="&#xee;" horiz-adv-x="239" 
d="M181 568l-61 59l-62 -59h-129l128 142h126l128 -142h-130zM49 0v514h142v-514h-142z" />
    <glyph glyph-name="icircumflex.ss03" horiz-adv-x="270" 
d="M213 567l-61 59l-62 -59h-129l128 142h126l128 -142h-130zM80 0v395h-80v119h221v-514h-141z" />
    <glyph glyph-name="idieresis" unicode="&#xef;" horiz-adv-x="239" 
d="M-59 649c0 42 33 73 75 73c43 0 76 -31 76 -73c0 -41 -33 -73 -76 -73c-42 0 -75 32 -75 73zM149 649c0 42 33 73 75 73c43 0 75 -31 75 -73c0 -41 -32 -73 -75 -73c-42 0 -75 32 -75 73zM49 0v514h142v-514h-142z" />
    <glyph glyph-name="idieresis.ss03" horiz-adv-x="270" 
d="M-27 648c0 42 33 73 75 73c43 0 76 -31 76 -73c0 -41 -33 -73 -76 -73c-42 0 -75 32 -75 73zM181 648c0 42 33 73 75 73c43 0 75 -31 75 -73c0 -41 -32 -73 -75 -73c-42 0 -75 32 -75 73zM80 0v395h-80v119h221v-514h-141z" />
    <glyph glyph-name="i.loclTRK" horiz-adv-x="239" 
d="M120 569c-46 0 -82 34 -82 79c0 46 36 80 82 80s82 -34 82 -80c0 -45 -36 -79 -82 -79zM49 0v514h142v-514h-142z" />
    <glyph glyph-name="i.loclTRK.ss03" horiz-adv-x="270" 
d="M152 568c-46 0 -82 34 -82 79c0 46 36 80 82 80s82 -34 82 -80c0 -45 -36 -79 -82 -79zM80 0v395h-80v119h221v-514h-141z" />
    <glyph glyph-name="igrave" unicode="&#xec;" horiz-adv-x="239" 
d="M64 566l-125 144h161l70 -144h-106zM49 0v514h142v-514h-142z" />
    <glyph glyph-name="igrave.ss03" horiz-adv-x="270" 
d="M96 565l-125 144h161l70 -144h-106zM80 0v395h-80v119h221v-514h-141z" />
    <glyph glyph-name="ij" unicode="&#x133;" horiz-adv-x="483" 
d="M120 569c-46 0 -82 34 -82 79c0 46 36 80 82 80s82 -34 82 -80c0 -45 -36 -79 -82 -79zM364 569c-46 0 -81 33 -81 79s35 80 81 80s82 -34 82 -80s-36 -79 -82 -79zM49 0v514h142v-514h-142zM193 -200v119h49c35 0 51 17 51 57v538h141v-558c0 -95 -50 -156 -148 -156
h-93z" />
    <glyph glyph-name="ij.ss03" horiz-adv-x="515" 
d="M120 569c-46 0 -82 34 -82 79c0 46 36 80 82 80s82 -34 82 -80c0 -45 -36 -79 -82 -79zM396 569c-46 0 -81 33 -81 79s35 80 81 80c47 0 82 -34 82 -80s-35 -79 -82 -79zM49 0v514h142v-514h-142zM310 -200h-88v119h45c38 0 57 17 57 56v420h-90v119h232v-558
c0 -95 -53 -156 -156 -156z" />
    <glyph glyph-name="ij.ss04" horiz-adv-x="478" 
d="M120 569c-46 0 -82 34 -82 79c0 46 36 80 82 80s82 -34 82 -80c0 -45 -36 -79 -82 -79zM360 569c-47 0 -82 33 -82 79s35 80 82 80c46 0 81 -34 81 -80s-35 -79 -81 -79zM49 0v514h142v-514h-142zM288 -200v714h142v-714h-142z" />
    <glyph glyph-name="imacron" unicode="&#x12b;" horiz-adv-x="239" 
d="M276 599h-311v100h311v-100zM49 0v514h142v-514h-142z" />
    <glyph glyph-name="imacron.ss03" horiz-adv-x="270" 
d="M308 598h-311v100h311v-100zM80 0v395h-80v119h221v-514h-141z" />
    <glyph glyph-name="iogonek" unicode="&#x12f;" horiz-adv-x="239" 
d="M120 569c-46 0 -82 34 -82 79c0 46 36 80 82 80s82 -34 82 -80c0 -45 -36 -79 -82 -79zM96 -80c0 -17 12 -26 33 -26h64v-94h-90c-67 0 -119 37 -119 97c0 47 27 81 65 110v507h142v-514c-60 -27 -95 -52 -95 -80z" />
    <glyph glyph-name="iogonek.ss03" horiz-adv-x="270" 
d="M152 568c-46 0 -82 34 -82 79c0 46 36 80 82 80s82 -34 82 -80c0 -45 -36 -79 -82 -79zM126 -80c0 -17 12 -26 33 -26h64v-94h-90c-67 0 -119 37 -119 97c0 47 28 82 66 111v387h-80v119h221v-514c-60 -27 -95 -52 -95 -80z" />
    <glyph glyph-name="itilde" unicode="&#x129;" horiz-adv-x="239" 
d="M79 622c-21 0 -33 -18 -33 -39h-84v20c0 61 40 108 96 108c58 0 67 -42 104 -42c20 0 32 17 32 39h84v-21c0 -61 -41 -108 -96 -108c-59 0 -70 43 -103 43zM49 0v514h142v-514h-142z" />
    <glyph glyph-name="itilde.ss03" horiz-adv-x="270" 
d="M111 621c-21 0 -33 -18 -33 -39h-84v20c0 61 40 108 96 108c58 0 67 -42 104 -42c20 0 32 17 32 39h84v-21c0 -61 -41 -108 -96 -108c-59 0 -70 43 -103 43zM80 0v395h-80v119h221v-514h-141z" />
    <glyph glyph-name="j" unicode="j" horiz-adv-x="244" 
d="M125 569c-46 0 -82 34 -82 79c0 46 36 80 82 80s82 -34 82 -80c0 -45 -36 -79 -82 -79zM-46 -200v119h49c35 0 51 17 51 57v538h141v-558c0 -95 -50 -156 -148 -156h-93z" />
    <glyph glyph-name="j.short" horiz-adv-x="244" 
d="M123 569c-46 0 -82 34 -82 79c0 46 36 80 82 80s82 -34 82 -80c0 -45 -36 -79 -82 -79zM-17 -200v119h20c35 0 51 17 51 57v538h141v-558c0 -95 -50 -156 -148 -156h-64z" />
    <glyph glyph-name="j.ss03" horiz-adv-x="275" 
d="M157 569c-46 0 -82 34 -82 79c0 46 36 80 82 80s82 -34 82 -80c0 -45 -36 -79 -82 -79zM70 -200h-88v119h46c38 0 56 17 56 56v420h-89v119h231v-558c0 -95 -53 -156 -156 -156z" />
    <glyph glyph-name="j.ss04" horiz-adv-x="239" 
d="M121 569c-46 0 -82 34 -82 79c0 46 36 80 82 80s82 -34 82 -80c0 -45 -36 -79 -82 -79zM49 -200v714h142v-714h-142z" />
    <glyph glyph-name="uni0237" unicode="&#x237;" horiz-adv-x="244" 
d="M-46 -200v119h49c35 0 51 17 51 57v538h141v-558c0 -95 -50 -156 -148 -156h-93z" />
    <glyph glyph-name="uni0237.short" horiz-adv-x="244" 
d="M-17 -200v119h20c35 0 51 17 51 57v538h141v-558c0 -95 -50 -156 -148 -156h-64z" />
    <glyph glyph-name="uni0237.ss03" horiz-adv-x="275" 
d="M70 -200h-88v119h46c38 0 56 17 56 56v420h-89v119h231v-558c0 -95 -53 -156 -156 -156z" />
    <glyph glyph-name="uni0237.ss04" horiz-adv-x="239" 
d="M49 -200v714h142v-714h-142z" />
    <glyph glyph-name="jcircumflex" unicode="&#x135;" horiz-adv-x="244" 
d="M186 568l-61 59l-62 -59h-129l128 142h126l128 -142h-130zM-46 -200v119h49c35 0 51 17 51 57v538h141v-558c0 -95 -50 -156 -148 -156h-93z" />
    <glyph glyph-name="jcircumflex.short" horiz-adv-x="244" 
d="M184 568l-61 59l-62 -59h-129l128 142h126l128 -142h-130zM-17 -200v119h20c35 0 51 17 51 57v538h141v-558c0 -95 -50 -156 -148 -156h-64z" />
    <glyph glyph-name="jcircumflex.ss03" horiz-adv-x="275" 
d="M218 568l-61 59l-62 -59h-129l128 142h126l128 -142h-130zM70 -200h-88v119h46c38 0 56 17 56 56v420h-89v119h231v-558c0 -95 -53 -156 -156 -156z" />
    <glyph glyph-name="jcircumflex.ss04" horiz-adv-x="239" 
d="M182 568l-61 59l-62 -59h-129l128 142h126l128 -142h-130zM49 -200v714h142v-714h-142z" />
    <glyph glyph-name="k" unicode="k" horiz-adv-x="556" 
d="M49 0v700h141v-404l201 218h159l-185 -202l195 -312h-163l-130 208l-77 -83v-125h-141z" />
    <glyph glyph-name="uni0137" unicode="&#x137;" horiz-adv-x="556" 
d="M49 0v700h141v-404l201 218h159l-185 -202l195 -312h-163l-130 208l-77 -83v-125h-141zM171 -195l52 147h138l-85 -147h-105z" />
    <glyph glyph-name="kgreenlandic" unicode="&#x138;" horiz-adv-x="556" 
d="M49 0v514h141v-218l201 218h159l-185 -202l195 -312h-163l-130 208l-77 -83v-125h-141z" />
    <glyph glyph-name="l" unicode="l" horiz-adv-x="239" 
d="M49 0v700h141v-700h-141z" />
    <glyph glyph-name="lacute" unicode="&#x13a;" horiz-adv-x="239" 
d="M173 748h-103l73 141h161zM49 0v700h141v-700h-141z" />
    <glyph glyph-name="lcaron" unicode="&#x13e;" horiz-adv-x="305" 
d="M49 0v700h141v-700h-141zM224 552l35 148h132l-68 -148h-99z" />
    <glyph glyph-name="uni013C" unicode="&#x13c;" horiz-adv-x="239" 
d="M49 0v700h141v-700h-141zM-6 -195l52 147h138l-85 -147h-105z" />
    <glyph glyph-name="ldot" unicode="&#x140;" horiz-adv-x="379" 
d="M49 0v700h141v-700h-141zM310 252c-46 0 -81 34 -81 80s35 80 81 80s82 -34 82 -80s-36 -80 -82 -80z" />
    <glyph glyph-name="lslash" unicode="&#x142;" horiz-adv-x="299" 
d="M220 466l70 33v-122l-70 -33v-344h-141v279l-70 -33v122l70 33v299h141v-234z" />
    <glyph glyph-name="m" unicode="m" horiz-adv-x="894" 
d="M664 520c106 0 190 -60 190 -225v-295h-141v287c0 77 -28 117 -89 117s-102 -45 -102 -123v-281h-141v287c0 77 -28 117 -90 117c-61 0 -101 -47 -101 -124v-280h-141v514h123l13 -64c31 40 76 69 151 70c63 1 122 -22 154 -87c36 55 96 87 174 87z" />
    <glyph glyph-name="n" unicode="n" horiz-adv-x="590" 
d="M344 520c111 0 206 -59 206 -235v-285h-141v271c0 87 -33 133 -104 133c-73 0 -115 -52 -115 -141v-263h-141v514h123l13 -64c33 40 80 70 159 70z" />
    <glyph glyph-name="nacute" unicode="&#x144;" horiz-adv-x="590" 
d="M346 710h161l-131 -141h-103zM344 520c111 0 206 -59 206 -235v-285h-141v271c0 87 -33 133 -104 133c-73 0 -115 -52 -115 -141v-263h-141v514h123l13 -64c33 40 80 70 159 70z" />
    <glyph glyph-name="napostrophe" unicode="&#x149;" horiz-adv-x="806" 
d="M114 706c63 0 105 -54 105 -131c0 -113 -73 -171 -187 -172v73c64 0 95 32 95 68c0 4 0 9 -1 14c-10 -5 -20 -8 -32 -8c-37 0 -68 25 -68 75c0 45 39 81 88 81zM560 520c112 0 206 -59 206 -235v-285h-141v271c0 87 -33 133 -104 133c-72 0 -115 -52 -115 -141v-263h-141
v514h124l12 -64c33 40 80 70 159 70z" />
    <glyph glyph-name="ncaron" unicode="&#x148;" horiz-adv-x="590" 
d="M513 710l-128 -142h-126l-128 142h130l61 -59l62 59h129zM344 520c111 0 206 -59 206 -235v-285h-141v271c0 87 -33 133 -104 133c-73 0 -115 -52 -115 -141v-263h-141v514h123l13 -64c33 40 80 70 159 70z" />
    <glyph glyph-name="uni0146" unicode="&#x146;" horiz-adv-x="590" 
d="M344 520c111 0 206 -59 206 -235v-285h-141v271c0 87 -33 133 -104 133c-73 0 -115 -52 -115 -141v-263h-141v514h123l13 -64c33 40 80 70 159 70zM281 -195h-105l52 147h138z" />
    <glyph glyph-name="eng" unicode="&#x14b;" horiz-adv-x="590" 
d="M344 520c111 0 206 -59 206 -235v-323c0 -98 -53 -162 -155 -162h-89v119h50c36 0 53 18 53 59v293c0 87 -33 133 -104 133c-73 0 -115 -52 -115 -141v-263h-141v514h123l13 -65c32 41 80 71 159 71z" />
    <glyph glyph-name="ntilde" unicode="&#xf1;" horiz-adv-x="590" 
d="M281 622c-21 0 -33 -18 -33 -39h-84v20c0 61 40 108 96 108c58 0 67 -42 104 -42c20 0 32 17 32 39h84v-21c0 -61 -41 -108 -96 -108c-59 0 -70 43 -103 43zM344 520c111 0 206 -59 206 -235v-285h-141v271c0 87 -33 133 -104 133c-73 0 -115 -52 -115 -141v-263h-141
v514h123l13 -64c33 40 80 70 159 70z" />
    <glyph glyph-name="o" unicode="o" 
d="M300 -6c-164 0 -271 105 -271 263s107 263 271 263s271 -105 271 -263c0 -159 -107 -263 -271 -263zM300 109c79 0 128 61 128 148s-49 148 -128 148s-127 -61 -127 -148s48 -148 127 -148z" />
    <glyph glyph-name="oacute" unicode="&#xf3;" 
d="M354 569h-103l73 141h161zM300 -6c-164 0 -271 105 -271 263s107 263 271 263s271 -105 271 -263c0 -159 -107 -263 -271 -263zM300 109c79 0 128 61 128 148s-49 148 -128 148s-127 -61 -127 -148s48 -148 127 -148z" />
    <glyph glyph-name="obreve" unicode="&#x14f;" 
d="M144 710h101c0 -34 21 -56 55 -56c32 0 55 22 55 56h101c-4 -88 -67 -147 -159 -147c-89 0 -149 59 -153 147zM300 -6c-164 0 -271 105 -271 263s107 263 271 263s271 -105 271 -263c0 -159 -107 -263 -271 -263zM300 109c79 0 128 61 128 148s-49 148 -128 148
s-127 -61 -127 -148s48 -148 127 -148z" />
    <glyph glyph-name="ocircumflex" unicode="&#xf4;" 
d="M361 568l-61 59l-62 -59h-129l128 142h126l128 -142h-130zM300 -6c-164 0 -271 105 -271 263s107 263 271 263s271 -105 271 -263c0 -159 -107 -263 -271 -263zM300 109c79 0 128 61 128 148s-49 148 -128 148s-127 -61 -127 -148s48 -148 127 -148z" />
    <glyph glyph-name="odieresis" unicode="&#xf6;" 
d="M121 649c0 42 33 73 75 73c43 0 76 -31 76 -73c0 -41 -33 -73 -76 -73c-42 0 -75 32 -75 73zM329 649c0 42 33 73 75 73c43 0 75 -31 75 -73c0 -41 -32 -73 -75 -73c-42 0 -75 32 -75 73zM300 -6c-164 0 -271 105 -271 263s107 263 271 263s271 -105 271 -263
c0 -159 -107 -263 -271 -263zM300 109c79 0 128 61 128 148s-49 148 -128 148s-127 -61 -127 -148s48 -148 127 -148z" />
    <glyph glyph-name="ograve" unicode="&#xf2;" 
d="M244 566l-125 144h161l70 -144h-106zM300 -6c-164 0 -271 105 -271 263s107 263 271 263s271 -105 271 -263c0 -159 -107 -263 -271 -263zM300 109c79 0 128 61 128 148s-49 148 -128 148s-127 -61 -127 -148s48 -148 127 -148z" />
    <glyph glyph-name="ohungarumlaut" unicode="&#x151;" 
d="M236 566h-96l73 144h154zM436 566h-97l74 144h153zM300 -6c-164 0 -271 105 -271 263s107 263 271 263s271 -105 271 -263c0 -159 -107 -263 -271 -263zM300 109c79 0 128 61 128 148s-49 148 -128 148s-127 -61 -127 -148s48 -148 127 -148z" />
    <glyph glyph-name="omacron" unicode="&#x14d;" 
d="M456 599h-311v100h311v-100zM300 -6c-164 0 -271 105 -271 263s107 263 271 263s271 -105 271 -263c0 -159 -107 -263 -271 -263zM300 109c79 0 128 61 128 148s-49 148 -128 148s-127 -61 -127 -148s48 -148 127 -148z" />
    <glyph glyph-name="oslash" unicode="&#xf8;" 
d="M569 455l-43 -42c29 -42 45 -96 45 -157c0 -157 -107 -262 -272 -262c-63 0 -117 15 -160 43l-44 -43l-65 65l44 42c-29 42 -45 95 -45 155c-1 159 106 264 270 264c63 0 118 -15 161 -43l45 43zM167 256c0 -20 3 -39 8 -57l195 190c-19 13 -43 20 -71 20
c-82 0 -132 -64 -132 -153zM299 105c82 0 133 62 133 151c0 21 -3 40 -8 58l-195 -190c19 -12 43 -19 70 -19z" />
    <glyph glyph-name="otilde" unicode="&#xf5;" 
d="M259 622c-21 0 -33 -18 -33 -39h-84v20c0 61 40 108 96 108c58 0 67 -42 104 -42c20 0 32 17 32 39h84v-21c0 -61 -41 -108 -96 -108c-59 0 -70 43 -103 43zM300 -6c-164 0 -271 105 -271 263s107 263 271 263s271 -105 271 -263c0 -159 -107 -263 -271 -263zM300 109
c79 0 128 61 128 148s-49 148 -128 148s-127 -61 -127 -148s48 -148 127 -148z" />
    <glyph glyph-name="oe" unicode="&#x153;" horiz-adv-x="966" 
d="M933 225h-373v-4c7 -74 48 -120 122 -120c56 0 96 25 108 73h140c-16 -100 -103 -180 -238 -180c-88 0 -157 29 -202 79c-45 -50 -111 -79 -191 -79c-164 0 -270 104 -270 263s106 263 270 263c82 0 149 -29 194 -79c42 51 104 79 179 79c158 0 264 -96 265 -247
c0 -15 -1 -32 -4 -48zM678 415c-60 0 -107 -37 -115 -98h232c-9 63 -53 98 -117 98zM299 109c79 0 128 60 128 147c0 88 -49 149 -128 149s-126 -61 -126 -148c0 -88 47 -148 126 -148z" />
    <glyph glyph-name="p" unicode="p" horiz-adv-x="612" 
d="M344 520c139 1 239 -102 239 -264c0 -160 -100 -262 -238 -262c-71 0 -122 29 -155 71v-265h-141v714h123l14 -71c33 44 85 77 158 77zM313 109c77 0 127 61 127 149c0 87 -50 147 -127 147s-125 -60 -125 -147c0 -88 48 -149 125 -149z" />
    <glyph glyph-name="thorn" unicode="&#xfe;" horiz-adv-x="612" 
d="M49 -200v900h136v-258c33 44 84 78 159 78c139 1 239 -102 239 -264c0 -160 -100 -262 -238 -262c-72 0 -123 29 -155 72v-266h-141zM440 258c0 87 -50 147 -127 147s-125 -60 -125 -147c0 -88 48 -149 125 -149s127 61 127 149z" />
    <glyph glyph-name="q" unicode="q" horiz-adv-x="612" 
d="M426 445l14 69h123v-714h-141v266c-34 -42 -84 -72 -155 -72c-137 0 -238 99 -238 262c0 159 101 265 239 264c73 0 125 -31 158 -75zM299 109c77 0 125 61 125 148c0 88 -48 148 -125 148s-126 -60 -126 -147c0 -88 49 -149 126 -149z" />
    <glyph glyph-name="r" unicode="r" horiz-adv-x="376" 
d="M338 514h24v-128h-56c-84 0 -116 -56 -116 -134v-252h-141v514h128l13 -77c28 46 68 77 148 77z" />
    <glyph glyph-name="racute" unicode="&#x155;" horiz-adv-x="376" 
d="M235 710h161l-131 -141h-103zM177 514l13 -77c28 46 68 77 148 77h24v-128h-56c-84 0 -116 -56 -116 -134v-252h-141v514h128z" />
    <glyph glyph-name="rcaron" unicode="&#x159;" horiz-adv-x="376" 
d="M402 710l-128 -142h-126l-128 142h130l61 -59l62 59h129zM177 514l13 -77c28 46 68 77 148 77h24v-128h-56c-84 0 -116 -56 -116 -134v-252h-141v514h128z" />
    <glyph glyph-name="uni0157" unicode="&#x157;" horiz-adv-x="376" 
d="M338 514h24v-128h-56c-84 0 -116 -56 -116 -134v-252h-141v514h128l13 -77c28 46 68 77 148 77zM100 -195h-105l52 147h138z" />
    <glyph glyph-name="s" unicode="s" horiz-adv-x="530" 
d="M25 171h134c5 -45 44 -76 113 -76c59 0 95 19 95 55c0 42 -35 45 -118 56c-120 14 -213 41 -213 147c0 102 89 169 221 168c138 0 233 -61 240 -166h-135c-4 41 -43 66 -100 66c-55 0 -91 -20 -91 -53c0 -39 44 -43 118 -52c118 -12 216 -39 216 -155
c0 -102 -96 -167 -234 -167c-143 0 -240 67 -246 177z" />
    <glyph glyph-name="sacute" unicode="&#x15b;" horiz-adv-x="530" 
d="M311 569h-103l73 141h161zM25 171h134c5 -45 44 -76 113 -76c59 0 95 19 95 55c0 42 -35 45 -118 56c-120 14 -213 41 -213 147c0 102 89 169 221 168c138 0 233 -61 240 -166h-135c-4 41 -43 66 -100 66c-55 0 -91 -20 -91 -53c0 -39 44 -43 118 -52
c118 -12 216 -39 216 -155c0 -102 -96 -167 -234 -167c-143 0 -240 67 -246 177z" />
    <glyph glyph-name="scaron" unicode="&#x161;" horiz-adv-x="530" 
d="M196 710l61 -59l62 59h129l-128 -142h-126l-128 142h130zM25 171h134c5 -45 44 -76 113 -76c59 0 95 19 95 55c0 42 -35 45 -118 56c-120 14 -213 41 -213 147c0 102 89 169 221 168c138 0 233 -61 240 -166h-135c-4 41 -43 66 -100 66c-55 0 -91 -20 -91 -53
c0 -39 44 -43 118 -52c118 -12 216 -39 216 -155c0 -102 -96 -167 -234 -167c-143 0 -240 67 -246 177z" />
    <glyph glyph-name="scedilla" unicode="&#x15f;" horiz-adv-x="530" 
d="M505 161c0 -93 -80 -156 -200 -166l-7 -26h11c58 0 96 -28 96 -77c0 -57 -43 -93 -109 -93h-119v69h93c17 0 28 8 28 25c0 15 -11 22 -28 22h-61l20 81c-120 12 -199 76 -204 175h134c5 -45 44 -76 113 -76c59 0 95 19 95 55c0 42 -35 45 -118 56
c-120 14 -213 41 -213 147c0 102 89 169 221 168c138 0 233 -61 240 -166h-135c-4 41 -43 66 -100 66c-55 0 -91 -20 -91 -53c0 -39 44 -43 118 -52c118 -12 216 -39 216 -155z" />
    <glyph glyph-name="scircumflex" unicode="&#x15d;" horiz-adv-x="530" 
d="M318 568l-61 59l-62 -59h-129l128 142h126l128 -142h-130zM25 171h134c5 -45 44 -76 113 -76c59 0 95 19 95 55c0 42 -35 45 -118 56c-120 14 -213 41 -213 147c0 102 89 169 221 168c138 0 233 -61 240 -166h-135c-4 41 -43 66 -100 66c-55 0 -91 -20 -91 -53
c0 -39 44 -43 118 -52c118 -12 216 -39 216 -155c0 -102 -96 -167 -234 -167c-143 0 -240 67 -246 177z" />
    <glyph glyph-name="uni0219" unicode="&#x219;" horiz-adv-x="530" 
d="M25 171h134c5 -45 44 -76 113 -76c59 0 95 19 95 55c0 42 -35 45 -118 56c-120 14 -213 41 -213 147c0 102 89 169 221 168c138 0 233 -61 240 -166h-135c-4 41 -43 66 -100 66c-55 0 -91 -20 -91 -53c0 -39 44 -43 118 -52c118 -12 216 -39 216 -155
c0 -102 -96 -167 -234 -167c-143 0 -240 67 -246 177zM145 -196l52 147h138l-85 -147h-105z" />
    <glyph glyph-name="germandbls" unicode="&#xdf;" horiz-adv-x="623" 
d="M367 -6c-41 1 -75 6 -108 17v104c34 -12 60 -14 86 -14c64 0 112 36 112 98c0 67 -56 102 -138 102c-10 0 -20 -1 -31 -2v105c88 0 120 48 120 98c0 55 -37 91 -101 91c-65 0 -106 -43 -106 -107v-486h-141v479c0 158 114 227 248 227c145 0 243 -73 243 -187
c-1 -72 -41 -127 -96 -150c88 -21 144 -76 144 -172c0 -130 -102 -202 -232 -203z" />
    <glyph glyph-name="t" unicode="t" horiz-adv-x="364" 
d="M86 147v248h-85v119h85v144h141v-144h118v-119h-118v-225c0 -36 14 -51 51 -51h70v-119h-115c-98 0 -147 49 -147 147z" />
    <glyph glyph-name="t.ss05" horiz-adv-x="321" 
d="M41 147v511h141v-144h117v-119h-117v-225c0 -36 14 -51 50 -51h73v-119h-117c-98 0 -147 49 -147 147z" />
    <glyph glyph-name="t.ss06" horiz-adv-x="348" 
d="M1 395v119h85v144h141v-144h111v-119h-111v-395h-141v395h-85z" />
    <glyph glyph-name="tbar" unicode="&#x167;" horiz-adv-x="376" 
d="M281 119h70v-119h-115c-98 0 -147 49 -147 147v73h-85v103h85v72h-85v119h85v144h141v-144h117v-119h-117v-72h117v-103h-117v-50c0 -36 14 -51 51 -51z" />
    <glyph glyph-name="tbar.ss05" horiz-adv-x="321" 
d="M299 514v-119h-117v-72h117v-103h-117v-50c0 -36 14 -51 50 -51h73v-119h-117c-98 0 -147 49 -147 147v511h141v-144h117z" />
    <glyph glyph-name="tbar.ss06" horiz-adv-x="367" 
d="M346 514v-119h-113v-83h113v-102h-113v-210h-142v210h-87v102h87v83h-87v119h87v144h142v-144h113z" />
    <glyph glyph-name="tcaron" unicode="&#x165;" horiz-adv-x="364" 
d="M263 557l35 148h132l-68 -148h-99zM86 147v248h-85v119h85v144h141v-144h118v-119h-118v-225c0 -36 14 -51 51 -51h70v-119h-115c-98 0 -147 49 -147 147z" />
    <glyph glyph-name="tcaron.ss05" horiz-adv-x="321" 
d="M218 557l35 148h132l-68 -148h-99zM41 147v511h141v-144h117v-119h-117v-225c0 -36 14 -51 50 -51h73v-119h-117c-98 0 -147 49 -147 147z" />
    <glyph glyph-name="tcaron.ss06" horiz-adv-x="348" 
d="M266 557l35 148h132l-68 -148h-99zM1 395v119h85v144h141v-144h111v-119h-111v-395h-141v395h-85z" />
    <glyph glyph-name="uni0163" unicode="&#x163;" horiz-adv-x="364" 
d="M249 -30h11c58 0 96 -28 96 -77c0 -57 -43 -93 -109 -93h-119v69h93c17 0 28 8 28 25c0 15 -11 22 -28 22h-61l22 89c-64 15 -96 63 -96 142v248h-85v119h85v144h141v-144h118v-119h-118v-225c0 -36 14 -51 51 -51h70v-119h-91z" />
    <glyph glyph-name="uni0163.ss05" horiz-adv-x="321" 
d="M204 -30h11c58 0 96 -28 96 -77c0 -57 -43 -93 -109 -93h-119v69h93c17 0 28 8 28 25c0 15 -11 22 -28 22h-61l22 89c-64 15 -96 63 -96 142v511h141v-144h117v-119h-117v-225c0 -36 14 -51 50 -51h73v-119h-93z" />
    <glyph glyph-name="uni0163.ss06" horiz-adv-x="348" 
d="M227 395v-395h-32l-8 -30h11c58 0 96 -28 96 -77c0 -57 -43 -93 -109 -93h-119v69h93c17 0 28 8 28 25c0 15 -11 22 -28 22h-61l21 84h-33v395h-85v119h85v144h141v-144h111v-119h-111z" />
    <glyph glyph-name="uni021B" unicode="&#x21b;" horiz-adv-x="364" 
d="M86 147v248h-85v119h85v144h141v-144h118v-119h-118v-225c0 -36 14 -51 51 -51h70v-119h-115c-98 0 -147 49 -147 147zM96 -195l52 147h138l-85 -147h-105z" />
    <glyph glyph-name="uni021B.ss05" horiz-adv-x="321" 
d="M41 147v511h141v-144h117v-119h-117v-225c0 -36 14 -51 50 -51h73v-119h-117c-98 0 -147 49 -147 147zM51 -195l52 147h138l-85 -147h-105z" />
    <glyph glyph-name="uni021B.ss06" horiz-adv-x="348" 
d="M1 395v119h85v144h141v-144h111v-119h-111v-395h-141v395h-85zM34 -195l52 147h138l-85 -147h-105z" />
    <glyph glyph-name="u" unicode="u" horiz-adv-x="582" 
d="M392 257v257h141v-514h-125l-13 62c-33 -40 -78 -68 -151 -68c-106 0 -204 53 -204 235v285h141v-266c0 -92 30 -137 100 -137s111 51 111 146z" />
    <glyph glyph-name="uacute" unicode="&#xfa;" horiz-adv-x="582" 
d="M311 710h161l-131 -141h-103zM392 257v257h141v-514h-125l-13 62c-33 -40 -78 -68 -151 -68c-106 0 -204 53 -204 235v285h141v-266c0 -92 30 -137 100 -137s111 51 111 146z" />
    <glyph glyph-name="ubreve" unicode="&#x16d;" horiz-adv-x="582" 
d="M284 563c-89 0 -149 59 -153 147h101c0 -34 21 -56 55 -56c32 0 55 22 55 56h101c-4 -88 -67 -147 -159 -147zM392 257v257h141v-514h-125l-13 62c-33 -40 -78 -68 -151 -68c-106 0 -204 53 -204 235v285h141v-266c0 -92 30 -137 100 -137s111 51 111 146z" />
    <glyph glyph-name="ucircumflex" unicode="&#xfb;" horiz-adv-x="582" 
d="M348 568l-61 59l-62 -59h-129l128 142h126l128 -142h-130zM392 257v257h141v-514h-125l-13 62c-33 -40 -78 -68 -151 -68c-106 0 -204 53 -204 235v285h141v-266c0 -92 30 -137 100 -137s111 51 111 146z" />
    <glyph glyph-name="udieresis" unicode="&#xfc;" horiz-adv-x="582" 
d="M183 576c-42 0 -75 32 -75 73c0 42 33 73 75 73c43 0 76 -31 76 -73c0 -41 -33 -73 -76 -73zM391 576c-42 0 -75 32 -75 73c0 42 33 73 75 73c43 0 75 -31 75 -73c0 -41 -32 -73 -75 -73zM392 257v257h141v-514h-125l-13 62c-33 -40 -78 -68 -151 -68
c-106 0 -204 53 -204 235v285h141v-266c0 -92 30 -137 100 -137s111 51 111 146z" />
    <glyph glyph-name="ugrave" unicode="&#xf9;" horiz-adv-x="582" 
d="M267 710l70 -144h-106l-125 144h161zM392 257v257h141v-514h-125l-13 62c-33 -40 -78 -68 -151 -68c-106 0 -204 53 -204 235v285h141v-266c0 -92 30 -137 100 -137s111 51 111 146z" />
    <glyph glyph-name="uhungarumlaut" unicode="&#x171;" horiz-adv-x="582" 
d="M200 710h154l-131 -144h-96zM553 710l-130 -144h-97l74 144h153zM392 257v257h141v-514h-125l-13 62c-33 -40 -78 -68 -151 -68c-106 0 -204 53 -204 235v285h141v-266c0 -92 30 -137 100 -137s111 51 111 146z" />
    <glyph glyph-name="umacron" unicode="&#x16b;" horiz-adv-x="582" 
d="M132 699h311v-100h-311v100zM392 257v257h141v-514h-125l-13 62c-33 -40 -78 -68 -151 -68c-106 0 -204 53 -204 235v285h141v-266c0 -92 30 -137 100 -137s111 51 111 146z" />
    <glyph glyph-name="uogonek" unicode="&#x173;" horiz-adv-x="582" 
d="M471 -106h64v-94h-90c-67 0 -119 37 -119 97c0 52 34 89 79 120l-10 45c-33 -40 -78 -68 -151 -68c-106 0 -204 53 -204 235v285h141v-266c0 -92 30 -137 100 -137s111 51 111 146v257h141v-514c-60 -27 -95 -52 -95 -80c0 -17 12 -26 33 -26z" />
    <glyph glyph-name="uring" unicode="&#x16f;" horiz-adv-x="582" 
d="M287 553c-73 0 -130 53 -130 121c0 67 57 121 130 121s130 -54 130 -121c0 -68 -57 -121 -130 -121zM287 732c-33 0 -58 -25 -58 -58c0 -34 25 -59 58 -59s58 25 58 59c0 33 -25 58 -58 58zM392 257v257h141v-514h-125l-13 62c-33 -40 -78 -68 -151 -68
c-106 0 -204 53 -204 235v285h141v-266c0 -92 30 -137 100 -137s111 51 111 146z" />
    <glyph glyph-name="utilde" unicode="&#x169;" horiz-adv-x="582" 
d="M246 622c-21 0 -33 -18 -33 -39h-84v20c0 61 40 108 96 108c58 0 67 -42 104 -42c20 0 32 17 32 39h84v-21c0 -61 -41 -108 -96 -108c-59 0 -70 43 -103 43zM392 257v257h141v-514h-125l-13 62c-33 -40 -78 -68 -151 -68c-106 0 -204 53 -204 235v285h141v-266
c0 -92 30 -137 100 -137s111 51 111 146z" />
    <glyph glyph-name="v" unicode="v" horiz-adv-x="542" 
d="M184 0l-185 514h151l124 -370l122 370h148l-185 -514h-175z" />
    <glyph glyph-name="w" unicode="w" horiz-adv-x="819" 
d="M168 0l-168 514h149l103 -362l97 362h127l94 -363l105 363h144l-169 -514h-150l-90 310l-92 -310h-150z" />
    <glyph glyph-name="wacute" unicode="&#x1e83;" horiz-adv-x="819" 
d="M466 569h-103l73 141h161zM168 0l-168 514h149l103 -362l97 362h127l94 -363l105 363h144l-169 -514h-150l-90 310l-92 -310h-150z" />
    <glyph glyph-name="wcircumflex" unicode="&#x175;" horiz-adv-x="819" 
d="M473 568l-61 59l-62 -59h-129l128 142h126l128 -142h-130zM168 0l-168 514h149l103 -362l97 362h127l94 -363l105 363h144l-169 -514h-150l-90 310l-92 -310h-150z" />
    <glyph glyph-name="wdieresis" unicode="&#x1e85;" horiz-adv-x="819" 
d="M233 649c0 42 33 73 75 73c43 0 76 -31 76 -73c0 -41 -33 -73 -76 -73c-42 0 -75 32 -75 73zM441 649c0 42 33 73 75 73c43 0 75 -31 75 -73c0 -41 -32 -73 -75 -73c-42 0 -75 32 -75 73zM168 0l-168 514h149l103 -362l97 362h127l94 -363l105 363h144l-169 -514h-150
l-90 310l-92 -310h-150z" />
    <glyph glyph-name="wgrave" unicode="&#x1e81;" horiz-adv-x="819" 
d="M356 566l-125 144h161l70 -144h-106zM168 0l-168 514h149l103 -362l97 362h127l94 -363l105 363h144l-169 -514h-150l-90 310l-92 -310h-150z" />
    <glyph glyph-name="x" unicode="x" horiz-adv-x="540" 
d="M-3 0l191 262l-182 252h161l106 -152l109 152h152l-181 -252l191 -262h-161l-118 161l-117 -161h-151z" />
    <glyph glyph-name="y" unicode="y" horiz-adv-x="546" 
d="M197 -3l-198 517h150l125 -366l122 366h151l-228 -587c-32 -85 -58 -127 -138 -127h-137v119h78c36 0 48 9 62 44z" />
    <glyph glyph-name="y.ss01" horiz-adv-x="582" 
d="M392 263v251h141v-504c0 -121 -73 -216 -258 -216c-136 0 -229 61 -235 179h142c12 -48 46 -72 105 -72c67 0 108 38 108 109v64c-34 -43 -76 -74 -150 -74c-106 0 -204 50 -204 236v278h141v-261c0 -90 31 -135 100 -135s110 51 110 145z" />
    <glyph glyph-name="yacute" unicode="&#xfd;" horiz-adv-x="546" 
d="M325 569h-103l73 141h161zM197 -3l-198 517h150l125 -366l122 366h151l-228 -587c-32 -85 -58 -127 -138 -127h-137v119h78c36 0 48 9 62 44z" />
    <glyph glyph-name="yacute.ss01" horiz-adv-x="582" 
d="M311 710h161l-131 -141h-103zM392 263v251h141v-504c0 -121 -73 -216 -258 -216c-136 0 -229 61 -235 179h142c12 -48 46 -72 105 -72c67 0 108 38 108 109v64c-34 -43 -76 -74 -150 -74c-106 0 -204 50 -204 236v278h141v-261c0 -90 31 -135 100 -135s110 51 110 145z
" />
    <glyph glyph-name="ycircumflex" unicode="&#x177;" horiz-adv-x="546" 
d="M332 568l-61 59l-62 -59h-129l128 142h126l128 -142h-130zM197 -3l-198 517h150l125 -366l122 366h151l-228 -587c-32 -85 -58 -127 -138 -127h-137v119h78c36 0 48 9 62 44z" />
    <glyph glyph-name="ycircumflex.ss01" horiz-adv-x="582" 
d="M348 568l-61 59l-62 -59h-129l128 142h126l128 -142h-130zM392 263v251h141v-504c0 -121 -73 -216 -258 -216c-136 0 -229 61 -235 179h142c12 -48 46 -72 105 -72c67 0 108 38 108 109v64c-34 -43 -76 -74 -150 -74c-106 0 -204 50 -204 236v278h141v-261
c0 -90 31 -135 100 -135s110 51 110 145z" />
    <glyph glyph-name="ydieresis" unicode="&#xff;" horiz-adv-x="546" 
d="M92 649c0 42 33 73 75 73c43 0 76 -31 76 -73c0 -41 -33 -73 -76 -73c-42 0 -75 32 -75 73zM300 649c0 42 33 73 75 73c43 0 75 -31 75 -73c0 -41 -32 -73 -75 -73c-42 0 -75 32 -75 73zM197 -3l-198 517h150l125 -366l122 366h151l-228 -587c-32 -85 -58 -127 -138 -127
h-137v119h78c36 0 48 9 62 44z" />
    <glyph glyph-name="ydieresis.ss01" horiz-adv-x="582" 
d="M183 576c-42 0 -75 32 -75 73c0 42 33 73 75 73c43 0 76 -31 76 -73c0 -41 -33 -73 -76 -73zM391 576c-42 0 -75 32 -75 73c0 42 33 73 75 73c43 0 75 -31 75 -73c0 -41 -32 -73 -75 -73zM392 263v251h141v-504c0 -121 -73 -216 -258 -216c-136 0 -229 61 -235 179h142
c12 -48 46 -72 105 -72c67 0 108 38 108 109v64c-34 -43 -76 -74 -150 -74c-106 0 -204 50 -204 236v278h141v-261c0 -90 31 -135 100 -135s110 51 110 145z" />
    <glyph glyph-name="ygrave" unicode="&#x1ef3;" horiz-adv-x="546" 
d="M215 566l-125 144h161l70 -144h-106zM197 -3l-198 517h150l125 -366l122 366h151l-228 -587c-32 -85 -58 -127 -138 -127h-137v119h78c36 0 48 9 62 44z" />
    <glyph glyph-name="ygrave.ss01" horiz-adv-x="582" 
d="M267 710l70 -144h-106l-125 144h161zM392 263v251h141v-504c0 -121 -73 -216 -258 -216c-136 0 -229 61 -235 179h142c12 -48 46 -72 105 -72c67 0 108 38 108 109v64c-34 -43 -76 -74 -150 -74c-106 0 -204 50 -204 236v278h141v-261c0 -90 31 -135 100 -135
s110 51 110 145z" />
    <glyph glyph-name="z" unicode="z" horiz-adv-x="503" 
d="M34 395v119h435v-96l-257 -299h269v-119h-459v96l257 299h-245z" />
    <glyph glyph-name="zacute" unicode="&#x17a;" horiz-adv-x="503" 
d="M304 569h-103l73 141h161zM34 395v119h435v-96l-257 -299h269v-119h-459v96l257 299h-245z" />
    <glyph glyph-name="zcaron" unicode="&#x17e;" horiz-adv-x="503" 
d="M189 710l61 -59l62 59h129l-128 -142h-126l-128 142h130zM34 395v119h435v-96l-257 -299h269v-119h-459v96l257 299h-245z" />
    <glyph glyph-name="zdotaccent" unicode="&#x17c;" horiz-adv-x="503" 
d="M250 569c-46 0 -82 34 -82 79c0 46 36 80 82 80s82 -34 82 -80c0 -45 -36 -79 -82 -79zM34 395v119h435v-96l-257 -299h269v-119h-459v96l257 299h-245z" />
    <glyph glyph-name="d_f.dlig" horiz-adv-x="936" 
d="M422 450v250h141v-700h-123l-14 71c-34 -44 -84 -77 -158 -77c-138 0 -239 101 -239 264c0 159 101 262 238 262c71 0 122 -28 155 -70zM931 580h-89c-29 0 -43 -13 -43 -42v-24h132v-119h-129v-395h-141v552c0 96 51 148 155 148h115v-120zM299 109c77 0 125 60 125 147
c0 88 -48 149 -125 149s-126 -60 -126 -148s49 -148 126 -148z" />
    <glyph glyph-name="d_f_f.dlig" horiz-adv-x="1260" 
d="M422 450v250h141v-700h-123l-14 71c-34 -44 -84 -77 -158 -77c-138 0 -239 101 -239 264c0 159 101 262 238 262c71 0 122 -28 155 -70zM661 0v552c0 96 51 148 155 148h115v-120h-89c-29 0 -43 -13 -43 -42v-24h132v-119h-129v-395h-141zM1255 580h-89
c-29 0 -43 -13 -43 -42v-24h132v-119h-129v-395h-141v552c0 96 51 148 155 148h115v-120zM299 109c77 0 125 60 125 147c0 88 -48 149 -125 149s-126 -60 -126 -148s49 -148 126 -148z" />
    <glyph glyph-name="d_t.dlig" horiz-adv-x="933" 
d="M422 450v250h141v-700h-123l-14 71c-34 -44 -84 -77 -158 -77c-138 0 -239 101 -239 264c0 159 101 262 238 262c71 0 122 -28 155 -70zM844 119h73v-119h-117c-98 0 -147 49 -147 147v511h141v-144h117v-119h-117v-225c0 -36 14 -51 50 -51zM299 109
c77 0 125 60 125 147c0 88 -48 149 -125 149s-126 -60 -126 -148s49 -148 126 -148z" />
    <glyph glyph-name="f_f.dlig" horiz-adv-x="684" 
d="M1 395v119h85v38c0 95 51 148 155 148h115v-120h-90c-28 0 -42 -13 -42 -42v-24h132v-119h-129v-395h-141v395h-85zM409 0v552c0 96 51 148 155 148h115v-120h-89c-29 0 -43 -13 -43 -42v-24h132v-119h-129v-395h-141z" />
    <glyph glyph-name="f_f_t.dlig" horiz-adv-x="1005" 
d="M1 395v119h85v38c0 95 51 148 155 148h115v-120h-90c-28 0 -42 -13 -42 -42v-24h132v-119h-129v-395h-141v395h-85zM409 0v552c0 96 51 148 155 148h115v-120h-89c-29 0 -43 -13 -43 -42v-24h132v-119h-129v-395h-141zM725 147v511h141v-144h117v-119h-117v-225
c0 -36 14 -51 50 -51h73v-119h-117c-98 0 -147 49 -147 147z" />
    <glyph glyph-name="f_t.dlig" horiz-adv-x="681" 
d="M1 395v119h85v38c0 95 51 148 155 148h115v-120h-90c-28 0 -42 -13 -42 -42v-24h132v-119h-129v-395h-141v395h-85zM401 147v511h141v-144h117v-119h-117v-225c0 -36 14 -51 50 -51h73v-119h-117c-98 0 -147 49 -147 147z" />
    <glyph glyph-name="fl" unicode="&#xfb02;" horiz-adv-x="599" 
d="M1 395v119h85v38c0 95 51 148 155 148h115v-120h-90c-28 0 -42 -13 -42 -42v-24h132v-119h-129v-395h-141v395h-85zM409 0v700h141v-700h-141z" />
    <glyph glyph-name="k_f.dlig" horiz-adv-x="880" 
d="M49 0v700h141v-404l201 218h159l-185 -202l195 -312h-163l-130 208l-77 -83v-125h-141zM605 0v552c0 96 51 148 155 148h115v-120h-89c-29 0 -43 -13 -43 -42v-24h132v-119h-129v-395h-141z" />
    <glyph glyph-name="k_t.dlig" horiz-adv-x="869" 
d="M49 0v700h141v-404l201 218h159l-185 -202l195 -312h-163l-130 208l-77 -83v-125h-141zM588 147v511h141v-144h117v-119h-117v-225c0 -36 14 -51 50 -51h73v-119h-117c-98 0 -147 49 -147 147z" />
    <glyph glyph-name="l_f.dlig" horiz-adv-x="562" 
d="M49 0v700h141v-700h-141zM288 0v552c0 96 51 148 155 148h115v-120h-89c-29 0 -43 -13 -43 -42v-24h132v-119h-129v-395h-141z" />
    <glyph glyph-name="l_f_f.dlig" horiz-adv-x="886" 
d="M49 0v700h141v-700h-141zM288 0v552c0 96 51 148 155 148h115v-120h-89c-29 0 -43 -13 -43 -42v-24h132v-119h-129v-395h-141zM611 0v552c0 96 51 148 155 148h115v-120h-89c-29 0 -43 -13 -43 -42v-24h132v-119h-129v-395h-141z" />
    <glyph glyph-name="l_t.dlig" horiz-adv-x="560" 
d="M49 0v700h141v-700h-141zM280 147v511h141v-144h117v-119h-117v-225c0 -36 14 -51 50 -51h73v-119h-117c-98 0 -147 49 -147 147z" />
    <glyph glyph-name="l_t_t.dlig" horiz-adv-x="881" 
d="M49 0v700h141v-700h-141zM280 147v511h141v-144h117v-119h-117v-225c0 -36 14 -51 50 -51h73v-119h-117c-98 0 -147 49 -147 147zM601 147v511h141v-144h117v-119h-117v-225c0 -36 14 -51 50 -51h73v-119h-117c-98 0 -147 49 -147 147z" />
    <glyph glyph-name="r_f.dlig" horiz-adv-x="700" 
d="M695 580h-89c-29 0 -43 -13 -43 -42v-24h132v-119h-129v-395h-141v552c0 96 51 148 155 148h115v-120zM177 514l13 -77c28 46 68 77 148 77h24v-128h-56c-84 0 -116 -56 -116 -134v-252h-141v514h128z" />
    <glyph glyph-name="r_t.dlig" horiz-adv-x="697" 
d="M608 119h73v-119h-117c-98 0 -147 49 -147 147v511h141v-144h117v-119h-117v-225c0 -36 14 -51 50 -51zM177 514l13 -77c28 46 68 77 148 77h24v-128h-56c-84 0 -116 -56 -116 -134v-252h-141v514h128z" />
    <glyph glyph-name="t_t.dlig" horiz-adv-x="685" 
d="M86 147v248h-85v119h85v144h141v-144h118v-119h-118v-225c0 -36 14 -51 51 -51h70v-119h-115c-98 0 -147 49 -147 147zM405 147v511h141v-144h117v-119h-117v-225c0 -36 14 -51 50 -51h73v-119h-117c-98 0 -147 49 -147 147z" />
    <glyph glyph-name="v_f.dlig" horiz-adv-x="866" 
d="M591 0v552c0 96 51 148 155 148h115v-120h-89c-29 0 -43 -13 -43 -42v-24h132v-119h-129v-395h-141zM184 0l-185 514h151l124 -370l122 370h148l-185 -514h-175z" />
    <glyph glyph-name="v_t.dlig" horiz-adv-x="863" 
d="M583 147v511h141v-144h117v-119h-117v-225c0 -36 14 -51 50 -51h73v-119h-117c-98 0 -147 49 -147 147zM184 0l-185 514h151l124 -370l122 370h148l-185 -514h-175z" />
    <glyph glyph-name="w_f.dlig" horiz-adv-x="1143" 
d="M868 0v552c0 96 51 148 155 148h115v-120h-89c-29 0 -43 -13 -43 -42v-24h132v-119h-129v-395h-141zM168 0l-168 514h149l103 -362l97 362h127l94 -363l105 363h144l-169 -514h-150l-90 310l-92 -310h-150z" />
    <glyph glyph-name="w_t.dlig" horiz-adv-x="1140" 
d="M860 147v511h141v-144h117v-119h-117v-225c0 -36 14 -51 50 -51h73v-119h-117c-98 0 -147 49 -147 147zM168 0l-168 514h149l103 -362l97 362h127l94 -363l105 363h144l-169 -514h-150l-90 310l-92 -310h-150z" />
    <glyph glyph-name="w_w_w.dlig" horiz-adv-x="2172" 
d="M1923 151l106 363h144l-170 -514h-149l-90 310l-92 -310h-151l-97 296l-97 -296h-150l-90 310l-92 -310h-151l-97 296l-97 -296h-150l-90 310l-92 -310h-150l-168 514h149l103 -362l97 362h127l94 -363l105 363h150l104 -362l97 362h126l94 -363l106 363h150l104 -362
l97 362h126z" />
    <glyph glyph-name="y_f.dlig" horiz-adv-x="869" 
d="M595 0v552c0 96 51 148 155 148h115v-120h-89c-29 0 -43 -13 -43 -42v-24h132v-119h-129v-395h-141zM197 -3l-198 517h150l125 -366l122 366h151l-228 -587c-32 -85 -58 -127 -138 -127h-137v119h78c36 0 48 9 62 44z" />
    <glyph glyph-name="y_t.dlig" horiz-adv-x="867" 
d="M587 147v511h141v-144h117v-119h-117v-225c0 -36 14 -51 50 -51h73v-119h-117c-98 0 -147 49 -147 147zM197 -3l-198 517h150l125 -366l122 366h151l-228 -587c-32 -85 -58 -127 -138 -127h-137v119h78c36 0 48 9 62 44z" />
    <glyph glyph-name="ordfeminine" unicode="&#xaa;" horiz-adv-x="424" 
d="M47 471c0 66 53 104 153 104h59v15c0 28 -21 46 -57 46c-29 0 -49 -16 -52 -39h-96c5 70 65 109 152 109c93 0 148 -41 148 -121v-107c0 -17 7 -22 22 -22h9v-72h-46c-45 0 -63 21 -63 50v5c-20 -38 -54 -59 -107 -59c-69 0 -122 31 -122 91zM259 515v3h-62
c-33 0 -53 -16 -53 -40c0 -21 17 -33 45 -33c43 0 70 30 70 70zM45 241v79h340v-79h-340z" />
    <glyph glyph-name="ordmasculine" unicode="&#xba;" horiz-adv-x="425" 
d="M381 543c0 -98 -66 -163 -169 -163c-102 0 -168 65 -168 163s66 163 168 163c103 0 169 -65 169 -163zM143 543c0 -52 26 -87 69 -87s71 35 71 87s-27 87 -71 87c-43 0 -69 -35 -69 -87zM45 241v79h336v-79h-336z" />
    <glyph glyph-name="uni0410" unicode="&#x410;" horiz-adv-x="698" 
d="M159 0h-155l256 700h180l254 -700h-161l-54 153h-266zM345 540l-92 -266h185z" />
    <glyph glyph-name="uni0411" unicode="&#x411;" horiz-adv-x="614" 
d="M349 0h-289v700h471v-125h-321v-147h139c145 0 245 -67 245 -212c0 -143 -100 -216 -245 -216zM210 305v-181h126c66 0 105 34 105 90s-39 91 -106 91h-125z" />
    <glyph glyph-name="uni0412" unicode="&#x412;" horiz-adv-x="637" 
d="M60 0v700h266c162 0 256 -68 256 -185c0 -88 -52 -138 -132 -155c93 -12 157 -61 157 -161c0 -122 -96 -199 -268 -199h-279zM330 582h-120v-170h120c64 0 102 33 102 85s-37 85 -102 85zM340 296h-130v-177h130c72 0 113 33 113 87c0 57 -42 90 -113 90z" />
    <glyph glyph-name="uni0413" unicode="&#x413;" horiz-adv-x="514" 
d="M210 0h-150v700h434v-129h-284v-571z" />
    <glyph glyph-name="uni0403" unicode="&#x403;" horiz-adv-x="514" 
d="M344 755h-103l73 141h161zM210 0h-150v700h434v-129h-284v-571z" />
    <glyph glyph-name="uni0490" unicode="&#x490;" horiz-adv-x="537" 
d="M372 700v141h145v-270h-307v-571h-150v700h312z" />
    <glyph glyph-name="uni0414" unicode="&#x414;" horiz-adv-x="784" 
d="M678 700v-571h89v-272h-145v143h-464v-143h-145v272h63c44 33 69 96 69 282v289h533zM237 129h291v444h-242v-181c0 -138 -14 -211 -49 -263z" />
    <glyph glyph-name="uni0415" unicode="&#x415;" horiz-adv-x="571" 
d="M60 0v700h470v-129h-320v-157h260v-123h-260v-162h331v-129h-481z" />
    <glyph glyph-name="uni0400" unicode="&#x400;" horiz-adv-x="571" 
d="M246 752l-125 144h161l70 -144h-106zM60 0v700h470v-129h-320v-157h260v-123h-260v-162h331v-129h-481z" />
    <glyph glyph-name="uni0401" unicode="&#x401;" horiz-adv-x="571" 
d="M123 835c0 42 33 73 75 73c43 0 76 -31 76 -73c0 -41 -33 -73 -76 -73c-42 0 -75 32 -75 73zM331 835c0 42 33 73 75 73c43 0 75 -31 75 -73c0 -41 -32 -73 -75 -73c-42 0 -75 32 -75 73zM60 0v700h470v-129h-320v-157h260v-123h-260v-162h331v-129h-481z" />
    <glyph glyph-name="uni0416" unicode="&#x416;" horiz-adv-x="1042" 
d="M185 0h-175l237 365l-224 335h165l182 -281h76v281h150v-281h76l182 281h165l-223 -335l236 -365h-175l-182 290h-79v-290h-150v290h-79z" />
    <glyph glyph-name="uni0417" unicode="&#x417;" horiz-adv-x="619" 
d="M309 -6c-178 0 -274 78 -282 231h147c8 -77 56 -112 139 -112c74 0 123 34 123 95c0 59 -40 87 -124 87h-81v117h72c81 0 119 33 119 89c0 55 -44 86 -115 86c-78 0 -123 -40 -132 -105h-144c9 131 111 224 279 224c164 0 263 -71 263 -192c0 -86 -50 -134 -119 -153
c71 -18 134 -66 134 -162c0 -129 -110 -205 -279 -205z" />
    <glyph glyph-name="uni0418" unicode="&#x418;" horiz-adv-x="705" 
d="M196 0h-136v700h148v-457l301 457h136v-700h-148v457z" />
    <glyph glyph-name="uni0419" unicode="&#x419;" horiz-adv-x="705" 
d="M351 749c-99 0 -161 46 -163 147h102c0 -41 16 -69 64 -69c46 0 64 28 64 69h102c-2 -101 -68 -147 -169 -147zM196 0h-136v700h148v-457l301 457h136v-700h-148v457z" />
    <glyph glyph-name="uni040D" unicode="&#x40d;" horiz-adv-x="705" 
d="M298 752l-125 144h161l70 -144h-106zM196 0h-136v700h148v-457l301 457h136v-700h-148v457z" />
    <glyph glyph-name="uni040D" unicode="&#x45d;" horiz-adv-x="705" 
d="M298 752l-125 144h161l70 -144h-106zM196 0h-136v700h148v-457l301 457h136v-700h-148v457z" />
    <glyph glyph-name="uni040D" unicode="&#x45d;" horiz-adv-x="705" 
d="M298 752l-125 144h161l70 -144h-106zM196 0h-136v700h148v-457l301 457h136v-700h-148v457z" />
    <glyph glyph-name="uni041A" unicode="&#x41a;" horiz-adv-x="695" 
d="M210 0h-150v700h150v-281h101l189 281h170l-233 -334l248 -366h-179l-193 290h-103v-290z" />
    <glyph glyph-name="uni040C" unicode="&#x40c;" horiz-adv-x="695" 
d="M393 755h-103l73 141h161zM210 0h-150v700h150v-281h101l189 281h170l-233 -334l248 -366h-179l-193 290h-103v-290z" />
    <glyph glyph-name="uni041B" unicode="&#x41b;" horiz-adv-x="711" 
d="M44 0h-36v129h19c64 0 95 45 95 225v346h530v-700h-150v571h-238v-230c0 -251 -69 -341 -220 -341z" />
    <glyph glyph-name="uni041B.loclBGR" horiz-adv-x="682" 
d="M433 700l245 -700h-159l-179 526l-181 -526h-155l244 700h185z" />
    <glyph glyph-name="uni041C" unicode="&#x41c;" horiz-adv-x="892" 
d="M60 0v700h197l194 -514l188 514h193v-700h-143v469l-182 -469h-122l-182 469v-469h-143z" />
    <glyph glyph-name="uni041D" unicode="&#x41d;" horiz-adv-x="697" 
d="M60 0v700h150v-281h278v281h150v-700h-150v289h-278v-289h-150z" />
    <glyph glyph-name="uni041E" unicode="&#x41e;" horiz-adv-x="757" 
d="M726 350c0 -204 -141 -356 -347 -356s-347 152 -347 356s141 356 347 356s347 -152 347 -356zM185 350c0 -132 76 -229 194 -229c117 0 193 97 193 229s-76 229 -193 229c-118 0 -194 -97 -194 -229z" />
    <glyph glyph-name="uni041F" unicode="&#x41f;" horiz-adv-x="694" 
d="M210 0h-150v700h574v-700h-150v571h-274v-571z" />
    <glyph glyph-name="uni0420" unicode="&#x420;" horiz-adv-x="622" 
d="M60 0v700h285c152 0 253 -91 253 -233c0 -141 -101 -232 -253 -232h-135v-235h-150zM331 575h-121v-215h121c70 0 115 41 115 107c0 67 -45 108 -115 108z" />
    <glyph glyph-name="uni0421" unicode="&#x421;" horiz-adv-x="700" 
d="M366 -6c-208 0 -334 141 -334 356s131 356 343 356c166 0 283 -104 301 -256h-152c-18 78 -74 129 -157 129c-114 0 -182 -94 -182 -229c0 -134 67 -229 180 -229c85 0 141 51 159 129h151c-17 -152 -138 -256 -309 -256z" />
    <glyph glyph-name="uni0422" unicode="&#x422;" horiz-adv-x="595" 
d="M20 571v129h555v-129h-203v-571h-150v571h-202z" />
    <glyph glyph-name="uni0423" unicode="&#x423;" horiz-adv-x="645" 
d="M198 0h-105v129h64c59 0 81 11 100 54l12 28l-269 489h164l178 -334l149 334h154l-256 -556c-50 -109 -109 -144 -191 -144z" />
    <glyph glyph-name="uni040E" unicode="&#x40e;" horiz-adv-x="645" 
d="M320 749c-99 0 -161 46 -163 147h102c0 -41 16 -69 64 -69c46 0 64 28 64 69h102c-2 -101 -68 -147 -169 -147zM198 0h-105v129h64c59 0 81 11 100 54l12 28l-269 489h164l178 -334l149 334h154l-256 -556c-50 -109 -109 -144 -191 -144z" />
    <glyph glyph-name="uni0424" unicode="&#x424;" horiz-adv-x="896" 
d="M864 350c0 -181 -131 -291 -344 -306v-84h-144v84c-212 15 -344 125 -344 306s132 292 344 307v83h144v-83c212 -15 344 -126 344 -307zM180 350c0 -108 61 -174 196 -186v372c-134 -12 -196 -78 -196 -186zM520 536v-372c135 12 196 79 196 186s-61 174 -196 186z" />
    <glyph glyph-name="uni0424.loclBGR" horiz-adv-x="886" 
d="M854 350c0 -192 -128 -309 -339 -325v-65h-144v65c-211 16 -339 133 -339 325s128 309 339 325v65h144v-65c211 -16 339 -133 339 -325zM180 350c0 -118 61 -191 191 -205v410c-130 -14 -191 -87 -191 -205zM515 555v-410c130 14 191 87 191 205s-61 191 -191 205z" />
    <glyph glyph-name="uni0425" unicode="&#x425;" horiz-adv-x="665" 
d="M10 0l228 358l-217 342h178l136 -222l141 222h168l-217 -340l228 -360h-179l-147 240l-152 -240h-167z" />
    <glyph glyph-name="uni0427" unicode="&#x427;" horiz-adv-x="655" 
d="M446 391v309h150v-700h-150v267c-39 -19 -91 -29 -152 -29c-154 0 -257 73 -257 234v228h150v-209c0 -87 51 -128 134 -128c51 0 92 10 125 28z" />
    <glyph glyph-name="uni0426" unicode="&#x426;" horiz-adv-x="735" 
d="M629 700v-571h89v-272h-145v143h-513v700h150v-571h269v571h150z" />
    <glyph glyph-name="uni0428" unicode="&#x428;" horiz-adv-x="1014" 
d="M954 0h-894v700h150v-571h222v571h150v-571h222v571h150v-700z" />
    <glyph glyph-name="uni0429" unicode="&#x429;" horiz-adv-x="1060" 
d="M954 700v-571h89v-272h-145v143h-838v700h150v-571h222v571h150v-571h222v571h150z" />
    <glyph glyph-name="uni040F" unicode="&#x40f;" horiz-adv-x="688" 
d="M479 700h150v-700h-210v-143h-150v143h-209v700h150v-571h269v571z" />
    <glyph glyph-name="uni042C" unicode="&#x42c;" horiz-adv-x="632" 
d="M350 0h-290v700h150v-239h140c152 0 253 -92 253 -231c0 -138 -101 -230 -253 -230zM210 335v-210h126c70 0 114 41 114 105c0 65 -45 105 -114 105h-126z" />
    <glyph glyph-name="uni042A" unicode="&#x42a;" horiz-adv-x="772" 
d="M491 0h-291v573h-180v127h330v-239h141c151 0 253 -92 253 -231c0 -138 -102 -230 -253 -230zM350 335v-210h127c70 0 114 41 114 105c0 65 -45 105 -114 105h-127z" />
    <glyph glyph-name="uni042B" unicode="&#x42b;" horiz-adv-x="881" 
d="M342 0h-282v700h150v-239h132c153 0 255 -92 255 -231c0 -138 -102 -230 -255 -230zM822 0h-150v700h150v-700zM210 335v-210h119c70 0 115 41 115 105c0 65 -45 105 -116 105h-118z" />
    <glyph glyph-name="uni0409" unicode="&#x409;" horiz-adv-x="1047" 
d="M48 0h-40v129h20c65 0 93 38 93 183v388h516v-262h137c147 0 244 -86 244 -218s-97 -220 -244 -220h-287v571h-224v-273c0 -216 -67 -298 -215 -298zM637 313v-188h124c64 0 104 36 104 95c0 58 -41 93 -105 93h-123z" />
    <glyph glyph-name="uni040A" unicode="&#x40a;" horiz-adv-x="1039" 
d="M210 0h-150v700h150v-265h270v265h150v-262h137c147 0 244 -86 244 -218s-98 -220 -244 -220h-287v306h-270v-306zM630 313v-188h123c64 0 105 36 105 95c0 58 -41 93 -105 93h-123z" />
    <glyph glyph-name="uni0405" unicode="&#x405;" horiz-adv-x="625" 
d="M32 230l147 -2c5 -68 59 -115 145 -115c69 0 120 30 120 85c0 59 -57 71 -174 94c-118 22 -222 60 -222 202c0 124 103 212 261 212c165 0 270 -86 272 -220h-147c-7 59 -52 100 -125 100c-64 0 -110 -27 -110 -81c0 -57 55 -69 171 -91c120 -22 226 -58 225 -199
c-1 -131 -109 -221 -273 -221c-178 0 -289 94 -290 236z" />
    <glyph glyph-name="uni0404" unicode="&#x404;" horiz-adv-x="700" 
d="M364 119c89 0 143 52 160 124h151c-21 -147 -139 -249 -308 -249c-208 0 -335 141 -335 356s131 356 343 356c166 0 279 -102 301 -249h-151c-19 73 -73 124 -158 124c-96 0 -161 -64 -179 -169h241v-120h-242c17 -108 81 -173 177 -173z" />
    <glyph glyph-name="uni042D" unicode="&#x42d;" horiz-adv-x="701" 
d="M335 706c208 0 334 -141 334 -356s-131 -356 -343 -356c-167 0 -280 102 -302 249h152c18 -73 72 -124 158 -124c98 0 163 65 180 173h-243v120h242c-17 106 -80 169 -175 169c-89 0 -142 -52 -159 -124h-152c22 147 138 249 308 249z" />
    <glyph glyph-name="uni0406" unicode="&#x406;" horiz-adv-x="269" 
d="M60 0v700h150v-700h-150z" />
    <glyph glyph-name="uni0407" unicode="&#x407;" horiz-adv-x="269" 
d="M-45 835c0 42 33 73 75 73c43 0 76 -31 76 -73c0 -41 -33 -73 -76 -73c-42 0 -75 32 -75 73zM163 835c0 42 33 73 75 73c43 0 75 -31 75 -73c0 -41 -32 -73 -75 -73c-42 0 -75 32 -75 73zM60 0v700h150v-700h-150z" />
    <glyph glyph-name="uni0408" unicode="&#x408;" horiz-adv-x="397" 
d="M187 215v485h150v-514c0 -118 -68 -186 -186 -186h-129v129h83c59 0 82 28 82 86z" />
    <glyph glyph-name="uni040B" unicode="&#x40b;" horiz-adv-x="815" 
d="M526 434c147 0 246 -70 246 -230v-204h-150v183c0 89 -51 126 -128 126c-45 0 -89 -11 -122 -30v-279h-150v571h-202v129h597v-129h-245v-167c39 20 92 30 154 30z" />
    <glyph glyph-name="uni042E" unicode="&#x42e;" horiz-adv-x="1026" 
d="M653 706c205 0 342 -152 342 -356s-137 -356 -342 -356c-183 0 -312 122 -337 295h-106v-289h-150v700h150v-283h107c27 169 155 289 336 289zM653 121c116 0 188 97 188 229s-72 229 -188 229c-115 0 -187 -97 -187 -229s72 -229 187 -229z" />
    <glyph glyph-name="uni042F" unicode="&#x42f;" horiz-adv-x="649" 
d="M299 700h291v-700h-150v237h-110l-133 -237h-174l155 260c-86 35 -137 110 -137 209c0 139 104 231 258 231zM309 363h131v212h-130c-72 0 -117 -41 -117 -106s45 -106 116 -106z" />
    <glyph glyph-name="uni0402" unicode="&#x402;" horiz-adv-x="812" 
d="M529 434c152 0 249 -78 249 -243v-90c0 -157 -93 -236 -240 -236h-46l-1 127h24c70 0 113 38 113 120v61c0 95 -49 136 -134 136c-46 0 -90 -12 -122 -31v-278h-150v571h-202v129h597v-129h-245v-168c40 20 94 31 157 31z" />
    <glyph glyph-name="uni0430" unicode="&#x430;" horiz-adv-x="561" 
d="M539 119h16v-119h-72c-73 0 -96 35 -95 84c-36 -57 -88 -90 -168 -90c-111 0 -191 53 -191 151c0 109 82 171 236 171h102v25c0 46 -33 76 -92 76c-55 0 -92 -25 -98 -63h-136c10 100 102 166 238 166c144 0 227 -64 227 -187v-182c0 -27 11 -32 33 -32zM367 212v10h-103
c-59 0 -93 -24 -93 -67c0 -36 29 -59 76 -59c74 0 119 46 120 116z" />
    <glyph glyph-name="uni0430.ss01" horiz-adv-x="612" 
d="M425 446l14 68h124v-514h-125l-12 72c-34 -43 -85 -77 -158 -77c-138 -1 -239 100 -239 263c0 159 101 263 238 263c73 0 125 -31 158 -75zM299 109c77 0 125 60 125 147c0 88 -48 149 -125 149s-126 -61 -126 -149c0 -87 49 -147 126 -147z" />
    <glyph glyph-name="uni0430.ss02" horiz-adv-x="546" 
d="M279 520c144 0 227 -64 227 -187v-333h-124l-11 65c-37 -44 -84 -71 -156 -71c-112 0 -186 54 -186 152c0 109 82 170 237 170h101v25c0 46 -33 76 -92 76c-55 0 -92 -25 -98 -63h-136c10 100 102 166 238 166zM247 96c74 0 119 46 120 116v10h-103
c-59 0 -93 -24 -93 -67c0 -36 29 -59 76 -59z" />
    <glyph glyph-name="uni0431" unicode="&#x431;" horiz-adv-x="597" 
d="M335 472c134 0 233 -85 233 -233c0 -141 -99 -245 -272 -245c-162 0 -262 93 -262 306c0 250 71 356 303 384l184 22v-122l-153 -19c-150 -17 -194 -50 -214 -167c36 46 98 74 181 74zM300 101c75 0 125 55 125 132c0 75 -49 131 -123 131c-76 0 -125 -54 -125 -127
c0 -81 50 -136 123 -136z" />
    <glyph glyph-name="uni0431.loclSRB" horiz-adv-x="591" 
d="M292 -6c-162 0 -263 88 -263 229c0 110 58 177 145 204c-66 23 -114 54 -114 133c0 83 62 140 177 140h282v-117h-257c-40 0 -63 -11 -63 -40c0 -33 34 -45 89 -57c71 -13 108 -21 155 -46c81 -43 119 -115 119 -202c0 -150 -103 -244 -270 -244zM296 102
c74 0 123 50 123 132c0 79 -49 131 -123 131s-123 -52 -123 -131c0 -82 49 -132 123 -132z" />
    <glyph glyph-name="uni0432" unicode="&#x432;" horiz-adv-x="540" 
d="M284 0h-235v514h230c141 0 215 -48 215 -135c0 -71 -43 -102 -99 -113c73 -10 116 -47 116 -119c0 -100 -75 -147 -227 -147zM185 417v-112h93c49 0 74 21 74 56c0 37 -25 56 -74 56h-93zM185 213v-116h106c50 0 78 19 78 58c0 37 -28 58 -78 58h-106z" />
    <glyph glyph-name="uni0432.loclBGR" horiz-adv-x="573" 
d="M288 -6c-172 0 -248 83 -248 230v254c0 155 111 228 248 228c143 0 236 -73 236 -186c-1 -74 -40 -127 -95 -151c63 -18 120 -65 120 -164c0 -120 -96 -211 -261 -211zM181 493l-1 -81l86 -1c83 -2 115 47 115 99c0 53 -35 88 -97 88c-65 0 -102 -42 -103 -105zM294 102
c69 0 111 43 111 107c0 61 -43 98 -109 98h-115v-88c0 -77 37 -117 113 -117z" />
    <glyph glyph-name="uni0433" unicode="&#x433;" horiz-adv-x="412" 
d="M190 0h-141v514h355v-119h-214v-395z" />
    <glyph glyph-name="uni0433.loclBGR" horiz-adv-x="536" 
d="M264 -6c-145 0 -235 52 -235 155c0 117 98 146 217 163c75 11 117 21 117 59c0 33 -33 50 -88 50c-58 0 -98 -26 -103 -66h-134c7 101 105 166 243 166c134 1 220 -52 220 -154c0 -109 -94 -140 -215 -159c-83 -13 -116 -24 -116 -61c0 -35 33 -52 94 -52
c63 0 104 30 110 76h134c-6 -110 -102 -177 -244 -177z" />
    <glyph glyph-name="uni0453" unicode="&#x453;" horiz-adv-x="412" 
d="M272 569h-103l73 141h161zM190 0h-141v514h355v-119h-214v-395z" />
    <glyph glyph-name="uni0491" unicode="&#x491;" horiz-adv-x="429" 
d="M286 514v137h135v-257h-135v1h-96v-395h-141v514h237z" />
    <glyph glyph-name="uni0434" unicode="&#x434;" horiz-adv-x="650" 
d="M554 514v-395h85v-254h-136v135h-360v-135h-136v254h55c34 20 52 54 52 187v208h440zM214 119h199v276h-168v-105c0 -85 -10 -136 -31 -171z" />
    <glyph glyph-name="uni0434.loclBGR" horiz-adv-x="612" 
d="M427 443l12 71h124v-499c0 -127 -78 -221 -275 -221c-143 0 -241 65 -248 184h142c13 -49 52 -77 117 -77c79 0 126 39 126 119v54c-34 -43 -85 -71 -157 -71c-138 -1 -239 100 -239 259c0 157 101 259 238 259c74 0 126 -33 160 -78zM299 116c77 0 125 59 125 144
c0 86 -48 147 -125 147s-126 -60 -126 -146s49 -145 126 -145z" />
    <glyph glyph-name="uni0435" unicode="&#x435;" horiz-adv-x="581" 
d="M303 -6c-171 0 -274 103 -274 262c0 160 105 264 264 264c154 0 258 -96 260 -247c0 -15 -1 -32 -4 -48h-373v-7c3 -73 50 -117 121 -117c57 0 97 25 109 73h139c-16 -100 -105 -180 -242 -180zM179 317h232c-10 63 -53 98 -117 98c-61 0 -107 -37 -115 -98z" />
    <glyph glyph-name="uni0450" unicode="&#x450;" horiz-adv-x="581" 
d="M236 566l-125 144h161l70 -144h-106zM303 -6c-171 0 -274 103 -274 262c0 160 105 264 264 264c154 0 258 -96 260 -247c0 -15 -1 -32 -4 -48h-373v-7c3 -73 50 -117 121 -117c57 0 97 25 109 73h139c-16 -100 -105 -180 -242 -180zM179 317h232c-10 63 -53 98 -117 98
c-61 0 -107 -37 -115 -98z" />
    <glyph glyph-name="uni0451" unicode="&#x451;" horiz-adv-x="581" 
d="M113 649c0 42 33 73 75 73c43 0 76 -31 76 -73c0 -41 -33 -73 -76 -73c-42 0 -75 32 -75 73zM321 649c0 42 33 73 75 73c43 0 75 -31 75 -73c0 -41 -32 -73 -75 -73c-42 0 -75 32 -75 73zM303 -6c-171 0 -274 103 -274 262c0 160 105 264 264 264c154 0 258 -96 260 -247
c0 -15 -1 -32 -4 -48h-373v-7c3 -73 50 -117 121 -117c57 0 97 25 109 73h139c-16 -100 -105 -180 -242 -180zM179 317h232c-10 63 -53 98 -117 98c-61 0 -107 -37 -115 -98z" />
    <glyph glyph-name="uni0436" unicode="&#x436;" horiz-adv-x="811" 
d="M155 0h-158l170 270l-159 244h149l126 -195h53v195h138v-195h54l125 195h150l-159 -244l170 -270h-158l-126 200h-56v-200h-138v200h-55z" />
    <glyph glyph-name="uni0436.loclBGR" horiz-adv-x="811" 
d="M155 0h-158l170 270l-159 244h149l126 -195h53v381h138v-381h54l125 195h150l-159 -244l170 -270h-158l-126 200h-56v-200h-138v200h-55z" />
    <glyph glyph-name="uni0437" unicode="&#x437;" horiz-adv-x="539" 
d="M402 266c69 -12 109 -48 109 -116c0 -96 -95 -156 -248 -156c-166 0 -230 66 -235 180h139c7 -50 34 -80 98 -80s102 23 102 62c0 38 -26 54 -79 54h-71v98h63c51 0 77 20 77 57c0 35 -31 55 -87 55c-64 0 -93 -27 -100 -74h-139c7 104 91 174 242 174
c147 0 227 -56 227 -143c0 -62 -39 -98 -98 -111z" />
    <glyph glyph-name="uni0437.loclBGR" horiz-adv-x="545" 
d="M265 -206c-157 0 -248 81 -250 220h141c4 -67 39 -105 110 -105c67 0 111 39 111 101c0 60 -41 92 -109 92h-89v117h86c62 0 100 39 100 96c0 56 -41 93 -100 93c-65 0 -103 -36 -109 -102h-138c5 134 104 215 253 215c145 0 236 -78 236 -193c0 -86 -51 -139 -114 -160
c72 -21 127 -71 127 -162c0 -126 -105 -212 -255 -212z" />
    <glyph glyph-name="uni0438" unicode="&#x438;" horiz-adv-x="599" 
d="M172 0h-123v514h136v-317l242 317h123v-514h-137v317z" />
    <glyph glyph-name="uni0438.loclBGR" horiz-adv-x="582" 
d="M392 257v257h141v-514h-125l-13 62c-33 -40 -78 -68 -151 -68c-106 0 -204 53 -204 235v285h141v-266c0 -92 30 -137 100 -137s111 51 111 146z" />
    <glyph glyph-name="uni0439" unicode="&#x439;" horiz-adv-x="599" 
d="M297 563c-99 0 -161 46 -163 147h102c0 -41 16 -69 64 -69c46 0 64 28 64 69h102c-2 -101 -68 -147 -169 -147zM172 0h-123v514h136v-317l242 317h123v-514h-137v317z" />
    <glyph glyph-name="uni0439.loclBGR" horiz-adv-x="582" 
d="M284 563c-99 0 -161 46 -163 147h102c0 -41 16 -69 64 -69c46 0 64 28 64 69h102c-2 -101 -68 -147 -169 -147zM392 257v257h141v-514h-125l-13 62c-33 -40 -78 -68 -151 -68c-106 0 -204 53 -204 235v285h141v-266c0 -92 30 -137 100 -137s111 51 111 146z" />
    <glyph glyph-name="uni045D.loclBGR" horiz-adv-x="582" 
d="M267 710l70 -144h-106l-125 144h161zM392 257v257h141v-514h-125l-13 62c-33 -40 -78 -68 -151 -68c-106 0 -204 53 -204 235v285h141v-266c0 -92 30 -137 100 -137s111 51 111 146z" />
    <glyph glyph-name="uni043A" unicode="&#x43a;" horiz-adv-x="564" 
d="M190 0h-141v514h141v-195h80l131 195h154l-165 -243l178 -271h-163l-134 200h-81v-200z" />
    <glyph glyph-name="uni043A.loclBGR" horiz-adv-x="564" 
d="M190 0h-141v700h141v-381h80l131 195h154l-165 -243l178 -271h-163l-134 200h-81v-200z" />
    <glyph glyph-name="uni045C" unicode="&#x45c;" horiz-adv-x="564" 
d="M340 569h-103l73 141h161zM190 0h-141v514h141v-195h80l131 195h154l-165 -243l178 -271h-163l-134 200h-81v-200z" />
    <glyph glyph-name="uni043B" unicode="&#x43b;" horiz-adv-x="574" 
d="M47 0h-44v119h21c47 0 66 31 66 150v245h435v-514h-141v395h-163v-131c0 -203 -58 -264 -174 -264z" />
    <glyph glyph-name="uni043B.loclBGR" horiz-adv-x="561" 
d="M151 0h-147l186 514h180l187 -514h-151l-128 377z" />
    <glyph glyph-name="uni043C" unicode="&#x43c;" horiz-adv-x="733" 
d="M177 0h-128v514h166l157 -359l150 359h162v-514h-128v310l-136 -310h-107l-136 310v-310z" />
    <glyph glyph-name="uni043D" unicode="&#x43d;" horiz-adv-x="594" 
d="M404 319v195h141v-514h-141v200h-214v-200h-141v514h141v-195h214z" />
    <glyph glyph-name="uni043E" unicode="&#x43e;" 
d="M300 -6c-164 0 -271 105 -271 263s107 263 271 263s271 -105 271 -263c0 -159 -107 -263 -271 -263zM300 109c79 0 128 61 128 148s-49 148 -128 148s-127 -61 -127 -148s48 -148 127 -148z" />
    <glyph glyph-name="uni043F" unicode="&#x43f;" horiz-adv-x="584" 
d="M190 0h-141v514h486v-514h-141v395h-204v-395z" />
    <glyph glyph-name="uni043F.loclBGR" horiz-adv-x="590" 
d="M344 520c111 0 206 -59 206 -235v-285h-141v271c0 87 -33 133 -104 133c-73 0 -115 -52 -115 -141v-263h-141v514h123l13 -64c33 40 80 70 159 70z" />
    <glyph glyph-name="uni0440" unicode="&#x440;" horiz-adv-x="612" 
d="M344 520c139 1 239 -102 239 -264c0 -160 -100 -262 -238 -262c-71 0 -122 29 -155 71v-265h-141v714h123l14 -71c33 44 85 77 158 77zM313 109c77 0 127 61 127 149c0 87 -50 147 -127 147s-125 -60 -125 -147c0 -88 48 -149 125 -149z" />
    <glyph glyph-name="uni0441" unicode="&#x441;" horiz-adv-x="569" 
d="M291 -6c-163 0 -262 101 -262 263c0 159 104 263 267 263c140 0 227 -76 247 -198h-147c-12 51 -47 83 -102 83c-74 0 -121 -61 -121 -148c0 -88 47 -148 121 -148c55 0 92 33 102 85h148c-20 -123 -113 -200 -253 -200z" />
    <glyph glyph-name="uni0442" unicode="&#x442;" horiz-adv-x="479" 
d="M310 0h-141v395h-162v119h464v-119h-161v-395z" />
    <glyph glyph-name="uni0442.loclBGR" horiz-adv-x="894" 
d="M664 520c106 0 190 -60 190 -225v-295h-141v287c0 77 -28 117 -89 117s-102 -45 -102 -123v-281h-141v287c0 77 -28 117 -90 117c-61 0 -101 -47 -101 -124v-280h-141v514h123l13 -64c31 40 76 69 151 70c63 1 122 -22 154 -87c36 55 96 87 174 87z" />
    <glyph glyph-name="uni0443" unicode="&#x443;" horiz-adv-x="546" 
d="M197 -3l-198 517h150l125 -366l122 366h151l-228 -587c-32 -85 -58 -127 -138 -127h-137v119h78c36 0 48 9 62 44z" />
    <glyph glyph-name="uni0443.ss01" horiz-adv-x="582" 
d="M392 263v251h141v-504c0 -121 -73 -216 -258 -216c-136 0 -229 61 -235 179h142c12 -48 46 -72 105 -72c67 0 108 38 108 109v64c-34 -43 -76 -74 -150 -74c-106 0 -204 50 -204 236v278h141v-261c0 -90 31 -135 100 -135s110 51 110 145z" />
    <glyph glyph-name="uni045E" unicode="&#x45e;" horiz-adv-x="546" 
d="M268 563c-99 0 -161 46 -163 147h102c0 -41 16 -69 64 -69c46 0 64 28 64 69h102c-2 -101 -68 -147 -169 -147zM197 -3l-198 517h150l125 -366l122 366h151l-228 -587c-32 -85 -58 -127 -138 -127h-137v119h78c36 0 48 9 62 44z" />
    <glyph glyph-name="uni045E.ss01" horiz-adv-x="582" 
d="M284 563c-99 0 -161 46 -163 147h102c0 -41 16 -69 64 -69c46 0 64 28 64 69h102c-2 -101 -68 -147 -169 -147zM392 263v251h141v-504c0 -121 -73 -216 -258 -216c-136 0 -229 61 -235 179h142c12 -48 46 -72 105 -72c67 0 108 38 108 109v64c-34 -43 -76 -74 -150 -74
c-106 0 -204 50 -204 236v278h141v-261c0 -90 31 -135 100 -135s110 51 110 145z" />
    <glyph glyph-name="uni0444" unicode="&#x444;" horiz-adv-x="773" 
d="M456 -200h-139v196c-180 8 -288 106 -288 261c0 153 110 253 288 261v166h139v-166c179 -8 288 -106 288 -261c0 -153 -110 -253 -288 -261v-196zM318 111v292c-95 -5 -148 -59 -148 -146s53 -141 148 -146zM454 403v-292c96 5 149 59 149 146s-53 141 -149 146z" />
    <glyph glyph-name="uni0445" unicode="&#x445;" horiz-adv-x="540" 
d="M-3 0l191 262l-182 252h161l106 -152l109 152h152l-181 -252l191 -262h-161l-118 161l-117 -161h-151z" />
    <glyph glyph-name="uni0447" unicode="&#x447;" horiz-adv-x="546" 
d="M357 291v223h141v-514h-141v181c-35 -17 -81 -27 -126 -27c-131 0 -206 56 -206 203v157h141v-143c0 -72 29 -99 101 -99c34 0 64 6 90 19z" />
    <glyph glyph-name="uni0446" unicode="&#x446;" horiz-adv-x="625" 
d="M527 514v-395h87v-254h-136v135h-429v514h141v-395h196v395h141z" />
    <glyph glyph-name="uni0446.loclBGR" horiz-adv-x="631" 
d="M533 514v-395h87v-254h-136v135h-76l-13 62c-33 -40 -78 -68 -151 -68c-106 0 -204 53 -204 235v285h141v-266c0 -92 30 -137 100 -137s111 51 111 146v257h141z" />
    <glyph glyph-name="uni0448" unicode="&#x448;" horiz-adv-x="834" 
d="M785 0h-736v514h141v-395h156v395h141v-395h157v395h141v-514z" />
    <glyph glyph-name="uni0448.loclBGR" horiz-adv-x="886" 
d="M696 233v281h141v-514h-123l-13 64c-31 -40 -74 -70 -146 -70c-63 0 -123 22 -155 87c-35 -56 -94 -87 -170 -87c-106 0 -190 58 -190 218v302h141v-288c0 -77 27 -116 87 -116s100 43 100 121v283h141v-288c0 -77 27 -116 88 -116c60 0 99 45 99 123z" />
    <glyph glyph-name="uni0449" unicode="&#x449;" horiz-adv-x="883" 
d="M785 514v-395h87v-254h-136v135h-687v514h141v-395h156v395h141v-395h157v395h141z" />
    <glyph glyph-name="uni0449.loclBGR" horiz-adv-x="934" 
d="M837 514v-395h87v-254h-136v135h-74l-13 64c-31 -40 -74 -70 -146 -70c-63 0 -123 22 -155 87c-35 -56 -94 -87 -170 -87c-106 0 -190 58 -190 218v302h141v-288c0 -77 27 -116 87 -116s100 43 100 121v283h141v-288c0 -77 27 -116 88 -116c60 0 99 45 99 123v281h141z
" />
    <glyph glyph-name="uni045F" unicode="&#x45f;" horiz-adv-x="576" 
d="M386 514h141v-514h-168v-135h-141v135h-169v514h141v-395h196v395z" />
    <glyph glyph-name="uni044C" unicode="&#x44c;" horiz-adv-x="538" 
d="M304 0h-255v514h141v-151h114c131 0 210 -68 210 -182c0 -112 -79 -181 -210 -181zM190 258v-152h89c59 0 92 27 92 76s-33 76 -92 76h-89z" />
    <glyph glyph-name="uni044C.loclBGR" horiz-adv-x="549" 
d="M281 -6c-146 0 -241 76 -241 238v282h141v-154c29 32 71 53 135 53c119 0 209 -73 209 -204c0 -130 -100 -215 -244 -215zM284 101c61 0 103 42 103 102c0 59 -42 101 -103 101s-103 -42 -103 -101c0 -60 42 -102 103 -102z" />
    <glyph glyph-name="uni044A" unicode="&#x44a;" horiz-adv-x="635" 
d="M287 363h113c132 0 211 -68 211 -182c0 -112 -79 -181 -211 -181h-254v395h-139v119h280v-151zM287 106h89c59 0 91 27 91 76s-32 76 -91 76h-89v-152z" />
    <glyph glyph-name="uni044A.loclBGR" horiz-adv-x="655" 
d="M422 413c119 0 209 -73 209 -204c0 -130 -98 -215 -242 -215c-146 0 -243 76 -243 238v163h-139v119h280v-154c29 32 72 53 135 53zM390 101c61 0 103 42 103 102c0 59 -42 101 -103 101c-60 0 -103 -42 -103 -101c0 -60 43 -102 103 -102z" />
    <glyph glyph-name="uni044B" unicode="&#x44b;" horiz-adv-x="761" 
d="M296 0h-247v514h141v-151h106c131 0 210 -68 210 -182c0 -112 -79 -181 -210 -181zM712 0h-141v514h141v-514zM190 258v-152h81c60 0 92 27 92 76s-32 76 -92 76h-81z" />
    <glyph glyph-name="uni0459" unicode="&#x459;" horiz-adv-x="851" 
d="M48 0h-45v117h25c43 0 63 21 63 87v310h428v-169h112c123 0 196 -64 196 -173c0 -107 -73 -172 -196 -172h-253v397h-157v-202c0 -143 -59 -195 -173 -195zM519 239v-133h87c51 0 78 23 78 66c0 44 -27 67 -78 67h-87z" />
    <glyph glyph-name="uni045A" unicode="&#x45a;" horiz-adv-x="867" 
d="M536 341h112c123 0 195 -63 195 -171c0 -106 -72 -170 -195 -170h-254v216h-204v-216h-141v514h141v-179h204v179h142v-173zM536 106h86c51 0 78 22 78 65c0 42 -27 65 -78 65h-86v-130z" />
    <glyph glyph-name="uni0455" unicode="&#x455;" horiz-adv-x="530" 
d="M25 171h134c5 -45 44 -76 113 -76c59 0 95 19 95 55c0 42 -35 45 -118 56c-120 14 -213 41 -213 147c0 102 89 169 221 168c138 0 233 -61 240 -166h-135c-4 41 -43 66 -100 66c-55 0 -91 -20 -91 -53c0 -39 44 -43 118 -52c118 -12 216 -39 216 -155
c0 -102 -96 -167 -234 -167c-143 0 -240 67 -246 177z" />
    <glyph glyph-name="uni0454" unicode="&#x454;" horiz-adv-x="574" 
d="M296 106c60 -3 98 30 110 85h143c-19 -124 -116 -197 -255 -197c-164 0 -265 100 -265 263c0 159 105 263 270 263c146 0 231 -78 250 -196h-142c-11 52 -50 84 -111 84c-63 0 -106 -39 -120 -103h164v-98h-164c14 -64 57 -101 120 -101z" />
    <glyph glyph-name="uni044D" unicode="&#x44d;" horiz-adv-x="574" 
d="M280 520c164 0 265 -101 265 -263c0 -161 -105 -263 -270 -263c-146 0 -231 76 -250 198h142c11 -57 50 -86 111 -86c64 0 106 38 120 103h-165v99h164c-14 62 -57 100 -119 100c-59 0 -98 -32 -110 -84h-143c19 122 117 196 255 196z" />
    <glyph glyph-name="uni0456" unicode="&#x456;" horiz-adv-x="239" 
d="M120 569c-46 0 -82 34 -82 79c0 46 36 80 82 80s82 -34 82 -80c0 -45 -36 -79 -82 -79zM49 0v514h142v-514h-142z" />
    <glyph glyph-name="uni0457" unicode="&#x457;" horiz-adv-x="239" 
d="M-59 649c0 42 33 73 75 73c43 0 76 -31 76 -73c0 -41 -33 -73 -76 -73c-42 0 -75 32 -75 73zM149 649c0 42 33 73 75 73c43 0 75 -31 75 -73c0 -41 -32 -73 -75 -73c-42 0 -75 32 -75 73zM49 0v514h142v-514h-142z" />
    <glyph glyph-name="uni0458" unicode="&#x458;" horiz-adv-x="244" 
d="M125 569c-46 0 -82 34 -82 79c0 46 36 80 82 80s82 -34 82 -80c0 -45 -36 -79 -82 -79zM-46 -200v119h49c35 0 51 17 51 57v538h141v-558c0 -95 -50 -156 -148 -156h-93z" />
    <glyph glyph-name="uni045B" unicode="&#x45b;" horiz-adv-x="597" 
d="M349 520c106 0 208 -55 208 -241v-279h-141v273c0 84 -34 131 -104 131c-73 0 -115 -52 -115 -140v-264h-141v559h-76v90h76v51h141v-51h152v-90h-152v-108c33 40 79 69 152 69z" />
    <glyph glyph-name="uni044E" unicode="&#x44e;" horiz-adv-x="837" 
d="M540 520c163 0 268 -104 268 -263c0 -158 -105 -263 -268 -263c-141 0 -239 81 -261 207h-89v-201h-141v514h141v-198h89c23 125 121 204 261 204zM540 107c77 0 124 61 124 150s-47 150 -124 150c-76 0 -123 -61 -123 -150s47 -150 123 -150z" />
    <glyph glyph-name="uni044E.loclBGR" horiz-adv-x="837" 
d="M540 520c163 0 268 -104 268 -263c0 -158 -105 -263 -268 -263c-141 0 -239 81 -261 207h-89v-201h-141v700h141v-384h89c23 125 121 204 261 204zM540 107c77 0 124 61 124 150s-47 150 -124 150c-76 0 -123 -61 -123 -150s47 -150 123 -150z" />
    <glyph glyph-name="uni044F" unicode="&#x44f;" horiz-adv-x="551" 
d="M252 514h250v-514h-141v159h-95l-97 -159h-159l122 182c-67 21 -103 75 -103 153c0 110 80 179 223 179zM255 265h106v143h-106c-53 0 -83 -27 -83 -71c0 -47 30 -72 83 -72z" />
    <glyph glyph-name="uni0452" unicode="&#x452;" horiz-adv-x="597" 
d="M350 520c105 0 207 -55 207 -241v-323c0 -95 -51 -156 -149 -156h-93v119h50c34 0 51 17 51 57v297c0 84 -34 131 -104 131c-73 0 -115 -52 -115 -140v-264h-141v559h-76v90h76v51h141v-51h152v-90h-152v-108c33 40 79 69 153 69z" />
    <glyph glyph-name="Alpha" unicode="&#x391;" horiz-adv-x="698" 
d="M159 0h-155l256 700h180l254 -700h-161l-54 153h-266zM345 540l-92 -266h185z" />
    <glyph glyph-name="Beta" unicode="&#x392;" horiz-adv-x="637" 
d="M60 0v700h266c162 0 256 -68 256 -185c0 -88 -52 -138 -132 -155c93 -12 157 -61 157 -161c0 -122 -96 -199 -268 -199h-279zM330 582h-120v-170h120c64 0 102 33 102 85s-37 85 -102 85zM340 296h-130v-177h130c72 0 113 33 113 87c0 57 -42 90 -113 90z" />
    <glyph glyph-name="Gamma" unicode="&#x393;" horiz-adv-x="534" 
d="M210 0h-150v700h454v-129h-304v-571z" />
    <glyph glyph-name="uni0394" unicode="&#x394;" horiz-adv-x="710" 
d="M685 0h-660v99l244 601h173l243 -601v-99zM349 555l-162 -426h327z" />
    <glyph glyph-name="Epsilon" unicode="&#x395;" horiz-adv-x="571" 
d="M60 0v700h470v-129h-320v-157h260v-123h-260v-162h331v-129h-481z" />
    <glyph glyph-name="Zeta" unicode="&#x396;" horiz-adv-x="625" 
d="M34 572v128h557v-99l-359 -473h368v-128h-575v99l359 473h-350z" />
    <glyph glyph-name="Eta" unicode="&#x397;" horiz-adv-x="697" 
d="M60 0v700h150v-281h278v281h150v-700h-150v289h-278v-289h-150z" />
    <glyph glyph-name="Theta" unicode="&#x398;" horiz-adv-x="757" 
d="M379 -6c-206 0 -347 152 -347 356s141 356 347 356s347 -152 347 -356s-141 -356 -347 -356zM379 121c121 0 200 90 200 229s-79 229 -200 229c-122 0 -201 -90 -201 -229s79 -229 201 -229zM517 298h-277v106h277v-106z" />
    <glyph glyph-name="Iota" unicode="&#x399;" horiz-adv-x="269" 
d="M60 0v700h150v-700h-150z" />
    <glyph glyph-name="Kappa" unicode="&#x39a;" horiz-adv-x="683" 
d="M60 0v700h150v-317l280 317h182l-259 -292l276 -408h-180l-202 298l-97 -110v-188h-150z" />
    <glyph glyph-name="Lambda" unicode="&#x39b;" horiz-adv-x="679" 
d="M158 0h-154l245 700h179l247 -700h-161l-179 520z" />
    <glyph glyph-name="Mu" unicode="&#x39c;" horiz-adv-x="892" 
d="M60 0v700h197l194 -514l188 514h193v-700h-143v469l-182 -469h-122l-182 469v-469h-143z" />
    <glyph glyph-name="Nu" unicode="&#x39d;" horiz-adv-x="700" 
d="M207 0h-147v700h136l297 -441v441h148v-700h-137l-297 441v-441z" />
    <glyph glyph-name="Xi" unicode="&#x39e;" horiz-adv-x="612" 
d="M571 571h-530v129h530v-129zM533 289h-454v129h454v-129zM577 0h-542v129h542v-129z" />
    <glyph glyph-name="Omicron" unicode="&#x39f;" horiz-adv-x="757" 
d="M726 350c0 -204 -141 -356 -347 -356s-347 152 -347 356s141 356 347 356s347 -152 347 -356zM185 350c0 -132 76 -229 194 -229c117 0 193 97 193 229s-76 229 -193 229c-118 0 -194 -97 -194 -229z" />
    <glyph glyph-name="Pi" unicode="&#x3a0;" horiz-adv-x="697" 
d="M210 0h-150v700h577v-700h-150v571h-277v-571z" />
    <glyph glyph-name="Rho" unicode="&#x3a1;" horiz-adv-x="622" 
d="M60 0v700h285c152 0 253 -91 253 -233c0 -141 -101 -232 -253 -232h-135v-235h-150zM331 575h-121v-215h121c70 0 115 41 115 107c0 67 -45 108 -115 108z" />
    <glyph glyph-name="Sigma" unicode="&#x3a3;" horiz-adv-x="610" 
d="M581 0h-554v101l246 256l-232 242v101h532v-129h-310l174 -188v-48l-198 -206h342v-129z" />
    <glyph glyph-name="Tau" unicode="&#x3a4;" horiz-adv-x="595" 
d="M20 571v129h555v-129h-203v-571h-150v571h-202z" />
    <glyph glyph-name="Upsilon" unicode="&#x3a5;" horiz-adv-x="664" 
d="M257 260l-257 440h175l157 -287l165 287h167l-257 -440v-260h-150v260z" />
    <glyph glyph-name="Phi" unicode="&#x3a6;" horiz-adv-x="851" 
d="M819 350c0 -185 -121 -302 -321 -321v-65h-145v65c-200 19 -321 136 -321 321c0 184 121 301 321 321v65h145v-65c199 -19 321 -136 321 -321zM177 350c0 -111 56 -183 176 -201v402c-119 -18 -176 -90 -176 -201zM498 551v-402c118 17 175 90 175 201s-57 183 -175 201z
" />
    <glyph glyph-name="Chi" unicode="&#x3a7;" horiz-adv-x="665" 
d="M10 0l228 358l-217 342h178l136 -222l141 222h168l-217 -340l228 -360h-179l-147 240l-152 -240h-167z" />
    <glyph glyph-name="Psi" unicode="&#x3a8;" horiz-adv-x="836" 
d="M642 520v180h147v-188c0 -216 -102 -317 -298 -336v-176h-145v176c-195 19 -298 119 -298 336v188h146v-180c0 -141 41 -200 152 -216v396h145v-396c111 16 151 75 151 216z" />
    <glyph glyph-name="uni03A9" unicode="&#x3a9;" horiz-adv-x="752" 
d="M315 0h-273v129h170v9c-123 44 -169 145 -169 265c0 189 140 303 333 303c195 0 332 -114 332 -302c0 -122 -51 -226 -168 -266v-9h170v-129h-274v185c93 46 119 111 119 204c0 112 -74 190 -180 190c-104 0 -179 -78 -179 -190c0 -93 25 -158 119 -205v-184z" />
    <glyph glyph-name="Alphatonos" unicode="&#x386;" horiz-adv-x="698" 
d="M159 0h-155l256 700h180l254 -700h-161l-54 153h-266zM106 539h-91l25 161h142zM345 540l-92 -266h185z" />
    <glyph glyph-name="Epsilontonos" unicode="&#x388;" horiz-adv-x="693" 
d="M73 539h-91l25 161h142zM182 0v700h470v-129h-320v-157h260v-123h-260v-162h331v-129h-481z" />
    <glyph glyph-name="Etatonos" unicode="&#x389;" horiz-adv-x="819" 
d="M73 539h-91l25 161h142zM182 0v700h150v-281h278v281h150v-700h-150v289h-278v-289h-150z" />
    <glyph glyph-name="Iotatonos" unicode="&#x38a;" horiz-adv-x="391" 
d="M73 539h-91l25 161h142zM182 0v700h150v-700h-150z" />
    <glyph glyph-name="Omicrontonos" unicode="&#x38c;" horiz-adv-x="793" 
d="M762 350c0 -204 -141 -356 -347 -356s-347 152 -347 356s141 356 347 356s347 -152 347 -356zM69 539h-91l25 161h142zM221 350c0 -132 76 -229 194 -229c117 0 193 97 193 229s-76 229 -193 229c-118 0 -194 -97 -194 -229z" />
    <glyph glyph-name="Upsilontonos" unicode="&#x38e;" horiz-adv-x="796" 
d="M49 539h-91l25 161h142zM389 260l-257 440h175l157 -287l165 287h167l-257 -440v-260h-150v260z" />
    <glyph glyph-name="Omegatonos" unicode="&#x38f;" horiz-adv-x="801" 
d="M364 0h-273v129h170v9c-123 44 -169 145 -169 265c0 189 140 303 333 303c195 0 332 -114 332 -302c0 -122 -51 -226 -168 -266v-9h170v-129h-274v185c93 46 119 111 119 204c0 112 -74 190 -180 190c-104 0 -179 -78 -179 -190c0 -93 25 -158 119 -205v-184zM64 539h-91
l25 161h142z" />
    <glyph glyph-name="Iotadieresis" unicode="&#x3aa;" horiz-adv-x="269" 
d="M-45 835c0 42 33 73 75 73c43 0 76 -31 76 -73c0 -41 -33 -73 -76 -73c-42 0 -75 32 -75 73zM163 835c0 42 33 73 75 73c43 0 75 -31 75 -73c0 -41 -32 -73 -75 -73c-42 0 -75 32 -75 73zM60 0v700h150v-700h-150z" />
    <glyph glyph-name="Upsilondieresis" unicode="&#x3ab;" horiz-adv-x="664" 
d="M157 835c0 42 33 73 75 73c43 0 76 -31 76 -73c0 -41 -33 -73 -76 -73c-42 0 -75 32 -75 73zM365 835c0 42 33 73 75 73c43 0 75 -31 75 -73c0 -41 -32 -73 -75 -73c-42 0 -75 32 -75 73zM257 260l-257 440h175l157 -287l165 287h167l-257 -440v-260h-150v260z" />
    <glyph glyph-name="alpha" unicode="&#x3b1;" horiz-adv-x="616" 
d="M590 119h15v-119h-78c-64 0 -95 26 -101 81c-33 -49 -84 -87 -161 -87c-137 0 -236 101 -236 264c0 159 99 262 235 262c72 0 123 -30 155 -75l14 69h124v-363c0 -27 11 -32 33 -32zM296 109c75 0 121 60 121 147c0 88 -46 149 -121 149s-123 -60 -123 -148
s48 -148 123 -148z" />
    <glyph glyph-name="alpha.ss01" horiz-adv-x="612" 
d="M425 446l14 68h124v-514h-125l-12 72c-34 -43 -85 -77 -158 -77c-138 -1 -239 100 -239 263c0 159 101 263 238 263c73 0 125 -31 158 -75zM299 109c77 0 125 60 125 147c0 88 -48 149 -125 149s-126 -61 -126 -149c0 -87 49 -147 126 -147z" />
    <glyph glyph-name="beta" unicode="&#x3b2;" horiz-adv-x="610" 
d="M445 374c87 -23 139 -78 139 -176c0 -130 -110 -203 -238 -204c-68 0 -121 22 -156 60v-254h-141v665c0 168 114 241 251 241c144 0 239 -75 239 -189c-1 -71 -38 -121 -94 -143zM324 103c64 0 118 34 118 103c0 71 -50 99 -130 99h-39v100h17c82 0 107 46 107 97
c0 54 -36 91 -100 91c-70 0 -107 -46 -107 -110v-262c0 -79 60 -118 134 -118z" />
    <glyph glyph-name="gamma" unicode="&#x3b3;" horiz-adv-x="553" 
d="M406 514h148l-206 -503v-174h-141v169l-208 508h151l129 -345z" />
    <glyph glyph-name="delta" unicode="&#x3b4;" horiz-adv-x="589" 
d="M289 -6c-158 0 -260 87 -260 234c0 117 73 194 166 220c17 5 33 9 50 11l-159 131v110h446v-118h-244l111 -91c109 -85 161 -147 161 -256c0 -134 -95 -241 -271 -241zM295 104c75 0 125 50 125 129c0 78 -51 128 -124 128c-76 0 -125 -51 -125 -128
c0 -79 49 -129 124 -129z" />
    <glyph glyph-name="delta.ss15" horiz-adv-x="579" 
d="M283 -6c-153 0 -254 85 -254 222c0 71 34 139 100 177c20 12 46 23 74 27c-83 43 -109 81 -109 136c0 91 89 150 216 150c129 0 220 -59 228 -166h-148c-5 44 -35 67 -79 67c-43 0 -68 -19 -68 -48c0 -31 23 -47 100 -88c145 -76 207 -134 207 -249
c0 -128 -100 -228 -267 -228zM290 102c70 0 118 50 118 121c0 72 -48 120 -118 120c-71 0 -119 -49 -119 -120s48 -121 119 -121z" />
    <glyph glyph-name="epsilon" unicode="&#x3b5;" horiz-adv-x="532" 
d="M375 171h141c-2 -112 -86 -177 -258 -177c-146 0 -236 51 -236 149c0 66 38 106 104 119c-54 13 -88 47 -88 106c0 89 89 152 237 152c149 0 234 -70 238 -173h-141c-4 46 -35 73 -101 73c-56 0 -93 -20 -93 -58c0 -37 30 -52 84 -52h61v-103h-69c-58 0 -89 -15 -89 -55
c0 -42 38 -60 104 -60c67 0 102 27 106 79z" />
    <glyph glyph-name="zeta" unicode="&#x3b6;" horiz-adv-x="507" 
d="M500 -135h-123v68c0 50 -17 65 -67 66l-63 1c-139 2 -219 57 -219 183c0 87 44 159 129 248l144 150h-253v119h434v-96l-157 -164c-101 -105 -154 -165 -154 -234c0 -62 41 -87 109 -88l56 -1c108 -1 164 -38 164 -150v-102z" />
    <glyph glyph-name="eta" unicode="&#x3b7;" horiz-adv-x="604" 
d="M358 520c119 0 206 -64 206 -241v-479h-141v471c0 87 -32 133 -103 133c-73 0 -115 -52 -115 -141v-263h-141v363c0 27 -11 32 -33 32h-16v119h79c61 0 91 -24 97 -73c34 45 82 79 167 79z" />
    <glyph glyph-name="theta" unicode="&#x3b8;" horiz-adv-x="598" 
d="M299 706c167 0 270 -125 270 -356c0 -227 -103 -356 -270 -356s-270 129 -270 356c0 228 103 356 270 356zM299 589c-73 0 -118 -58 -128 -178h256c-11 121 -54 178 -128 178zM299 111c75 0 119 61 128 186h-257c9 -125 54 -186 129 -186z" />
    <glyph glyph-name="iota" unicode="&#x3b9;" horiz-adv-x="285" 
d="M275 0h-86c-100 0 -143 44 -143 142v372h141v-342c0 -43 16 -53 54 -53h34v-119z" />
    <glyph glyph-name="kappa" unicode="&#x3ba;" horiz-adv-x="555" 
d="M365 288l187 -288h-163l-118 188l-81 -98v-90h-141v514h141v-251l111 148c61 84 91 103 176 103h52v-119h-30c-39 0 -52 -5 -85 -46z" />
    <glyph glyph-name="lambda" unicode="&#x3bb;" horiz-adv-x="564" 
d="M155 0h-148l203 492l-15 42c-15 39 -27 47 -65 47h-69v119h107c96 0 120 -26 165 -140l224 -560h-151l-123 335z" />
    <glyph glyph-name="uni03BC" unicode="&#x3bc;" horiz-adv-x="601" 
d="M575 119h16v-119h-79c-57 0 -92 26 -100 69c-33 -52 -82 -75 -143 -75c-34 0 -65 13 -79 26v-220h-141v714h141v-265c0 -89 31 -138 103 -138c66 0 108 54 108 146v257h141v-363c0 -27 11 -32 33 -32z" />
    <glyph glyph-name="nu" unicode="&#x3bd;" horiz-adv-x="542" 
d="M184 0l-185 514h151l124 -370l122 370h148l-185 -514h-175z" />
    <glyph glyph-name="xi" unicode="&#x3be;" horiz-adv-x="514" 
d="M500 -135h-124v68c0 50 -15 65 -62 66l-54 1c-143 3 -228 55 -228 182c0 97 58 155 137 174c-67 15 -110 49 -110 121c0 54 39 91 97 112h-122v111h442v-109c-28 -1 -55 -1 -82 -3c-123 -6 -191 -33 -191 -95c0 -49 32 -81 119 -81h115v-117h-131
c-87 0 -131 -29 -131 -95c0 -58 44 -81 118 -83l43 -1c108 -3 164 -39 164 -148v-103z" />
    <glyph glyph-name="omicron" unicode="&#x3bf;" 
d="M300 -6c-164 0 -271 105 -271 263s107 263 271 263s271 -105 271 -263c0 -159 -107 -263 -271 -263zM300 109c79 0 128 61 128 148s-49 148 -128 148s-127 -61 -127 -148s48 -148 127 -148z" />
    <glyph glyph-name="pi" unicode="&#x3c0;" horiz-adv-x="635" 
d="M617 514v-119h-80v-244c0 -27 10 -32 32 -32h20v-119h-86c-73 0 -108 34 -108 108v287h-165v-395h-141v395h-75v119h603z" />
    <glyph glyph-name="rho" unicode="&#x3c1;" horiz-adv-x="604" 
d="M306 520c164 0 269 -102 269 -260c0 -160 -112 -266 -256 -266c-53 0 -102 16 -138 42v-236h-141v435c0 175 105 285 266 285zM305 109c77 0 126 62 126 149s-49 147 -126 147s-126 -62 -126 -149s46 -147 126 -147z" />
    <glyph glyph-name="uni03C2" unicode="&#x3c2;" horiz-adv-x="557" 
d="M494 -135h-123v68c0 50 -16 66 -63 67h-33c-169 2 -246 96 -246 257c0 159 104 263 267 263c140 0 227 -76 247 -198h-147c-12 51 -47 83 -102 83c-74 0 -121 -59 -121 -148c0 -91 43 -138 132 -139l34 -1c104 -1 155 -40 155 -150v-102z" />
    <glyph glyph-name="sigma" unicode="&#x3c3;" horiz-adv-x="630" 
d="M300 -6c-164 0 -271 103 -271 260s107 260 269 260h316v-119h-109c42 -30 66 -86 66 -148c0 -150 -107 -253 -271 -253zM300 109c79 0 128 59 128 145s-49 145 -128 145s-127 -59 -127 -145s48 -145 127 -145z" />
    <glyph glyph-name="tau" unicode="&#x3c4;" horiz-adv-x="501" 
d="M483 514v-119h-171v-225c0 -36 14 -51 51 -51h71v-119h-116c-98 0 -147 49 -147 147v248h-157v119h469z" />
    <glyph glyph-name="upsilon" unicode="&#x3c5;" horiz-adv-x="567" 
d="M284 -6c-129 0 -244 54 -244 232v288h141v-273c0 -87 28 -130 103 -130c74 0 102 43 102 130v273h141v-288c0 -178 -115 -232 -243 -232z" />
    <glyph glyph-name="phi" unicode="&#x3c6;" horiz-adv-x="775" 
d="M454 -200h-134v194c-171 4 -286 105 -286 264c0 158 115 258 286 262v122h134v-122c171 -3 287 -104 287 -262c0 -159 -116 -261 -287 -264v-194zM320 108v297c-91 -3 -147 -59 -147 -147c0 -90 56 -147 147 -150zM454 405v-297c92 3 147 60 147 150
c0 88 -55 144 -147 147z" />
    <glyph glyph-name="phi.ss14" horiz-adv-x="767" 
d="M733 278c0 -151 -110 -256 -286 -279v-199h-134v197c-186 16 -279 106 -279 267c0 169 112 255 237 255v-121c-47 -4 -95 -42 -95 -132c0 -97 45 -142 137 -155v190c0 145 70 219 194 219c138 0 226 -98 226 -242zM447 318v-205c94 14 142 61 142 167
c0 86 -31 130 -81 130c-39 0 -61 -27 -61 -92z" />
    <glyph glyph-name="chi" unicode="&#x3c7;" horiz-adv-x="567" 
d="M144 -200h-150l210 364l-97 192c-16 30 -29 39 -65 39h-29v119h68c89 0 107 -22 154 -122l57 -118l130 240h143l-201 -348l111 -208c16 -31 28 -39 64 -39h29v-119h-58c-98 0 -113 24 -162 120l-70 137z" />
    <glyph glyph-name="psi" unicode="&#x3c8;" horiz-adv-x="742" 
d="M561 272v242h141v-256c0 -179 -122 -247 -264 -261v-197h-134v198c-146 15 -264 83 -264 260v256h141v-242c0 -96 35 -143 123 -158v528h134v-529c86 14 123 62 123 159z" />
    <glyph glyph-name="omega" unicode="&#x3c9;" horiz-adv-x="790" 
d="M236 -6c-106 0 -202 67 -202 242c0 125 60 235 111 278h149c-65 -77 -116 -162 -116 -280c0 -80 26 -125 78 -125c49 0 74 36 74 107v123h130v-123c0 -71 22 -107 72 -107c52 0 80 45 80 125c0 118 -51 203 -116 280h149c51 -43 111 -153 111 -278
c0 -175 -96 -242 -202 -242c-95 0 -139 43 -160 109c-25 -67 -65 -109 -158 -109z" />
    <glyph glyph-name="omega.ss15" horiz-adv-x="774" 
d="M237 -6c-123 0 -203 100 -203 257c0 178 86 262 218 267v-126c-47 -10 -79 -55 -79 -142c0 -90 36 -133 82 -133s67 36 67 105v117h130v-117c0 -69 21 -105 68 -105s81 43 81 133c0 87 -34 134 -79 142v126c130 -3 218 -89 218 -267c0 -157 -79 -257 -203 -257
c-84 0 -133 43 -150 111c-19 -68 -68 -111 -150 -111z" />
    <glyph glyph-name="iotatonos" unicode="&#x3af;" horiz-adv-x="285" 
d="M162 569h-92l25 161h143zM275 0h-86c-100 0 -143 44 -143 142v372h141v-342c0 -43 16 -53 54 -53h34v-119z" />
    <glyph glyph-name="iotadieresis" unicode="&#x3ca;" horiz-adv-x="285" 
d="M-63 649c0 42 33 73 75 73c43 0 76 -31 76 -73c0 -41 -33 -73 -76 -73c-42 0 -75 32 -75 73zM145 649c0 42 33 73 75 73c43 0 75 -31 75 -73c0 -41 -32 -73 -75 -73c-42 0 -75 32 -75 73zM275 0h-86c-100 0 -143 44 -143 142v372h141v-342c0 -43 16 -53 54 -53h34v-119z
" />
    <glyph glyph-name="iotadieresistonos" unicode="&#x390;" horiz-adv-x="285" 
d="M149 574h-71l-4 162h118zM-45 600c-30 10 -47 39 -37 70c11 31 42 47 72 37c31 -10 48 -40 37 -71c-10 -32 -41 -46 -72 -36zM254 600c-30 10 -46 39 -36 70s41 47 71 37c31 -10 47 -40 38 -71c-10 -32 -42 -46 -73 -36zM275 0h-86c-100 0 -143 44 -143 142v372h141v-342
c0 -43 16 -53 54 -53h34v-119z" />
    <glyph glyph-name="upsilontonos" unicode="&#x3cd;" horiz-adv-x="567" 
d="M329 569h-92l25 161h143zM284 -6c-129 0 -244 54 -244 232v288h141v-273c0 -87 28 -130 103 -130c74 0 102 43 102 130v273h141v-288c0 -178 -115 -232 -243 -232z" />
    <glyph glyph-name="upsilondieresis" unicode="&#x3cb;" horiz-adv-x="567" 
d="M105 649c0 42 33 73 75 73c43 0 76 -31 76 -73c0 -41 -33 -73 -76 -73c-42 0 -75 32 -75 73zM313 649c0 42 33 73 75 73c43 0 75 -31 75 -73c0 -41 -32 -73 -75 -73c-42 0 -75 32 -75 73zM284 -6c-129 0 -244 54 -244 232v288h141v-273c0 -87 28 -130 103 -130
c74 0 102 43 102 130v273h141v-288c0 -178 -115 -232 -243 -232z" />
    <glyph glyph-name="upsilondieresistonos" unicode="&#x3b0;" horiz-adv-x="567" 
d="M312 573h-70l-5 163h118zM119 599c-31 10 -47 40 -38 71c11 31 42 46 73 36c30 -10 47 -40 36 -71c-9 -31 -41 -46 -71 -36zM417 599c-29 10 -45 40 -36 71c10 31 42 46 72 36s47 -40 37 -71s-42 -46 -73 -36zM284 -6c-129 0 -244 54 -244 232v288h141v-273
c0 -87 28 -130 103 -130c74 0 102 43 102 130v273h141v-288c0 -178 -115 -232 -243 -232z" />
    <glyph glyph-name="omicrontonos" unicode="&#x3cc;" 
d="M346 569h-92l25 161h143zM300 -6c-164 0 -271 105 -271 263s107 263 271 263s271 -105 271 -263c0 -159 -107 -263 -271 -263zM300 109c79 0 128 61 128 148s-49 148 -128 148s-127 -61 -127 -148s48 -148 127 -148z" />
    <glyph glyph-name="omegatonos" unicode="&#x3ce;" horiz-adv-x="790" 
d="M440 569h-92l25 161h143zM236 -6c-106 0 -202 67 -202 242c0 125 60 235 111 278h149c-65 -77 -116 -162 -116 -280c0 -80 26 -125 78 -125c49 0 74 36 74 107v123h130v-123c0 -71 22 -107 72 -107c52 0 80 45 80 125c0 118 -51 203 -116 280h149
c51 -43 111 -153 111 -278c0 -175 -96 -242 -202 -242c-95 0 -139 43 -160 109c-25 -67 -65 -109 -158 -109z" />
    <glyph glyph-name="omegatonos.ss15" horiz-adv-x="774" 
d="M433 569h-92l25 161h143zM237 -6c-123 0 -203 100 -203 257c0 178 86 262 218 267v-126c-47 -10 -79 -55 -79 -142c0 -90 36 -133 82 -133s67 36 67 105v117h130v-117c0 -69 21 -105 68 -105s81 43 81 133c0 87 -34 134 -79 142v126c130 -3 218 -89 218 -267
c0 -157 -79 -257 -203 -257c-84 0 -133 43 -150 111c-19 -68 -68 -111 -150 -111z" />
    <glyph glyph-name="alphatonos" unicode="&#x3ac;" horiz-adv-x="616" 
d="M275 730h143l-76 -161h-92zM590 119h15v-119h-78c-64 0 -95 26 -101 81c-33 -49 -84 -87 -161 -87c-137 0 -236 101 -236 264c0 159 99 262 235 262c72 0 123 -30 155 -75l14 69h124v-363c0 -27 11 -32 33 -32zM296 109c75 0 121 60 121 147c0 88 -46 149 -121 149
s-123 -60 -123 -148s48 -148 123 -148z" />
    <glyph glyph-name="alphatonos.ss01" horiz-adv-x="612" 
d="M282 730h143l-76 -161h-92zM425 446l14 68h124v-514h-125l-12 72c-34 -43 -85 -77 -158 -77c-138 -1 -239 100 -239 263c0 159 101 263 238 263c73 0 125 -31 158 -75zM299 109c77 0 125 60 125 147c0 88 -48 149 -125 149s-126 -61 -126 -149c0 -87 49 -147 126 -147z
" />
    <glyph glyph-name="epsilontonos" unicode="&#x3ad;" horiz-adv-x="532" 
d="M250 730h143l-76 -161h-92zM375 171h141c-2 -112 -86 -177 -258 -177c-146 0 -236 51 -236 149c0 66 38 106 104 119c-54 13 -88 47 -88 106c0 89 89 152 237 152c149 0 234 -70 238 -173h-141c-4 46 -35 73 -101 73c-56 0 -93 -20 -93 -58c0 -37 30 -52 84 -52h61v-103
h-69c-58 0 -89 -15 -89 -55c0 -42 38 -60 104 -60c67 0 102 27 106 79z" />
    <glyph glyph-name="etatonos" unicode="&#x3ae;" horiz-adv-x="604" 
d="M239 730h143l-76 -161h-92zM358 520c119 0 206 -64 206 -241v-479h-141v471c0 87 -32 133 -103 133c-73 0 -115 -52 -115 -141v-263h-141v363c0 27 -11 32 -33 32h-16v119h79c61 0 91 -24 97 -73c34 45 82 79 167 79z" />
    <glyph glyph-name="u1F10B" unicode="&#x1f10b;" horiz-adv-x="790" 
d="M395 706c210 0 364 -148 364 -356s-154 -356 -364 -356s-363 148 -363 356s153 356 363 356zM395 619c-152 0 -262 -113 -262 -269s110 -269 262 -269c153 0 262 113 262 269s-109 269 -262 269zM239 350c0 116 59 188 157 188c97 0 156 -72 156 -188s-59 -188 -156 -188
c-98 0 -157 72 -157 188zM455 350c0 64 -22 104 -59 104c-39 0 -61 -40 -61 -104c0 -65 22 -104 61 -104c37 0 59 39 59 104z" />
    <glyph glyph-name="u1F10B.zero" horiz-adv-x="790" 
d="M395 706c210 0 364 -148 364 -356s-154 -356 -364 -356s-363 148 -363 356s153 356 363 356zM395 619c-152 0 -262 -113 -262 -269s110 -269 262 -269c153 0 262 113 262 269s-109 269 -262 269zM396 538c97 0 156 -72 156 -188s-59 -188 -156 -188
c-98 0 -157 72 -157 188s59 188 157 188zM396 456c-39 0 -62 -40 -62 -106c0 -12 0 -24 2 -34l100 118c-10 15 -24 22 -40 22zM396 244c37 0 61 39 61 106c0 13 0 24 -2 34l-100 -119c10 -13 24 -21 41 -21z" />
    <glyph glyph-name="uni2780" unicode="&#x2780;" horiz-adv-x="790" 
d="M395 706c210 0 364 -148 364 -356s-154 -356 -364 -356s-363 148 -363 356s153 356 363 356zM395 619c-152 0 -262 -113 -262 -269s110 -269 262 -269c153 0 262 113 262 269s-109 269 -262 269zM358 502v30h91v-363l-93 -1v216c-6 -2 -12 -3 -19 -3h-62v85h57
c17 0 26 17 26 36z" />
    <glyph glyph-name="uni2780.ss09" horiz-adv-x="790" 
d="M395 706c210 0 364 -148 364 -356s-154 -356 -364 -356s-363 148 -363 356s153 356 363 356zM395 619c-152 0 -262 -113 -262 -269s110 -269 262 -269c153 0 262 113 262 269s-109 269 -262 269zM450 532v-277h75v-87h-250v86h81v130c-5 -2 -11 -3 -19 -3h-62v85h57
c17 0 26 17 26 36v30h92z" />
    <glyph glyph-name="uni2781" unicode="&#x2781;" horiz-adv-x="790" 
d="M395 706c210 0 364 -148 364 -356s-154 -356 -364 -356s-363 148 -363 356s153 356 363 356zM395 619c-152 0 -262 -113 -262 -269s110 -269 262 -269c153 0 262 113 262 269s-109 269 -262 269zM340 393h-94v7c0 84 63 138 143 138c87 0 147 -49 147 -123
c0 -54 -33 -84 -67 -108l-74 -53h145v-86h-290v81l146 101c22 16 41 35 41 63c0 25 -20 41 -47 41c-30 0 -50 -19 -50 -58v-3z" />
    <glyph glyph-name="uni2782" unicode="&#x2782;" horiz-adv-x="790" 
d="M395 706c210 0 364 -148 364 -356s-154 -356 -364 -356s-363 148 -363 356s153 356 363 356zM395 619c-152 0 -262 -113 -262 -269s110 -269 262 -269c153 0 262 113 262 269s-109 269 -262 269zM344 415h-94c2 77 56 123 145 123c88 0 139 -43 139 -101
c0 -43 -29 -68 -61 -78c44 -9 71 -39 71 -83c0 -70 -57 -114 -154 -114c-98 0 -150 46 -151 130h96c2 -30 19 -50 54 -50c30 0 53 16 53 41c0 26 -19 41 -54 41h-23v59h22c30 0 51 14 51 37s-18 38 -45 38c-31 0 -47 -17 -49 -43z" />
    <glyph glyph-name="uni2783" unicode="&#x2783;" horiz-adv-x="790" 
d="M395 706c210 0 364 -148 364 -356s-154 -356 -364 -356s-363 148 -363 356s153 356 363 356zM395 619c-152 0 -262 -113 -262 -269s110 -269 262 -269c153 0 262 113 262 269s-109 269 -262 269zM221 330l147 202h118v-205h54v-80h-54v-79h-93v79h-172v83zM393 327v119
l-85 -119h85z" />
    <glyph glyph-name="uni2783.ss10" horiz-adv-x="790" 
d="M395 706c210 0 364 -148 364 -356s-154 -356 -364 -356s-363 148 -363 356s153 356 363 356zM395 619c-152 0 -262 -113 -262 -269s110 -269 262 -269c153 0 262 113 262 269s-109 269 -262 269zM230 331l147 201h118v-364h-93v80h-172v83zM402 331v110l-81 -110h81z" />
    <glyph glyph-name="uni2784" unicode="&#x2784;" horiz-adv-x="790" 
d="M395 706c210 0 364 -148 364 -356s-154 -356 -364 -356s-363 148 -363 356s153 356 363 356zM395 619c-152 0 -262 -113 -262 -269s110 -269 262 -269c153 0 262 113 262 269s-109 269 -262 269zM270 532h245v-81h-170l-4 -63c17 16 42 26 71 26c73 0 122 -49 122 -122
c0 -78 -58 -130 -141 -130c-78 0 -132 47 -138 117h93c4 -20 22 -33 46 -33c25 0 44 18 44 46s-19 46 -45 46c-20 1 -35 -10 -43 -25h-90z" />
    <glyph glyph-name="uni2785" unicode="&#x2785;" horiz-adv-x="790" 
d="M395 706c210 0 364 -148 364 -356s-154 -356 -364 -356s-363 148 -363 356s153 356 363 356zM395 619c-152 0 -262 -113 -262 -269s110 -269 262 -269c153 0 262 113 262 269s-109 269 -262 269zM238 344c0 118 64 194 160 194c68 0 125 -41 136 -112h-91
c-5 24 -24 40 -51 40c-42 0 -67 -43 -67 -92v-17c12 27 38 49 83 49c78 0 129 -48 129 -121c0 -74 -57 -123 -143 -123c-98 0 -156 73 -156 182zM444 285c0 29 -20 49 -50 49s-50 -20 -50 -49s20 -48 50 -48s50 19 50 48z" />
    <glyph glyph-name="uni2786" unicode="&#x2786;" horiz-adv-x="790" 
d="M395 706c210 0 364 -148 364 -356s-154 -356 -364 -356s-363 148 -363 356s153 356 363 356zM395 619c-152 0 -262 -113 -262 -269s110 -269 262 -269c153 0 262 113 262 269s-109 269 -262 269zM262 450v82h272v-76l-138 -288h-105l139 282h-168z" />
    <glyph glyph-name="uni2786.ss09" horiz-adv-x="790" 
d="M395 706c210 0 364 -148 364 -356s-154 -356 -364 -356s-363 148 -363 356s153 356 363 356zM395 619c-152 0 -262 -113 -262 -269s110 -269 262 -269c153 0 262 113 262 269s-109 269 -262 269zM257 532h284v-76l-138 -288h-105l139 282h-95v-49h-85v131z" />
    <glyph glyph-name="uni2787" unicode="&#x2787;" horiz-adv-x="790" 
d="M395 706c210 0 364 -148 364 -356s-154 -356 -364 -356s-363 148 -363 356s153 356 363 356zM395 619c-152 0 -262 -113 -262 -269s110 -269 262 -269c153 0 262 113 262 269s-109 269 -262 269zM242 270c0 42 23 74 72 89c-38 16 -60 40 -60 82c0 56 53 97 141 97
s142 -41 142 -97c0 -44 -24 -66 -60 -82c48 -15 71 -47 71 -89c0 -63 -56 -108 -153 -108c-96 0 -153 45 -153 108zM445 429c0 24 -21 40 -50 40c-28 0 -49 -16 -49 -40s21 -40 49 -40c30 0 50 16 50 40zM451 278c0 26 -23 44 -56 44c-32 0 -56 -18 -56 -44
c0 -24 24 -43 56 -43c33 0 56 19 56 43z" />
    <glyph glyph-name="uni2788" unicode="&#x2788;" horiz-adv-x="790" 
d="M395 706c210 0 364 -148 364 -356s-154 -356 -364 -356s-363 148 -363 356s153 356 363 356zM395 619c-152 0 -262 -113 -262 -269s110 -269 262 -269c153 0 262 113 262 269s-109 269 -262 269zM551 356c0 -118 -64 -194 -160 -194c-68 0 -125 41 -136 112h91
c5 -24 24 -40 51 -40c42 0 67 39 67 92v17c-13 -28 -38 -49 -84 -49c-77 0 -128 48 -128 121c0 74 57 123 143 123c98 0 156 -73 156 -182zM345 415c0 -29 20 -49 50 -49s50 20 50 49s-20 48 -50 48s-50 -19 -50 -48z" />
    <glyph glyph-name="u1F10C" unicode="&#x1f10c;" horiz-adv-x="788" 
d="M394 706c-209 0 -362 -148 -362 -356s153 -356 362 -356c210 0 363 148 363 356s-153 356 -363 356zM238 350c0 116 59 188 157 188c97 0 156 -72 156 -188s-59 -188 -156 -188c-98 0 -157 72 -157 188zM454 350c0 64 -22 104 -59 104c-39 0 -61 -40 -61 -104
c0 -65 22 -104 61 -104c37 0 59 39 59 104z" />
    <glyph glyph-name="u1F10C.zero" horiz-adv-x="788" 
d="M394 706c-209 0 -362 -148 -362 -356s153 -356 362 -356c210 0 363 148 363 356s-153 356 -363 356zM395 538c97 0 156 -72 156 -188s-59 -188 -156 -188c-98 0 -157 72 -157 188s59 188 157 188zM395 456c-39 0 -62 -40 -62 -106c0 -12 0 -24 2 -34l100 118
c-10 15 -24 22 -40 22zM395 244c37 0 61 39 61 106c0 13 0 24 -2 34l-100 -119c10 -13 24 -21 41 -21z" />
    <glyph glyph-name="uni278A" unicode="&#x278a;" horiz-adv-x="788" 
d="M394 706c-209 0 -362 -148 -362 -356s153 -356 362 -356c210 0 363 148 363 356s-153 356 -363 356zM357 502v30h91v-363l-93 -1v216c-6 -2 -12 -3 -19 -3h-62v85h57c17 0 26 17 26 36z" />
    <glyph glyph-name="uni278A.ss09" horiz-adv-x="788" 
d="M394 706c-209 0 -362 -148 -362 -356s153 -356 362 -356c210 0 363 148 363 356s-153 356 -363 356zM449 532v-277h75v-87h-250v86h81v130c-5 -2 -11 -3 -19 -3h-62v85h57c17 0 26 17 26 36v30h92z" />
    <glyph glyph-name="uni278B" unicode="&#x278b;" horiz-adv-x="788" 
d="M394 706c-209 0 -362 -148 -362 -356s153 -356 362 -356c210 0 363 148 363 356s-153 356 -363 356zM339 393h-94v7c0 84 63 138 143 138c87 0 147 -49 147 -123c0 -54 -33 -84 -67 -108l-74 -53h145v-86h-290v81l146 101c22 16 41 35 41 63c0 25 -20 41 -47 41
c-30 0 -50 -19 -50 -58v-3z" />
    <glyph glyph-name="uni278C" unicode="&#x278c;" horiz-adv-x="788" 
d="M394 706c-209 0 -362 -148 -362 -356s153 -356 362 -356c210 0 363 148 363 356s-153 356 -363 356zM343 415h-94c2 77 56 123 145 123c88 0 139 -43 139 -101c0 -43 -29 -68 -61 -78c44 -9 71 -39 71 -83c0 -70 -57 -114 -154 -114c-98 0 -150 46 -151 130h96
c2 -30 19 -50 54 -50c30 0 53 16 53 41c0 26 -19 41 -54 41h-23v59h22c30 0 51 14 51 37s-18 38 -45 38c-31 0 -47 -17 -49 -43z" />
    <glyph glyph-name="uni278D" unicode="&#x278d;" horiz-adv-x="788" 
d="M394 706c-209 0 -362 -148 -362 -356s153 -356 362 -356c210 0 363 148 363 356s-153 356 -363 356zM220 330l147 202h118v-205h54v-80h-54v-79h-93v79h-172v83zM392 327v119l-85 -119h85z" />
    <glyph glyph-name="uni278D.ss10" horiz-adv-x="788" 
d="M394 706c-209 0 -362 -148 -362 -356s153 -356 362 -356c210 0 363 148 363 356s-153 356 -363 356zM229 331l147 201h118v-364h-93v80h-172v83zM401 331v110l-81 -110h81z" />
    <glyph glyph-name="uni278E" unicode="&#x278e;" horiz-adv-x="788" 
d="M394 706c-209 0 -362 -148 -362 -356s153 -356 362 -356c210 0 363 148 363 356s-153 356 -363 356zM269 532h245v-81h-170l-4 -63c17 16 42 26 71 26c73 0 122 -49 122 -122c0 -78 -58 -130 -141 -130c-78 0 -132 47 -138 117h93c4 -20 22 -33 46 -33c25 0 44 18 44 46
s-19 46 -45 46c-20 1 -35 -10 -43 -25h-90z" />
    <glyph glyph-name="uni278F" unicode="&#x278f;" horiz-adv-x="788" 
d="M394 706c-209 0 -362 -148 -362 -356s153 -356 362 -356c210 0 363 148 363 356s-153 356 -363 356zM237 344c0 118 64 194 160 194c68 0 125 -41 136 -112h-91c-5 24 -24 40 -51 40c-42 0 -67 -43 -67 -92v-17c12 27 38 49 83 49c78 0 129 -48 129 -121
c0 -74 -57 -123 -143 -123c-98 0 -156 73 -156 182zM443 285c0 29 -20 49 -50 49s-50 -20 -50 -49s20 -48 50 -48s50 19 50 48z" />
    <glyph glyph-name="uni2790" unicode="&#x2790;" horiz-adv-x="788" 
d="M394 706c-209 0 -362 -148 -362 -356s153 -356 362 -356c210 0 363 148 363 356s-153 356 -363 356zM261 450v82h272v-76l-138 -288h-105l139 282h-168z" />
    <glyph glyph-name="uni2790.ss09" horiz-adv-x="788" 
d="M394 706c-209 0 -362 -148 -362 -356s153 -356 362 -356c210 0 363 148 363 356s-153 356 -363 356zM256 532h284v-76l-138 -288h-105l139 282h-95v-49h-85v131z" />
    <glyph glyph-name="uni2791" unicode="&#x2791;" horiz-adv-x="788" 
d="M394 706c-209 0 -362 -148 -362 -356s153 -356 362 -356c210 0 363 148 363 356s-153 356 -363 356zM241 270c0 42 23 74 72 89c-38 16 -60 40 -60 82c0 56 53 97 141 97s142 -41 142 -97c0 -44 -24 -66 -60 -82c48 -15 71 -47 71 -89c0 -63 -56 -108 -153 -108
c-96 0 -153 45 -153 108zM444 429c0 24 -21 40 -50 40c-28 0 -49 -16 -49 -40s21 -40 49 -40c30 0 50 16 50 40zM450 278c0 26 -23 44 -56 44c-32 0 -56 -18 -56 -44c0 -24 24 -43 56 -43c33 0 56 19 56 43z" />
    <glyph glyph-name="uni2792" unicode="&#x2792;" horiz-adv-x="788" 
d="M394 706c-209 0 -362 -148 -362 -356s153 -356 362 -356c210 0 363 148 363 356s-153 356 -363 356zM550 356c0 -118 -64 -194 -160 -194c-68 0 -125 41 -136 112h91c5 -24 24 -40 51 -40c42 0 67 39 67 92v17c-13 -28 -38 -49 -84 -49c-77 0 -128 48 -128 121
c0 74 57 123 143 123c98 0 156 -73 156 -182zM344 415c0 -29 20 -49 50 -49s50 20 50 49s-20 48 -50 48s-50 -19 -50 -48z" />
    <glyph glyph-name="zero" unicode="0" horiz-adv-x="644" 
d="M33 334v32c0 209 119 340 289 340c169 0 288 -131 288 -340v-32c0 -213 -119 -340 -288 -340c-170 0 -289 127 -289 340zM466 339v22c0 144 -59 223 -144 223c-86 0 -145 -79 -145 -223v-22c0 -145 59 -223 145 -223c85 0 144 78 144 223z" />
    <glyph glyph-name="zero.zero" horiz-adv-x="644" 
d="M322 706c169 0 288 -131 288 -340v-32c0 -213 -119 -340 -288 -340c-170 0 -289 127 -289 340v32c0 209 119 340 289 340zM175 361v-22c0 -24 2 -47 5 -67l252 252c-26 42 -65 64 -110 64c-87 0 -147 -80 -147 -227zM469 339v22c0 25 -2 48 -5 69l-252 -254
c26 -42 64 -64 110 -64c87 0 147 80 147 227z" />
    <glyph glyph-name="one" unicode="1" horiz-adv-x="367" 
d="M166 636v64h141v-700h-144v453c-11 -3 -23 -4 -38 -4h-117v119h104c40 0 54 27 54 68z" />
    <glyph glyph-name="one.ss09" horiz-adv-x="469" 
d="M318 700v-578h137v-122h-428v122h148v323c-11 -2 -22 -3 -35 -3h-111v119h95c36 0 53 33 53 71v68h141z" />
    <glyph glyph-name="two" unicode="2" horiz-adv-x="562" 
d="M21 0v111l266 220c61 50 99 92 99 149c0 69 -45 105 -109 105c-67 0 -113 -46 -113 -122v-11h-145v20c0 132 99 234 259 234c164 0 253 -89 253 -220c0 -103 -56 -166 -144 -237l-157 -128h305v-121h-514z" />
    <glyph glyph-name="three" unicode="3" horiz-adv-x="585" 
d="M416 364c75 -15 136 -64 136 -166c0 -121 -104 -204 -269 -204s-270 84 -270 234h143c1 -79 58 -121 134 -121c65 0 116 37 116 100c0 55 -41 90 -122 90h-70v115h62c77 0 116 39 116 94c0 57 -48 87 -107 87c-66 0 -117 -42 -120 -107h-140c2 131 108 220 261 220
c158 0 251 -74 251 -189c0 -84 -52 -135 -121 -153z" />
    <glyph glyph-name="four" unicode="4" horiz-adv-x="607" 
d="M11 150v119l312 431h175v-430h97v-120h-97v-150h-141v150h-346zM357 557l-208 -287h208v287z" />
    <glyph glyph-name="four.ss10" horiz-adv-x="571" 
d="M11 273l316 427h184v-700h-143v151h-357v122zM368 273v289l-217 -289h217z" />
    <glyph glyph-name="five" unicode="5" horiz-adv-x="590" 
d="M330 477c134 0 236 -97 236 -240c0 -161 -120 -243 -265 -243c-162 0 -262 103 -268 231h143c7 -63 55 -113 125 -113c61 0 120 42 120 125c0 73 -47 126 -120 126c-37 0 -97 -14 -118 -73h-139l20 410h460v-121h-329l-8 -153c35 32 81 51 143 51z" />
    <glyph glyph-name="six" unicode="6" horiz-adv-x="611" 
d="M97 104c-40 59 -64 142 -64 239c0 234 112 363 289 363c130 0 233 -75 250 -203h-142c-13 56 -57 87 -119 87c-90 0 -142 -72 -142 -201c0 -5 0 -9 1 -17c3 5 5 9 9 15c32 50 93 82 164 82c142 0 238 -96 238 -237c0 -143 -106 -238 -261 -238c-98 0 -173 40 -223 110z
M437 232c0 72 -46 125 -117 125s-120 -52 -120 -125s48 -125 119 -125s118 53 118 125z" />
    <glyph glyph-name="seven" unicode="7" horiz-adv-x="532" 
d="M9 578v122h513v-93l-308 -607h-156l306 578h-355z" />
    <glyph glyph-name="seven.ss09" horiz-adv-x="553" 
d="M542 700v-93l-286 -607h-150l285 578h-248v-104h-122v226h521z" />
    <glyph glyph-name="eight" unicode="8" 
d="M434 366c72 -16 138 -71 138 -171c0 -120 -98 -201 -272 -201s-272 81 -272 201c0 99 66 153 138 170c-62 18 -120 68 -120 156c0 108 96 185 254 185s254 -77 254 -185c0 -82 -57 -137 -120 -155zM300 603c-66 0 -109 -36 -109 -89c0 -54 43 -91 109 -91
c67 0 110 37 110 91c0 53 -43 89 -110 89zM300 96c75 0 126 44 126 104c0 61 -51 106 -126 106c-74 0 -125 -45 -125 -106c0 -60 51 -104 125 -104z" />
    <glyph glyph-name="nine" unicode="9" horiz-adv-x="611" 
d="M289 -6c-144 0 -237 74 -253 203h142c12 -55 55 -87 119 -87c93 0 143 75 143 201c0 5 0 11 -1 18l-15 -22c-34 -47 -90 -73 -156 -73c-142 0 -238 91 -238 234c0 139 105 238 261 238c94 0 167 -37 216 -102c45 -60 71 -145 71 -246c0 -232 -103 -364 -289 -364z
M290 345c71 0 121 52 121 125c0 72 -48 123 -119 123s-118 -52 -118 -123c0 -72 45 -125 116 -125z" />
    <glyph glyph-name="zero.osf" horiz-adv-x="618" 
d="M309 -6c-163 0 -280 109 -280 263c0 153 117 263 280 263c164 0 280 -110 280 -263c0 -154 -116 -263 -280 -263zM309 112c80 0 137 62 137 145s-57 144 -137 144c-79 0 -137 -61 -137 -144s58 -145 137 -145z" />
    <glyph glyph-name="zero.osf.zero" horiz-adv-x="618" 
d="M309 520c164 0 280 -110 280 -263c0 -154 -116 -263 -280 -263c-163 0 -280 109 -280 263c0 153 117 263 280 263zM309 405c-81 0 -139 -63 -139 -148c0 -26 5 -50 15 -71l196 200c-21 12 -45 19 -72 19zM309 109c81 0 140 63 140 148c0 26 -5 49 -15 70l-195 -200
c20 -12 44 -18 70 -18z" />
    <glyph glyph-name="one.osf" horiz-adv-x="337" 
d="M8 291v117h88c36 0 53 31 53 69v37h138v-514h-141v295c-16 -3 -32 -4 -51 -4h-87z" />
    <glyph glyph-name="one.osf.ss09" horiz-adv-x="436" 
d="M301 514v-396h123v-118h-402v118h138v178c-16 -3 -32 -4 -51 -4h-83v117h84c36 0 53 30 53 68v37h138z" />
    <glyph glyph-name="two.osf" horiz-adv-x="515" 
d="M360 174l-122 -60h251v-114h-465v108l220 118c60 32 97 60 97 105c0 46 -33 74 -87 74c-61 0 -98 -36 -98 -101h-138c0 133 94 216 239 216c140 0 228 -75 228 -185c0 -65 -47 -121 -125 -161z" />
    <glyph glyph-name="three.osf" horiz-adv-x="578" 
d="M423 178c72 -18 124 -68 124 -162c0 -121 -103 -202 -263 -202c-172 0 -263 83 -263 235h140c2 -83 49 -124 125 -124c68 0 117 39 117 98c0 57 -40 91 -113 91h-66v113h56c70 0 112 38 111 89c-1 60 -43 93 -106 93c-65 0 -112 -45 -115 -112h-137
c1 131 101 223 255 223s247 -76 247 -189c0 -81 -45 -132 -112 -153z" />
    <glyph glyph-name="four.osf" horiz-adv-x="583" 
d="M14 119l298 395h176v-395h84v-119h-84v-180h-135v180h-339v119zM353 119v261l-195 -261h195z" />
    <glyph glyph-name="four.osf.ss10" horiz-adv-x="546" 
d="M14 119l305 395h177v-694h-137v180h-345v119zM359 119v263l-199 -263h199z" />
    <glyph glyph-name="five.osf" horiz-adv-x="572" 
d="M320 286c132 0 229 -90 229 -234c0 -155 -120 -238 -259 -238c-158 0 -251 97 -257 220h141c7 -58 50 -105 117 -105c65 0 114 47 114 121c0 71 -45 121 -114 121c-50 0 -87 -24 -110 -73l-139 1l20 415h445v-121h-322l-8 -157c40 36 87 50 143 50z" />
    <glyph glyph-name="six.osf" horiz-adv-x="594" 
d="M305 -6c-91 0 -160 36 -209 101c-44 57 -67 148 -67 245c0 224 103 354 284 354c143 0 232 -73 248 -200h-141c-16 52 -52 85 -113 85c-94 0 -141 -71 -141 -188v-19c3 4 6 9 9 13c40 50 91 70 159 70c139 0 231 -94 231 -230c0 -139 -112 -231 -260 -231zM307 106
c69 0 114 50 114 118c0 69 -44 120 -112 120s-115 -50 -115 -119s45 -119 113 -119z" />
    <glyph glyph-name="seven.osf" horiz-adv-x="530" 
d="M14 394v120h498v-114l-294 -580h-156l293 574h-341z" />
    <glyph glyph-name="seven.osf.ss09" horiz-adv-x="551" 
d="M23 288v226h510v-114l-291 -580h-155l289 574h-229v-106h-124z" />
    <glyph glyph-name="eight.osf" horiz-adv-x="594" 
d="M425 360c72 -18 139 -67 139 -172c0 -114 -95 -194 -267 -194c-173 0 -267 80 -267 194c0 102 66 151 138 170c-60 19 -118 67 -118 154c0 108 92 182 247 182s247 -74 247 -182c0 -81 -58 -134 -119 -152zM297 597c-62 0 -105 -37 -105 -90c0 -54 43 -92 105 -92
s105 38 105 92c0 53 -43 90 -105 90zM297 94c73 0 123 44 123 105s-50 106 -123 106s-123 -45 -123 -106s50 -105 123 -105z" />
    <glyph glyph-name="nine.osf" horiz-adv-x="594" 
d="M280 -186c-143 0 -231 75 -247 202h141c15 -53 52 -87 113 -87c94 0 141 74 141 194c0 7 0 12 -1 19c-3 -5 -6 -10 -10 -15c-37 -48 -94 -68 -157 -68c-140 0 -231 94 -231 230c0 139 112 231 260 231c90 0 159 -37 209 -101c44 -57 67 -148 67 -245
c0 -227 -104 -360 -285 -360zM284 170c69 0 116 50 116 119s-46 119 -114 119s-114 -50 -114 -118c0 -69 44 -120 112 -120z" />
    <glyph glyph-name="zero.tf" 
d="M28 334v32c0 199 103 340 272 340s272 -141 272 -340v-32c0 -199 -103 -340 -272 -340s-272 141 -272 340zM428 339v22c0 132 -43 226 -128 226s-128 -94 -128 -226v-22c0 -132 43 -225 128 -225s128 93 128 225z" />
    <glyph glyph-name="zero.tf.zero" 
d="M300 706c169 0 272 -141 272 -340v-32c0 -199 -103 -340 -272 -340s-272 141 -272 340v32c0 199 103 340 272 340zM169 361v-22c0 -23 1 -44 4 -65l232 241c-22 49 -57 78 -105 78c-87 0 -131 -96 -131 -232zM431 339v22c0 22 -1 42 -3 62l-231 -241
c22 -46 56 -74 103 -74c87 0 131 96 131 231z" />
    <glyph glyph-name="one.tf" 
d="M385 700v-578h166v-122h-477v122h168v324c-11 -3 -22 -4 -35 -4h-121v119h105c36 0 53 33 53 71v68h141z" />
    <glyph glyph-name="two.tf" horiz-adv-x="586" 
d="M28 0v111l265 220c61 50 99 92 99 149c0 69 -45 105 -109 105c-66 0 -113 -46 -113 -122v-11h-145v20c0 132 100 234 259 234c164 0 254 -89 254 -220c0 -103 -57 -166 -145 -237l-156 -128h305v-121h-514z" />
    <glyph glyph-name="three.tf" horiz-adv-x="613" 
d="M422 364c75 -15 136 -64 136 -166c0 -121 -104 -204 -269 -204s-270 84 -270 234h143c2 -79 58 -121 134 -121c65 0 116 37 116 100c0 55 -41 90 -122 90h-70v115h62c77 0 116 39 116 94c0 57 -48 87 -107 87c-66 0 -117 -42 -120 -107h-140c2 131 108 220 261 220
c158 0 251 -74 251 -189c0 -84 -52 -135 -121 -153z" />
    <glyph glyph-name="four.tf" horiz-adv-x="628" 
d="M15 150v119l312 431h175v-430h97v-120h-97v-150h-141v150h-346zM361 557l-208 -287h208v287z" />
    <glyph glyph-name="four.tf.ss10" 
d="M25 273l315 427h185v-700h-144v151h-356v122zM381 273v289l-217 -289h217z" />
    <glyph glyph-name="five.tf" horiz-adv-x="602" 
d="M331 477c134 0 236 -97 236 -240c0 -161 -121 -243 -265 -243c-163 0 -263 103 -268 231h142c8 -63 56 -113 126 -113c60 0 120 42 120 125c0 73 -47 126 -120 126c-37 0 -97 -14 -118 -73h-140l20 410h461v-121h-329l-8 -153c35 32 80 51 143 51z" />
    <glyph glyph-name="six.tf" horiz-adv-x="619" 
d="M98 104c-41 59 -64 142 -64 239c0 234 111 363 288 363c130 0 234 -75 250 -203h-142c-13 56 -57 87 -119 87c-90 0 -141 -72 -141 -201v-17c3 5 5 9 9 15c32 50 93 82 165 82c141 0 237 -96 237 -237c0 -143 -105 -238 -261 -238c-98 0 -173 40 -222 110zM437 232
c0 72 -45 125 -116 125s-120 -52 -120 -125s47 -125 118 -125s118 53 118 125z" />
    <glyph glyph-name="seven.tf" horiz-adv-x="570" 
d="M21 578v122h513v-93l-308 -607h-156l305 578h-354z" />
    <glyph glyph-name="seven.tf.ss09" horiz-adv-x="570" 
d="M549 700v-93l-286 -607h-150l285 578h-248v-104h-122v226h521z" />
    <glyph glyph-name="eight.tf" horiz-adv-x="608" 
d="M438 366c71 -16 138 -71 138 -171c0 -120 -99 -201 -272 -201c-174 0 -272 81 -272 201c0 99 66 153 138 170c-62 18 -120 68 -120 156c0 108 96 185 254 185s254 -77 254 -185c0 -82 -57 -137 -120 -155zM304 603c-66 0 -109 -36 -109 -89c0 -54 43 -91 109 -91
c67 0 109 37 109 91c0 53 -42 89 -109 89zM304 96c75 0 125 44 125 104c0 61 -50 106 -125 106s-126 -45 -126 -106c0 -60 52 -104 126 -104z" />
    <glyph glyph-name="nine.tf" horiz-adv-x="616" 
d="M288 -6c-143 0 -236 74 -253 203h142c13 -55 55 -87 119 -87c94 0 143 75 143 201v18c-5 -7 -9 -13 -16 -22c-33 -47 -89 -73 -156 -73c-141 0 -237 91 -237 234c0 139 105 238 261 238c93 0 166 -37 216 -102c45 -60 70 -145 70 -246c0 -232 -103 -364 -289 -364z
M290 345c71 0 120 52 120 125c0 72 -48 123 -118 123c-71 0 -119 -52 -119 -123c0 -72 46 -125 117 -125z" />
    <glyph glyph-name="zero.tosf" 
d="M300 -6c-159 0 -272 110 -272 263s113 263 272 263s272 -110 272 -263s-113 -263 -272 -263zM300 112c76 0 129 61 129 145c0 83 -53 144 -129 144c-75 0 -129 -61 -129 -144c0 -84 54 -145 129 -145z" />
    <glyph glyph-name="zero.tosf.zero" 
d="M300 520c159 0 272 -110 272 -263s-113 -263 -272 -263s-272 110 -272 263s113 263 272 263zM300 404c-76 0 -132 -62 -132 -147c0 -24 4 -46 12 -65l189 192c-19 13 -43 20 -69 20zM300 109c77 0 132 62 132 148c0 24 -4 46 -12 66l-189 -194c20 -13 43 -20 69 -20z" />
    <glyph glyph-name="one.tosf" 
d="M397 514v-396h167v-118h-478v118h170v177c-16 -3 -32 -4 -51 -4h-111v117h112c36 0 53 31 53 69v37h138z" />
    <glyph glyph-name="two.tosf" 
d="M406 174l-122 -60h251v-114h-465v108l220 118c61 32 97 60 97 105c0 46 -32 74 -87 74c-60 0 -98 -36 -98 -101h-138c0 133 94 216 239 216c140 0 228 -75 228 -185c0 -65 -47 -121 -125 -161z" />
    <glyph glyph-name="three.tosf" 
d="M421 178c76 -14 138 -62 138 -166c0 -121 -104 -203 -269 -203s-270 83 -270 233h143c2 -79 58 -120 134 -120c65 0 116 37 116 100c0 55 -41 90 -122 90h-70v115h62c77 0 116 38 116 94c0 57 -48 86 -107 86c-66 0 -117 -42 -120 -107h-140c2 132 108 221 261 221
c158 0 251 -75 251 -189c0 -85 -53 -136 -123 -154z" />
    <glyph glyph-name="four.tosf" 
d="M17 119l298 395h177v-395h84v-119h-84v-180h-136v180h-339v119zM356 119v261l-195 -261h195z" />
    <glyph glyph-name="four.tosf.ss10" 
d="M25 87l315 427h185v-700h-144v150h-356v123zM381 87v289l-217 -289h217z" />
    <glyph glyph-name="five.tosf" 
d="M340 286c132 0 229 -90 229 -234c0 -154 -120 -238 -259 -238c-158 0 -251 97 -257 220h141c7 -58 50 -104 117 -104c65 0 114 46 114 121c0 70 -46 120 -114 120c-50 0 -87 -24 -110 -72h-139l20 415h445v-120h-322l-8 -157c40 35 87 49 143 49z" />
    <glyph glyph-name="six.tosf" 
d="M308 -6c-90 0 -159 36 -209 101c-44 57 -67 148 -67 245c0 224 104 354 285 354c143 0 231 -73 247 -200h-141c-15 52 -52 85 -113 85c-93 0 -140 -71 -140 -188v-19c2 4 6 9 9 13c39 50 90 70 158 70c140 0 231 -94 231 -230c0 -139 -111 -231 -260 -231zM311 106
c68 0 114 50 114 118c0 69 -44 120 -112 120c-69 0 -116 -50 -116 -119s46 -119 114 -119z" />
    <glyph glyph-name="seven.tosf" 
d="M39 394v120h498v-114l-294 -580h-156l293 574h-341z" />
    <glyph glyph-name="seven.tosf.ss09" horiz-adv-x="577" 
d="M35 288v226h510v-114l-291 -580h-155l289 574h-229v-106h-124z" />
    <glyph glyph-name="eight.tosf" 
d="M428 360c72 -18 139 -67 139 -172c0 -114 -95 -194 -267 -194c-173 0 -267 80 -267 194c0 102 67 151 139 170c-62 19 -119 67 -119 154c0 108 92 182 247 182s247 -74 247 -182c0 -81 -58 -134 -119 -152zM300 597c-62 0 -105 -37 -105 -90c0 -54 43 -92 105 -92
s105 38 105 92c0 53 -43 90 -105 90zM300 94c73 0 123 44 123 105s-50 106 -123 106s-123 -45 -123 -106s50 -105 123 -105z" />
    <glyph glyph-name="nine.tosf" 
d="M282 -186c-143 0 -232 75 -248 202h141c16 -53 52 -87 113 -87c94 0 141 74 141 194c0 7 0 12 -1 19c-3 -5 -6 -10 -10 -15c-37 -48 -94 -68 -157 -68c-140 0 -231 94 -231 230c0 139 112 231 260 231c91 0 159 -37 209 -101c44 -57 67 -148 67 -245
c0 -227 -104 -360 -284 -360zM285 170c69 0 116 50 116 119s-46 119 -114 119s-114 -50 -114 -118c0 -69 44 -120 112 -120z" />
    <glyph glyph-name="uni2080" unicode="&#x2080;" horiz-adv-x="347" 
d="M17 82c0 116 59 188 157 188c97 0 156 -72 156 -188s-59 -188 -156 -188c-98 0 -157 72 -157 188zM233 82c0 64 -22 104 -59 104c-39 0 -61 -40 -61 -104c0 -65 22 -104 61 -104c37 0 59 39 59 104z" />
    <glyph glyph-name="uni2080.zero" horiz-adv-x="347" 
d="M174 270c97 0 156 -72 156 -188s-59 -188 -156 -188c-98 0 -157 72 -157 188s59 188 157 188zM174 188c-39 0 -62 -40 -62 -106c0 -12 0 -24 2 -34l100 118c-10 15 -24 22 -40 22zM174 -24c37 0 61 39 61 106c0 13 0 24 -2 34l-100 -119c10 -13 24 -21 41 -21z" />
    <glyph glyph-name="uni2081" unicode="&#x2081;" horiz-adv-x="224" 
d="M87 234v30h91v-363l-93 -1v216c-6 -2 -12 -3 -19 -3h-62v85h57c17 0 26 17 26 36z" />
    <glyph glyph-name="uni2081.ss09" horiz-adv-x="250" 
d="M175 264v-277h75v-87h-250v86h81v130c-5 -2 -11 -3 -19 -3h-62v85h57c17 0 26 17 26 36v30h92z" />
    <glyph glyph-name="uni2082" unicode="&#x2082;" horiz-adv-x="327" 
d="M110 125h-94v7c0 84 63 138 143 138c87 0 147 -49 147 -123c0 -54 -33 -84 -67 -108l-74 -53h145v-86h-290v81l146 101c22 16 41 35 41 63c0 25 -20 41 -47 41c-30 0 -50 -19 -50 -58v-3z" />
    <glyph glyph-name="uni2083" unicode="&#x2083;" horiz-adv-x="336" 
d="M119 147h-94c2 77 56 123 145 123c88 0 139 -43 139 -101c0 -43 -29 -68 -61 -78c44 -9 71 -39 71 -83c0 -70 -57 -114 -154 -114c-98 0 -150 46 -151 130h96c2 -30 19 -50 54 -50c30 0 53 16 53 41c0 26 -19 41 -54 41h-23v59h22c30 0 51 14 51 37s-18 38 -45 38
c-31 0 -47 -17 -49 -43z" />
    <glyph glyph-name="uni2084" unicode="&#x2084;" horiz-adv-x="353" 
d="M17 62l147 202h118v-205h54v-80h-54v-79h-93v79h-172v83zM189 59v119l-85 -119h85z" />
    <glyph glyph-name="uni2084.ss10" horiz-adv-x="328" 
d="M17 63l147 201h118v-364h-93v80h-172v83zM189 63v110l-81 -110h81z" />
    <glyph glyph-name="uni2085" unicode="&#x2085;" horiz-adv-x="318" 
d="M36 264h245v-81h-170l-4 -63c17 16 42 26 71 26c73 0 122 -49 122 -122c0 -78 -58 -130 -141 -130c-78 0 -132 47 -138 117h93c4 -20 22 -33 46 -33c25 0 44 18 44 46s-19 46 -45 46c-20 1 -35 -10 -43 -25h-90z" />
    <glyph glyph-name="uni2086" unicode="&#x2086;" horiz-adv-x="331" 
d="M16 76c0 118 64 194 160 194c68 0 125 -41 136 -112h-91c-5 24 -24 40 -51 40c-42 0 -67 -43 -67 -92v-17c12 27 38 49 83 49c78 0 129 -48 129 -121c0 -74 -57 -123 -143 -123c-98 0 -156 73 -156 182zM222 17c0 29 -20 49 -50 49s-50 -20 -50 -49s20 -48 50 -48
s50 19 50 48z" />
    <glyph glyph-name="uni2087" unicode="&#x2087;" horiz-adv-x="286" 
d="M3 182v82h272v-76l-138 -288h-105l139 282h-168z" />
    <glyph glyph-name="uni2087.ss09" horiz-adv-x="312" 
d="M17 264h284v-76l-138 -288h-105l139 282h-95v-49h-85v131z" />
    <glyph glyph-name="uni2088" unicode="&#x2088;" horiz-adv-x="339" 
d="M17 2c0 42 23 74 72 89c-38 16 -60 40 -60 82c0 56 53 97 141 97s142 -41 142 -97c0 -44 -24 -66 -60 -82c48 -15 71 -47 71 -89c0 -63 -56 -108 -153 -108c-96 0 -153 45 -153 108zM220 161c0 24 -21 40 -50 40c-28 0 -49 -16 -49 -40s21 -40 49 -40c30 0 50 16 50 40z
M226 10c0 26 -23 44 -56 44c-32 0 -56 -18 -56 -44c0 -24 24 -43 56 -43c33 0 56 19 56 43z" />
    <glyph glyph-name="uni2089" unicode="&#x2089;" horiz-adv-x="331" 
d="M315 88c0 -118 -64 -194 -160 -194c-68 0 -125 41 -136 112h91c5 -24 24 -40 51 -40c42 0 67 39 67 92v17c-13 -28 -38 -49 -84 -49c-77 0 -128 48 -128 121c0 74 57 123 143 123c98 0 156 -73 156 -182zM109 147c0 -29 20 -49 50 -49s50 20 50 49s-20 48 -50 48
s-50 -19 -50 -48z" />
    <glyph glyph-name="zero.dnom" horiz-adv-x="347" 
d="M17 182c0 116 59 188 157 188c97 0 156 -72 156 -188s-59 -188 -156 -188c-98 0 -157 72 -157 188zM233 182c0 64 -22 104 -59 104c-39 0 -61 -40 -61 -104c0 -65 22 -104 61 -104c37 0 59 39 59 104z" />
    <glyph glyph-name="zero.dnom.zero" horiz-adv-x="347" 
d="M174 370c97 0 156 -72 156 -188s-59 -188 -156 -188c-98 0 -157 72 -157 188s59 188 157 188zM174 288c-39 0 -62 -40 -62 -106c0 -12 0 -24 2 -34l100 118c-10 15 -24 22 -40 22zM174 76c37 0 61 39 61 106c0 13 0 24 -2 34l-100 -119c10 -13 24 -21 41 -21z" />
    <glyph glyph-name="one.dnom" horiz-adv-x="224" 
d="M87 334v30h91v-363l-93 -1v216c-6 -2 -12 -3 -19 -3h-62v85h57c17 0 26 17 26 36z" />
    <glyph glyph-name="one.dnom.ss09" horiz-adv-x="250" 
d="M175 364v-277h75v-87h-250v86h81v130c-5 -2 -11 -3 -19 -3h-62v85h57c17 0 26 17 26 36v30h92z" />
    <glyph glyph-name="two.dnom" horiz-adv-x="327" 
d="M110 225h-94v7c0 84 63 138 143 138c87 0 147 -49 147 -123c0 -54 -33 -84 -67 -108l-74 -53h145v-86h-290v81l146 101c22 16 41 35 41 63c0 25 -20 41 -47 41c-30 0 -50 -19 -50 -58v-3z" />
    <glyph glyph-name="three.dnom" horiz-adv-x="336" 
d="M119 247h-94c2 77 56 123 145 123c88 0 139 -43 139 -101c0 -43 -29 -68 -61 -78c44 -9 71 -39 71 -83c0 -70 -57 -114 -154 -114c-98 0 -150 46 -151 130h96c2 -30 19 -50 54 -50c30 0 53 16 53 41c0 26 -19 41 -54 41h-23v59h22c30 0 51 14 51 37s-18 38 -45 38
c-31 0 -47 -17 -49 -43z" />
    <glyph glyph-name="four.dnom" horiz-adv-x="353" 
d="M17 162l147 202h118v-205h54v-80h-54v-79h-93v79h-172v83zM189 159v119l-85 -119h85z" />
    <glyph glyph-name="four.dnom.ss10" horiz-adv-x="328" 
d="M17 163l147 201h118v-364h-93v80h-172v83zM189 163v110l-81 -110h81z" />
    <glyph glyph-name="five.dnom" horiz-adv-x="318" 
d="M36 364h245v-81h-170l-4 -63c17 16 42 26 71 26c73 0 122 -49 122 -122c0 -78 -58 -130 -141 -130c-78 0 -132 47 -138 117h93c4 -20 22 -33 46 -33c25 0 44 18 44 46s-19 46 -45 46c-20 1 -35 -10 -43 -25h-90z" />
    <glyph glyph-name="six.dnom" horiz-adv-x="331" 
d="M16 176c0 118 64 194 160 194c68 0 125 -41 136 -112h-91c-5 24 -24 40 -51 40c-42 0 -67 -43 -67 -92v-17c12 27 38 49 83 49c78 0 129 -48 129 -121c0 -74 -57 -123 -143 -123c-98 0 -156 73 -156 182zM222 117c0 29 -20 49 -50 49s-50 -20 -50 -49s20 -48 50 -48
s50 19 50 48z" />
    <glyph glyph-name="seven.dnom" horiz-adv-x="286" 
d="M3 282v82h272v-76l-138 -288h-105l139 282h-168z" />
    <glyph glyph-name="seven.dnom.ss09" horiz-adv-x="312" 
d="M17 364h284v-76l-138 -288h-105l139 282h-95v-49h-85v131z" />
    <glyph glyph-name="eight.dnom" horiz-adv-x="339" 
d="M17 102c0 42 23 74 72 89c-38 16 -60 40 -60 82c0 56 53 97 141 97s142 -41 142 -97c0 -44 -24 -66 -60 -82c48 -15 71 -47 71 -89c0 -63 -56 -108 -153 -108c-96 0 -153 45 -153 108zM220 261c0 24 -21 40 -50 40c-28 0 -49 -16 -49 -40s21 -40 49 -40c30 0 50 16 50 40
zM226 110c0 26 -23 44 -56 44c-32 0 -56 -18 -56 -44c0 -24 24 -43 56 -43c33 0 56 19 56 43z" />
    <glyph glyph-name="nine.dnom" horiz-adv-x="331" 
d="M315 188c0 -118 -64 -194 -160 -194c-68 0 -125 41 -136 112h91c5 -24 24 -40 51 -40c42 0 67 39 67 92v17c-13 -28 -38 -49 -84 -49c-77 0 -128 48 -128 121c0 74 57 123 143 123c98 0 156 -73 156 -182zM109 247c0 -29 20 -49 50 -49s50 20 50 49s-20 48 -50 48
s-50 -19 -50 -48z" />
    <glyph glyph-name="zero.numr" horiz-adv-x="347" 
d="M17 519c0 116 59 188 157 188c97 0 156 -72 156 -188s-59 -188 -156 -188c-98 0 -157 72 -157 188zM233 519c0 64 -22 104 -59 104c-39 0 -61 -40 -61 -104c0 -65 22 -104 61 -104c37 0 59 39 59 104z" />
    <glyph glyph-name="zero.numr.zero" horiz-adv-x="347" 
d="M174 707c97 0 156 -72 156 -188s-59 -188 -156 -188c-98 0 -157 72 -157 188s59 188 157 188zM174 625c-39 0 -62 -40 -62 -106c0 -12 0 -24 2 -34l100 118c-10 15 -24 22 -40 22zM174 413c37 0 61 39 61 106c0 13 0 24 -2 34l-100 -119c10 -13 24 -21 41 -21z" />
    <glyph glyph-name="one.numr" horiz-adv-x="224" 
d="M87 670v30h91v-363l-93 -1v216c-6 -2 -12 -3 -19 -3h-62v85h57c17 0 26 17 26 36z" />
    <glyph glyph-name="one.numr.ss09" horiz-adv-x="250" 
d="M175 700v-277h75v-87h-250v86h81v130c-5 -2 -11 -3 -19 -3h-62v85h57c17 0 26 17 26 36v30h92z" />
    <glyph glyph-name="two.numr" horiz-adv-x="327" 
d="M110 561h-94v7c0 84 63 138 143 138c87 0 147 -49 147 -123c0 -54 -33 -84 -67 -108l-74 -53h145v-86h-290v81l146 101c22 16 41 35 41 63c0 25 -20 41 -47 41c-30 0 -50 -19 -50 -58v-3z" />
    <glyph glyph-name="three.numr" horiz-adv-x="336" 
d="M119 584h-94c2 77 56 123 145 123c88 0 139 -43 139 -101c0 -43 -29 -68 -61 -78c44 -9 71 -39 71 -83c0 -70 -57 -114 -154 -114c-98 0 -150 46 -151 130h96c2 -30 19 -50 54 -50c30 0 53 16 53 41c0 26 -19 41 -54 41h-23v59h22c30 0 51 14 51 37s-18 38 -45 38
c-31 0 -47 -17 -49 -43z" />
    <glyph glyph-name="four.numr" horiz-adv-x="353" 
d="M17 498l147 202h118v-205h54v-80h-54v-79h-93v79h-172v83zM189 495v119l-85 -119h85z" />
    <glyph glyph-name="four.numr.ss10" horiz-adv-x="328" 
d="M17 499l147 201h118v-364h-93v80h-172v83zM189 499v110l-81 -110h81z" />
    <glyph glyph-name="five.numr" horiz-adv-x="318" 
d="M36 700h245v-81h-170l-4 -63c17 16 42 26 71 26c73 0 122 -49 122 -122c0 -78 -58 -130 -141 -130c-78 0 -132 47 -138 117h93c4 -20 22 -33 46 -33c25 0 44 18 44 46s-19 46 -45 46c-20 1 -35 -10 -43 -25h-90z" />
    <glyph glyph-name="six.numr" horiz-adv-x="331" 
d="M16 513c0 118 64 194 160 194c68 0 125 -41 136 -112h-91c-5 24 -24 40 -51 40c-42 0 -67 -43 -67 -92v-17c12 27 38 49 83 49c78 0 129 -48 129 -121c0 -74 -57 -123 -143 -123c-98 0 -156 73 -156 182zM222 454c0 29 -20 49 -50 49s-50 -20 -50 -49s20 -48 50 -48
s50 19 50 48z" />
    <glyph glyph-name="seven.numr" horiz-adv-x="286" 
d="M3 617v82h272v-76l-138 -288h-105l139 282h-168z" />
    <glyph glyph-name="seven.numr.ss09" horiz-adv-x="312" 
d="M17 699h284v-76l-138 -288h-105l139 282h-95v-49h-85v131z" />
    <glyph glyph-name="eight.numr" horiz-adv-x="339" 
d="M17 439c0 42 23 74 72 89c-38 16 -60 40 -60 82c0 56 53 97 141 97s142 -41 142 -97c0 -44 -24 -66 -60 -82c48 -15 71 -47 71 -89c0 -63 -56 -108 -153 -108c-96 0 -153 45 -153 108zM220 598c0 24 -21 40 -50 40c-28 0 -49 -16 -49 -40s21 -40 49 -40c30 0 50 16 50 40
zM226 447c0 26 -23 44 -56 44c-32 0 -56 -18 -56 -44c0 -24 24 -43 56 -43c33 0 56 19 56 43z" />
    <glyph glyph-name="nine.numr" horiz-adv-x="331" 
d="M315 525c0 -118 -64 -194 -160 -194c-68 0 -125 41 -136 112h91c5 -24 24 -40 51 -40c42 0 67 39 67 92v17c-13 -28 -38 -49 -84 -49c-77 0 -128 48 -128 121c0 74 57 123 143 123c98 0 156 -73 156 -182zM109 584c0 -29 20 -49 50 -49s50 20 50 49s-20 48 -50 48
s-50 -19 -50 -48z" />
    <glyph glyph-name="uni2070" unicode="&#x2070;" horiz-adv-x="347" 
d="M17 619c0 116 59 188 157 188c97 0 156 -72 156 -188s-59 -188 -156 -188c-98 0 -157 72 -157 188zM233 619c0 64 -22 104 -59 104c-39 0 -61 -40 -61 -104c0 -65 22 -104 61 -104c37 0 59 39 59 104z" />
    <glyph glyph-name="uni2070.zero" horiz-adv-x="347" 
d="M174 807c97 0 156 -72 156 -188s-59 -188 -156 -188c-98 0 -157 72 -157 188s59 188 157 188zM174 725c-39 0 -62 -40 -62 -106c0 -12 0 -24 2 -34l100 118c-10 15 -24 22 -40 22zM174 513c37 0 61 39 61 106c0 13 0 24 -2 34l-100 -119c10 -13 24 -21 41 -21z" />
    <glyph glyph-name="uni00B9" unicode="&#xb9;" horiz-adv-x="224" 
d="M87 770v30h91v-363l-93 -1v216c-6 -2 -12 -3 -19 -3h-62v85h57c17 0 26 17 26 36z" />
    <glyph glyph-name="uni00B9.ss09" horiz-adv-x="250" 
d="M175 800v-277h75v-87h-250v86h81v130c-5 -2 -11 -3 -19 -3h-62v85h57c17 0 26 17 26 36v30h92z" />
    <glyph glyph-name="uni00B2" unicode="&#xb2;" horiz-adv-x="327" 
d="M110 661h-94v7c0 84 63 138 143 138c87 0 147 -49 147 -123c0 -54 -33 -84 -67 -108l-74 -53h145v-86h-290v81l146 101c22 16 41 35 41 63c0 25 -20 41 -47 41c-30 0 -50 -19 -50 -58v-3z" />
    <glyph glyph-name="uni00B3" unicode="&#xb3;" horiz-adv-x="336" 
d="M119 684h-94c2 77 56 123 145 123c88 0 139 -43 139 -101c0 -43 -29 -68 -61 -78c44 -9 71 -39 71 -83c0 -70 -57 -114 -154 -114c-98 0 -150 46 -151 130h96c2 -30 19 -50 54 -50c30 0 53 16 53 41c0 26 -19 41 -54 41h-23v59h22c30 0 51 14 51 37s-18 38 -45 38
c-31 0 -47 -17 -49 -43z" />
    <glyph glyph-name="uni2074" unicode="&#x2074;" horiz-adv-x="353" 
d="M17 598l147 202h118v-205h54v-80h-54v-79h-93v79h-172v83zM189 595v119l-85 -119h85z" />
    <glyph glyph-name="uni2074.ss10" horiz-adv-x="328" 
d="M17 598l147 201h118v-364h-93v80h-172v83zM189 598v110l-81 -110h81z" />
    <glyph glyph-name="uni2075" unicode="&#x2075;" horiz-adv-x="318" 
d="M36 800h245v-81h-170l-4 -63c17 16 42 26 71 26c73 0 122 -49 122 -122c0 -78 -58 -130 -141 -130c-78 0 -132 47 -138 117h93c4 -20 22 -33 46 -33c25 0 44 18 44 46s-19 46 -45 46c-20 1 -35 -10 -43 -25h-90z" />
    <glyph glyph-name="uni2076" unicode="&#x2076;" horiz-adv-x="331" 
d="M16 613c0 118 64 194 160 194c68 0 125 -41 136 -112h-91c-5 24 -24 40 -51 40c-42 0 -67 -43 -67 -92v-17c12 27 38 49 83 49c78 0 129 -48 129 -121c0 -74 -57 -123 -143 -123c-98 0 -156 73 -156 182zM222 554c0 29 -20 49 -50 49s-50 -20 -50 -49s20 -48 50 -48
s50 19 50 48z" />
    <glyph glyph-name="uni2077" unicode="&#x2077;" horiz-adv-x="286" 
d="M3 717v82h272v-76l-138 -288h-105l139 282h-168z" />
    <glyph glyph-name="uni2077.ss09" horiz-adv-x="312" 
d="M17 800h284v-76l-138 -288h-105l139 282h-95v-49h-85v131z" />
    <glyph glyph-name="uni2078" unicode="&#x2078;" horiz-adv-x="339" 
d="M17 539c0 42 23 74 72 89c-38 16 -60 40 -60 82c0 56 53 97 141 97s142 -41 142 -97c0 -44 -24 -66 -60 -82c48 -15 71 -47 71 -89c0 -63 -56 -108 -153 -108c-96 0 -153 45 -153 108zM220 698c0 24 -21 40 -50 40c-28 0 -49 -16 -49 -40s21 -40 49 -40c30 0 50 16 50 40
zM226 547c0 26 -23 44 -56 44c-32 0 -56 -18 -56 -44c0 -24 24 -43 56 -43c33 0 56 19 56 43z" />
    <glyph glyph-name="uni2079" unicode="&#x2079;" horiz-adv-x="331" 
d="M315 625c0 -118 -64 -194 -160 -194c-68 0 -125 41 -136 112h91c5 -24 24 -40 51 -40c42 0 67 39 67 92v17c-13 -28 -38 -49 -84 -49c-77 0 -128 48 -128 121c0 74 57 123 143 123c98 0 156 -73 156 -182zM109 684c0 -29 20 -49 50 -49s50 20 50 49s-20 48 -50 48
s-50 -19 -50 -48z" />
    <glyph glyph-name="fraction" unicode="&#x2044;" horiz-adv-x="196" 
d="M-67 0h-113l443 700h113z" />
    <glyph glyph-name="onehalf" unicode="&#xbd;" horiz-adv-x="746" 
d="M87 670v30h91v-363l-93 -1v216c-6 -2 -12 -3 -19 -3h-62v85h57c17 0 26 17 26 36zM157 0h-113l443 700h113zM530 225h-94v7c0 84 63 138 143 138c87 0 147 -49 147 -123c0 -54 -33 -84 -67 -108l-74 -53h145v-86h-290v81l146 101c22 16 41 35 41 63c0 25 -20 41 -47 41
c-30 0 -50 -19 -50 -58v-3z" />
    <glyph glyph-name="uni2153" unicode="&#x2153;" horiz-adv-x="756" 
d="M87 670v30h91v-363l-93 -1v216c-6 -2 -12 -3 -19 -3h-62v85h57c17 0 26 17 26 36zM157 0h-113l443 700h113zM539 247h-94c2 77 56 123 145 123c88 0 139 -43 139 -101c0 -43 -29 -68 -61 -78c44 -9 71 -39 71 -83c0 -70 -57 -114 -154 -114c-98 0 -150 46 -151 130h96
c2 -30 19 -50 54 -50c30 0 53 16 53 41c0 26 -19 41 -54 41h-23v59h22c30 0 51 14 51 37s-18 38 -45 38c-31 0 -47 -17 -49 -43z" />
    <glyph glyph-name="onequarter" unicode="&#xbc;" horiz-adv-x="743" 
d="M87 670v30h91v-363l-93 -1v216c-6 -2 -12 -3 -19 -3h-62v85h57c17 0 26 17 26 36zM157 0h-113l443 700h113zM407 162l147 202h118v-205h54v-80h-54v-79h-93v79h-172v83zM579 159v119l-85 -119h85z" />
    <glyph glyph-name="threequarters" unicode="&#xbe;" horiz-adv-x="855" 
d="M119 584h-94c2 77 56 123 145 123c88 0 139 -43 139 -101c0 -43 -29 -68 -61 -78c44 -9 71 -39 71 -83c0 -70 -57 -114 -154 -114c-98 0 -150 46 -151 130h96c2 -30 19 -50 54 -50c30 0 53 16 53 41c0 26 -19 41 -54 41h-23v59h22c30 0 51 14 51 37s-18 38 -45 38
c-31 0 -47 -17 -49 -43zM269 0h-113l443 700h113zM519 162l147 202h118v-205h54v-80h-54v-79h-93v79h-172v83zM691 159v119l-85 -119h85z" />
    <glyph glyph-name="uni2155" unicode="&#x2155;" horiz-adv-x="738" 
d="M87 670v30h91v-363l-93 -1v216c-6 -2 -12 -3 -19 -3h-62v85h57c17 0 26 17 26 36zM157 0h-113l443 700h113zM456 364h245v-81h-170l-4 -63c17 16 42 26 71 26c73 0 122 -49 122 -122c0 -78 -58 -130 -141 -130c-78 0 -132 47 -138 117h93c4 -20 22 -33 46 -33
c25 0 44 18 44 46s-19 46 -45 46c-20 1 -35 -10 -43 -25h-90z" />
    <glyph glyph-name="uni2156" unicode="&#x2156;" horiz-adv-x="841" 
d="M110 561h-94v7c0 84 63 138 143 138c87 0 147 -49 147 -123c0 -54 -33 -84 -67 -108l-74 -53h145v-86h-290v81l146 101c22 16 41 35 41 63c0 25 -20 41 -47 41c-30 0 -50 -19 -50 -58v-3zM260 0h-113l443 700h113zM559 364h245v-81h-170l-4 -63c17 16 42 26 71 26
c73 0 122 -49 122 -122c0 -78 -58 -130 -141 -130c-78 0 -132 47 -138 117h93c4 -20 22 -33 46 -33c25 0 44 18 44 46s-19 46 -45 46c-20 1 -35 -10 -43 -25h-90z" />
    <glyph glyph-name="uni2157" unicode="&#x2157;" horiz-adv-x="850" 
d="M119 584h-94c2 77 56 123 145 123c88 0 139 -43 139 -101c0 -43 -29 -68 -61 -78c44 -9 71 -39 71 -83c0 -70 -57 -114 -154 -114c-98 0 -150 46 -151 130h96c2 -30 19 -50 54 -50c30 0 53 16 53 41c0 26 -19 41 -54 41h-23v59h22c30 0 51 14 51 37s-18 38 -45 38
c-31 0 -47 -17 -49 -43zM269 0h-113l443 700h113zM568 364h245v-81h-170l-4 -63c17 16 42 26 71 26c73 0 122 -49 122 -122c0 -78 -58 -130 -141 -130c-78 0 -132 47 -138 117h93c4 -20 22 -33 46 -33c25 0 44 18 44 46s-19 46 -45 46c-20 1 -35 -10 -43 -25h-90z" />
    <glyph glyph-name="uni2158" unicode="&#x2158;" horiz-adv-x="867" 
d="M17 498l147 202h118v-205h54v-80h-54v-79h-93v79h-172v83zM286 0h-113l443 700h113zM189 495v119l-85 -119h85zM585 364h245v-81h-170l-4 -63c17 16 42 26 71 26c73 0 122 -49 122 -122c0 -78 -58 -130 -141 -130c-78 0 -132 47 -138 117h93c4 -20 22 -33 46 -33
c25 0 44 18 44 46s-19 46 -45 46c-20 1 -35 -10 -43 -25h-90z" />
    <glyph glyph-name="uni2159" unicode="&#x2159;" horiz-adv-x="751" 
d="M87 670v30h91v-363l-93 -1v216c-6 -2 -12 -3 -19 -3h-62v85h57c17 0 26 17 26 36zM157 0h-113l443 700h113zM436 176c0 118 64 194 160 194c68 0 125 -41 136 -112h-91c-5 24 -24 40 -51 40c-42 0 -67 -43 -67 -92v-17c12 27 38 49 83 49c78 0 129 -48 129 -121
c0 -74 -57 -123 -143 -123c-98 0 -156 73 -156 182zM642 117c0 29 -20 49 -50 49s-50 -20 -50 -49s20 -48 50 -48s50 19 50 48z" />
    <glyph glyph-name="oneeighth" unicode="&#x215b;" horiz-adv-x="759" 
d="M87 670v30h91v-363l-93 -1v216c-6 -2 -12 -3 -19 -3h-62v85h57c17 0 26 17 26 36zM157 0h-113l443 700h113zM437 102c0 42 23 74 72 89c-38 16 -60 40 -60 82c0 56 53 97 141 97s142 -41 142 -97c0 -44 -24 -66 -60 -82c48 -15 71 -47 71 -89c0 -63 -56 -108 -153 -108
c-96 0 -153 45 -153 108zM640 261c0 24 -21 40 -50 40c-28 0 -49 -16 -49 -40s21 -40 49 -40c30 0 50 16 50 40zM646 110c0 26 -23 44 -56 44c-32 0 -56 -18 -56 -44c0 -24 24 -43 56 -43c33 0 56 19 56 43z" />
    <glyph glyph-name="threeeighths" unicode="&#x215c;" horiz-adv-x="871" 
d="M119 584h-94c2 77 56 123 145 123c88 0 139 -43 139 -101c0 -43 -29 -68 -61 -78c44 -9 71 -39 71 -83c0 -70 -57 -114 -154 -114c-98 0 -150 46 -151 130h96c2 -30 19 -50 54 -50c30 0 53 16 53 41c0 26 -19 41 -54 41h-23v59h22c30 0 51 14 51 37s-18 38 -45 38
c-31 0 -47 -17 -49 -43zM269 0h-113l443 700h113zM549 102c0 42 23 74 72 89c-38 16 -60 40 -60 82c0 56 53 97 141 97s142 -41 142 -97c0 -44 -24 -66 -60 -82c48 -15 71 -47 71 -89c0 -63 -56 -108 -153 -108c-96 0 -153 45 -153 108zM752 261c0 24 -21 40 -50 40
c-28 0 -49 -16 -49 -40s21 -40 49 -40c30 0 50 16 50 40zM758 110c0 26 -23 44 -56 44c-32 0 -56 -18 -56 -44c0 -24 24 -43 56 -43c33 0 56 19 56 43z" />
    <glyph glyph-name="fiveeighths" unicode="&#x215d;" horiz-adv-x="853" 
d="M36 700h245v-81h-170l-4 -63c17 16 42 26 71 26c73 0 122 -49 122 -122c0 -78 -58 -130 -141 -130c-78 0 -132 47 -138 117h93c4 -20 22 -33 46 -33c25 0 44 18 44 46s-19 46 -45 46c-20 1 -35 -10 -43 -25h-90zM251 0h-113l443 700h113zM531 102c0 42 23 74 72 89
c-38 16 -60 40 -60 82c0 56 53 97 141 97s142 -41 142 -97c0 -44 -24 -66 -60 -82c48 -15 71 -47 71 -89c0 -63 -56 -108 -153 -108c-96 0 -153 45 -153 108zM734 261c0 24 -21 40 -50 40c-28 0 -49 -16 -49 -40s21 -40 49 -40c30 0 50 16 50 40zM740 110
c0 26 -23 44 -56 44c-32 0 -56 -18 -56 -44c0 -24 24 -43 56 -43c33 0 56 19 56 43z" />
    <glyph glyph-name="seveneighths" unicode="&#x215e;" horiz-adv-x="799" 
d="M197 0h-113l443 700h113zM3 617v82h272v-76l-138 -288h-105l139 282h-168zM477 102c0 42 23 74 72 89c-38 16 -60 40 -60 82c0 56 53 97 141 97s142 -41 142 -97c0 -44 -24 -66 -60 -82c48 -15 71 -47 71 -89c0 -63 -56 -108 -153 -108c-96 0 -153 45 -153 108zM680 261
c0 24 -21 40 -50 40c-28 0 -49 -16 -49 -40s21 -40 49 -40c30 0 50 16 50 40zM686 110c0 26 -23 44 -56 44c-32 0 -56 -18 -56 -44c0 -24 24 -43 56 -43c33 0 56 19 56 43z" />
    <glyph glyph-name="period" unicode="." horiz-adv-x="248" 
d="M39 77c0 49 36 84 85 84c48 0 85 -35 85 -84c0 -48 -37 -83 -85 -83c-49 0 -85 35 -85 83z" />
    <glyph glyph-name="comma" unicode="," horiz-adv-x="248" 
d="M114 158c63 0 105 -54 105 -131c0 -112 -73 -171 -187 -172v73c64 1 95 32 95 68c0 4 0 10 -1 14c-10 -5 -20 -8 -32 -8c-37 0 -68 25 -68 76c0 44 39 80 88 80z" />
    <glyph glyph-name="colon" unicode=":" horiz-adv-x="248" 
d="M39 425c0 48 36 83 85 83c48 0 85 -35 85 -83c0 -49 -37 -83 -85 -83c-49 0 -85 34 -85 83zM39 77c0 49 36 84 85 84c48 0 85 -35 85 -84c0 -48 -37 -83 -85 -83c-49 0 -85 35 -85 83z" />
    <glyph glyph-name="semicolon" unicode=";" horiz-adv-x="248" 
d="M34 424c0 49 36 84 85 84c48 0 85 -35 85 -84c0 -48 -37 -83 -85 -83c-49 0 -85 35 -85 83zM114 158c63 0 105 -54 105 -131c0 -112 -73 -171 -187 -172v73c64 1 95 32 95 68c0 4 0 10 -1 14c-10 -5 -20 -8 -32 -8c-37 0 -68 25 -68 76c0 44 39 80 88 80z" />
    <glyph glyph-name="colon.case" horiz-adv-x="248" 
d="M39 450c0 49 36 84 85 84c48 0 85 -35 85 -84c0 -48 -37 -83 -85 -83c-49 0 -85 35 -85 83zM39 103c0 48 36 83 85 83c48 0 85 -35 85 -83c0 -49 -37 -84 -85 -84c-49 0 -85 35 -85 84z" />
    <glyph glyph-name="semicolon.case" horiz-adv-x="248" 
d="M34 453c0 48 36 83 85 83c48 0 85 -35 85 -83s-37 -83 -85 -83c-49 0 -85 35 -85 83zM114 187c63 0 105 -54 105 -131c0 -112 -73 -171 -187 -172v73c64 0 95 32 95 68c0 4 0 9 -1 14c-10 -5 -20 -8 -32 -8c-37 0 -68 25 -68 75c0 45 39 81 88 81z" />
    <glyph glyph-name="ellipsis" unicode="&#x2026;" horiz-adv-x="720" 
d="M39 77c0 49 36 84 85 84c48 0 85 -35 85 -84c0 -48 -37 -83 -85 -83c-49 0 -85 35 -85 83zM275 77c0 49 36 84 85 84s85 -35 85 -84c0 -48 -36 -83 -85 -83s-85 35 -85 83zM511 77c0 49 37 84 85 84c49 0 85 -35 85 -84c0 -48 -36 -83 -85 -83c-48 0 -85 35 -85 83z" />
    <glyph glyph-name="exclam" unicode="!" horiz-adv-x="289" 
d="M199 217h-107l-23 483h151zM60 77c0 49 36 84 84 84c49 0 85 -35 85 -84c0 -48 -36 -83 -85 -83c-48 0 -84 35 -84 83z" />
    <glyph glyph-name="exclamdown" unicode="&#xa1;" horiz-adv-x="289" 
d="M144 706c49 0 85 -35 85 -83c0 -49 -36 -84 -85 -84c-48 0 -84 35 -84 84c0 48 36 83 84 83zM69 0l23 483h107l21 -483h-151z" />
    <glyph glyph-name="question" unicode="?" horiz-adv-x="534" 
d="M165 463h-143c0 132 90 243 248 243c148 0 238 -79 238 -189c0 -96 -49 -137 -104 -175c-55 -37 -82 -61 -82 -104v-13h-132v28c0 83 43 116 106 153c46 29 67 58 67 98c0 48 -36 81 -92 81c-64 0 -106 -49 -106 -122zM177 75c0 47 36 80 83 80s83 -33 83 -80
s-36 -81 -83 -81s-83 34 -83 81z" />
    <glyph glyph-name="questiondown" unicode="&#xbf;" horiz-adv-x="530" 
d="M357 625c0 -47 -36 -80 -83 -80c-48 0 -83 33 -83 80s35 81 83 81c47 0 83 -34 83 -81zM368 237h144c0 -132 -90 -243 -248 -243c-148 0 -238 79 -238 189c0 96 49 137 104 175c55 37 82 61 82 104v13h132v-28c0 -83 -43 -116 -106 -153c-46 -29 -68 -58 -68 -98
c0 -48 37 -81 93 -81c64 0 105 49 105 122z" />
    <glyph glyph-name="periodcentered" unicode="&#xb7;" horiz-adv-x="248" 
d="M39 284c0 49 36 84 85 84c48 0 85 -35 85 -84c0 -48 -37 -83 -85 -83c-49 0 -85 35 -85 83z" />
    <glyph glyph-name="periodcentered.case" horiz-adv-x="288" 
d="M59 350c0 48 36 83 85 83c48 0 85 -35 85 -83c0 -49 -37 -84 -85 -84c-49 0 -85 35 -85 84z" />
    <glyph glyph-name="bullet" unicode="&#x2022;" horiz-adv-x="450" 
d="M59 335c0 95 71 161 166 161s166 -66 166 -161s-71 -162 -166 -162s-166 67 -166 162z" />
    <glyph glyph-name="asterisk" unicode="*" horiz-adv-x="434" 
d="M361 637l40 -89l-115 -41l79 -87l-74 -63l-75 105l-74 -104l-74 63l80 87l-115 42l39 88l101 -52l-4 114h95l-4 -115z" />
    <glyph glyph-name="uni2051" unicode="&#x2051;" horiz-adv-x="488" 
d="M388 677l40 -89l-115 -41l79 -87l-74 -63l-75 105l-75 -104l-73 63l79 87l-114 42l39 88l101 -52l-4 114h95l-4 -115zM388 229l40 -89l-115 -41l79 -87l-74 -63l-75 105l-75 -104l-73 63l79 87l-114 42l39 88l101 -52l-4 114h95l-4 -115z" />
    <glyph glyph-name="uni2042" unicode="&#x2042;" horiz-adv-x="984" 
d="M635 677l40 -89l-116 -41l79 -87l-74 -63l-74 105l-75 -104l-74 63l80 87l-115 42l39 88l101 -52l-4 114h96l-5 -115zM388 232l40 -89l-115 -41l79 -87l-74 -63l-75 105l-75 -104l-73 63l79 87l-114 42l39 88l101 -52l-4 114h95l-4 -115zM885 232l40 -89l-116 -41l79 -87
l-74 -63l-74 105l-75 -104l-74 63l80 87l-115 42l39 88l101 -52l-4 114h96l-5 -115z" />
    <glyph glyph-name="numbersign" unicode="#" horiz-adv-x="562" 
d="M139 465l21 141h116l-22 -141h100l21 141h115l-21 -141h69v-117h-86l-13 -90h78v-117h-95l-21 -141h-116l22 141h-100l-21 -141h-115l21 141h-69v117h86l13 90h-78v117h95zM337 348h-100l-13 -90h100z" />
    <glyph glyph-name="bar" unicode="|" horiz-adv-x="260" 
d="M60 -130v860h141v-860h-141z" />
    <glyph glyph-name="brokenbar" unicode="&#xa6;" horiz-adv-x="260" 
d="M60 365v365h141v-365h-141zM60 -130v360h141v-360h-141z" />
    <glyph glyph-name="slash" unicode="/" horiz-adv-x="383" 
d="M133 -130h-133l283 860h134z" />
    <glyph glyph-name="backslash" unicode="\" horiz-adv-x="442" 
d="M160 730l283 -860h-134l-283 860h134z" />
    <glyph glyph-name="parenleft" unicode="(" horiz-adv-x="344" 
d="M338 -130h-150c-100 136 -146 270 -146 430c0 156 45 293 146 430h150c-114 -155 -157 -272 -157 -430c0 -160 42 -278 157 -430z" />
    <glyph glyph-name="parenright" unicode=")" horiz-adv-x="344" 
d="M6 730h150c100 -136 146 -270 146 -430c0 -156 -45 -293 -146 -430h-150c114 155 157 272 157 430c0 160 -42 278 -157 430z" />
    <glyph glyph-name="braceleft" unicode="{" horiz-adv-x="345" 
d="M332 607h-35c-47 -1 -73 -24 -73 -65c0 -8 1 -17 4 -27l19 -75c2 -11 4 -23 4 -33c0 -50 -34 -90 -95 -106c61 -10 96 -49 96 -102c0 -12 -1 -25 -5 -39l-19 -75c-3 -11 -4 -20 -4 -27c0 -42 26 -64 73 -65h35v-123h-29c-134 0 -214 59 -214 155c0 12 1 25 4 39l18 83
c2 10 2 20 2 28c0 44 -32 64 -90 64v122c59 0 91 22 91 64c0 8 -1 18 -3 28l-18 83c-3 14 -4 27 -4 40c0 95 81 154 214 154h29v-123z" />
    <glyph glyph-name="braceright" unicode="}" horiz-adv-x="345" 
d="M322 361v-122c-58 0 -91 -20 -91 -64c0 -8 1 -18 3 -28l18 -83c3 -14 4 -27 4 -39c0 -96 -81 -155 -214 -155h-30v123h36c47 1 72 23 72 65c0 7 -1 16 -3 27l-19 75c-4 14 -5 27 -5 39c0 53 35 92 96 102c-61 16 -96 56 -96 106c0 10 2 22 5 33l19 75c2 10 3 19 3 27
c0 41 -25 64 -72 65h-36v123h30c133 0 214 -59 214 -154c0 -13 -1 -26 -4 -40l-18 -83c-2 -10 -4 -20 -4 -28c0 -42 32 -64 92 -64z" />
    <glyph glyph-name="bracketleft" unicode="[" horiz-adv-x="330" 
d="M51 -130v860h267v-123h-134v-614h134v-123h-267z" />
    <glyph glyph-name="bracketright" unicode="]" horiz-adv-x="330" 
d="M279 730v-860h-267v123h134v614h-134v123h267z" />
    <glyph glyph-name="hyphen" unicode="-" horiz-adv-x="430" 
d="M390 227h-350v115h350v-115z" />
    <glyph glyph-name="endash" unicode="&#x2013;" horiz-adv-x="615" 
d="M568 227h-521v115h521v-115z" />
    <glyph glyph-name="emdash" unicode="&#x2014;" horiz-adv-x="925" 
d="M40 227v115h845v-115h-845z" />
    <glyph glyph-name="bar.case" horiz-adv-x="268" 
d="M60 0v700h149v-700h-149z" />
    <glyph glyph-name="brokenbar.case" horiz-adv-x="268" 
d="M60 383v317h149v-317h-149zM60 0v313h149v-313h-149z" />
    <glyph glyph-name="slash.case" horiz-adv-x="361" 
d="M-4 0l228 700h142l-229 -700h-141z" />
    <glyph glyph-name="backslash.case" horiz-adv-x="361" 
d="M-4 700h141l229 -700h-142z" />
    <glyph glyph-name="parenleft.case" horiz-adv-x="299" 
d="M42 350c0 136 44 265 94 350h145c-66 -100 -99 -227 -99 -350s33 -251 99 -350h-145c-50 84 -94 213 -94 350z" />
    <glyph glyph-name="parenright.case" horiz-adv-x="299" 
d="M163 0h-145c66 99 100 227 100 350s-34 250 -100 350h145c50 -85 94 -214 94 -350c0 -137 -44 -266 -94 -350z" />
    <glyph glyph-name="braceleft.case" horiz-adv-x="377" 
d="M360 577h-36c-57 -2 -79 -27 -79 -71c0 -10 1 -22 4 -36c2 -11 3 -23 3 -33c0 -48 -38 -76 -78 -87c42 -10 79 -39 79 -86c0 -11 -2 -22 -4 -34c-3 -13 -4 -25 -4 -36c0 -44 22 -69 79 -71h36v-123h-53c-106 0 -188 26 -188 145c0 9 1 20 2 31c2 17 3 28 3 41
c0 55 -30 74 -100 74v119c69 0 100 18 100 74c0 11 -1 23 -3 37c-1 11 -2 24 -2 34c0 119 82 145 188 145h53v-123z" />
    <glyph glyph-name="braceright.case" horiz-adv-x="377" 
d="M253 484c0 -56 31 -74 100 -74v-119c-70 0 -100 -19 -100 -74c0 -13 1 -24 3 -41c1 -11 3 -22 3 -31c0 -119 -83 -145 -189 -145h-53v123h37c56 2 78 27 78 71c0 11 -1 23 -4 36c-2 12 -4 23 -4 34c0 47 37 76 79 86c-39 11 -78 39 -78 87c0 10 1 22 3 33c3 14 4 26 4 36
c0 44 -22 69 -78 71h-37v123h53c106 0 189 -26 189 -145c0 -10 -2 -23 -3 -34c-1 -14 -3 -26 -3 -37z" />
    <glyph glyph-name="bracketleft.case" horiz-adv-x="318" 
d="M51 0v700h251v-123h-118v-454h118v-123h-251z" />
    <glyph glyph-name="bracketright.case" horiz-adv-x="318" 
d="M17 700h250v-700h-250v123h117v454h-117v123z" />
    <glyph glyph-name="hyphen.case" horiz-adv-x="440" 
d="M395 291h-350v125h350v-125z" />
    <glyph glyph-name="endash.case" horiz-adv-x="610" 
d="M565 291h-520v125h520v-125z" />
    <glyph glyph-name="emdash.case" horiz-adv-x="935" 
d="M45 290v125h845v-125h-845z" />
    <glyph glyph-name="underscore" unicode="_" horiz-adv-x="504" 
d="M454 -136h-404v130h404v-130z" />
    <glyph glyph-name="quotesinglbase" unicode="&#x201a;" horiz-adv-x="248" 
d="M114 158c63 0 105 -54 105 -131c0 -112 -73 -171 -187 -172v73c64 1 95 32 95 68c0 4 0 10 -1 14c-10 -5 -20 -8 -32 -8c-37 0 -68 25 -68 76c0 44 39 80 88 80z" />
    <glyph glyph-name="quotedblbase" unicode="&#x201e;" horiz-adv-x="464" 
d="M114 158c63 0 105 -54 105 -131c0 -112 -73 -171 -187 -172v73c64 1 95 32 95 68c0 4 0 10 -1 14c-10 -5 -20 -8 -32 -8c-37 0 -68 25 -68 76c0 44 39 80 88 80zM331 158c63 0 104 -54 104 -131c0 -112 -73 -171 -186 -172v73c63 1 94 32 94 68c0 4 0 10 -1 14
c-10 -5 -20 -8 -32 -8c-36 0 -67 25 -67 76c0 44 38 80 88 80z" />
    <glyph glyph-name="quotedblleft" unicode="&#x201c;" horiz-adv-x="464" 
d="M133 403c-63 0 -104 54 -104 131c0 113 73 171 186 172v-73c-63 0 -94 -32 -94 -68c0 -4 0 -9 1 -14c10 5 20 8 32 8c36 0 67 -25 67 -75c0 -45 -38 -81 -88 -81zM350 403c-63 0 -105 54 -105 131c0 113 73 171 187 172v-73c-64 0 -95 -32 -95 -68c0 -4 0 -9 1 -14
c10 5 20 8 32 8c37 0 68 -25 68 -75c0 -45 -39 -81 -88 -81z" />
    <glyph glyph-name="quotedblright" unicode="&#x201d;" horiz-adv-x="464" 
d="M114 706c63 0 105 -54 105 -131c0 -113 -73 -171 -187 -172v73c64 0 95 32 95 68c0 4 0 9 -1 14c-10 -5 -20 -8 -32 -8c-37 0 -68 25 -68 75c0 45 39 81 88 81zM331 706c63 0 104 -54 104 -131c0 -113 -73 -171 -186 -172v73c63 0 94 32 94 68c0 4 0 9 -1 14
c-10 -5 -20 -8 -32 -8c-36 0 -67 25 -67 75c0 45 38 81 88 81z" />
    <glyph glyph-name="quoteleft" unicode="&#x2018;" horiz-adv-x="248" 
d="M133 403c-63 0 -104 54 -104 131c0 113 73 171 186 172v-73c-63 0 -94 -32 -94 -68c0 -4 0 -9 1 -14c10 5 20 8 32 8c36 0 67 -25 67 -75c0 -45 -38 -81 -88 -81z" />
    <glyph glyph-name="quoteright" unicode="&#x2019;" horiz-adv-x="248" 
d="M114 706c63 0 105 -54 105 -131c0 -113 -73 -171 -187 -172v73c64 0 95 32 95 68c0 4 0 9 -1 14c-10 -5 -20 -8 -32 -8c-37 0 -68 25 -68 75c0 45 39 81 88 81z" />
    <glyph glyph-name="guillemotleft" unicode="&#xab;" horiz-adv-x="578" 
d="M171 514h141l-150 -257l150 -257h-141l-152 257zM414 513h142l-150 -257l150 -257h-142l-151 257z" />
    <glyph glyph-name="guillemotright" unicode="&#xbb;" horiz-adv-x="578" 
d="M416 257l-150 257h142l152 -257l-152 -257h-142zM172 256l-149 257h141l152 -257l-152 -257h-141z" />
    <glyph glyph-name="guilsinglleft" unicode="&#x2039;" horiz-adv-x="335" 
d="M171 514h141l-150 -257l150 -257h-141l-152 257z" />
    <glyph glyph-name="guilsinglright" unicode="&#x203a;" horiz-adv-x="335" 
d="M172 257l-149 257h141l152 -257l-152 -257h-141z" />
    <glyph glyph-name="guillemotleft.case" horiz-adv-x="588" 
d="M176 603h141l-150 -257l150 -257h-141l-152 257zM419 602h142l-150 -257l150 -257h-142l-151 257z" />
    <glyph glyph-name="guillemotright.case" horiz-adv-x="588" 
d="M421 346l-150 257h142l152 -257l-152 -257h-142zM177 345l-149 257h141l152 -257l-152 -257h-141z" />
    <glyph glyph-name="guilsinglleft.case" horiz-adv-x="335" 
d="M171 602h141l-150 -257l150 -257h-141l-152 257z" />
    <glyph glyph-name="guilsinglright.case" horiz-adv-x="335" 
d="M172 345l-149 257h141l152 -257l-152 -257h-141z" />
    <glyph glyph-name="quotedbl" unicode="&#x22;" horiz-adv-x="411" 
d="M154 429h-90l-30 189c-7 48 19 87 75 87s82 -39 74 -87zM347 429h-90l-29 189c-8 48 18 87 74 87c57 0 82 -39 75 -87z" />
    <glyph glyph-name="quotesingle" unicode="'" horiz-adv-x="217" 
d="M154 429h-90l-30 189c-7 48 19 87 75 87s82 -39 74 -87z" />
    </font>
</defs>
</svg>
